<mxfile host="Electron" agent="Mozilla/5.0 (Windows NT 10.0; Win64; x64) AppleWebKit/537.36 (KHTML, like Gecko) draw.io/24.7.17 Chrome/128.0.6613.36 Electron/32.0.1 Safari/537.36" version="24.7.17">
  <diagram name="Page-1" id="k9D4mQA_MVCL1UezTVWa">
    <mxGraphModel dx="2281" dy="769" grid="1" gridSize="10" guides="1" tooltips="1" connect="1" arrows="1" fold="1" page="1" pageScale="1" pageWidth="850" pageHeight="1100" math="0" shadow="0">
      <root>
        <mxCell id="0" />
        <mxCell id="1" parent="0" />
        <mxCell id="B6C2UPkhNcGsAQH5O93r-1" value="Persons" style="shape=table;startSize=30;container=1;collapsible=1;childLayout=tableLayout;fixedRows=1;rowLines=0;fontStyle=1;align=center;resizeLast=1;html=1;rounded=1;labelBackgroundColor=none;" parent="1" vertex="1">
          <mxGeometry x="-310" y="40" width="180" height="120" as="geometry" />
        </mxCell>
        <mxCell id="B6C2UPkhNcGsAQH5O93r-2" value="" style="shape=tableRow;horizontal=0;startSize=0;swimlaneHead=0;swimlaneBody=0;fillColor=none;collapsible=0;dropTarget=0;points=[[0,0.5],[1,0.5]];portConstraint=eastwest;top=0;left=0;right=0;bottom=1;rounded=1;labelBackgroundColor=none;" parent="B6C2UPkhNcGsAQH5O93r-1" vertex="1">
          <mxGeometry y="30" width="180" height="30" as="geometry" />
        </mxCell>
        <mxCell id="B6C2UPkhNcGsAQH5O93r-3" value="PK" style="shape=partialRectangle;connectable=0;fillColor=none;top=0;left=0;bottom=0;right=0;fontStyle=1;overflow=hidden;whiteSpace=wrap;html=1;rounded=1;labelBackgroundColor=none;" parent="B6C2UPkhNcGsAQH5O93r-2" vertex="1">
          <mxGeometry width="30" height="30" as="geometry">
            <mxRectangle width="30" height="30" as="alternateBounds" />
          </mxGeometry>
        </mxCell>
        <mxCell id="B6C2UPkhNcGsAQH5O93r-4" value="ID" style="shape=partialRectangle;connectable=0;fillColor=none;top=0;left=0;bottom=0;right=0;align=left;spacingLeft=6;fontStyle=5;overflow=hidden;whiteSpace=wrap;html=1;rounded=1;labelBackgroundColor=none;" parent="B6C2UPkhNcGsAQH5O93r-2" vertex="1">
          <mxGeometry x="30" width="150" height="30" as="geometry">
            <mxRectangle width="150" height="30" as="alternateBounds" />
          </mxGeometry>
        </mxCell>
        <mxCell id="B6C2UPkhNcGsAQH5O93r-5" value="" style="shape=tableRow;horizontal=0;startSize=0;swimlaneHead=0;swimlaneBody=0;fillColor=none;collapsible=0;dropTarget=0;points=[[0,0.5],[1,0.5]];portConstraint=eastwest;top=0;left=0;right=0;bottom=0;rounded=1;labelBackgroundColor=none;" parent="B6C2UPkhNcGsAQH5O93r-1" vertex="1">
          <mxGeometry y="60" width="180" height="30" as="geometry" />
        </mxCell>
        <mxCell id="B6C2UPkhNcGsAQH5O93r-6" value="" style="shape=partialRectangle;connectable=0;fillColor=none;top=0;left=0;bottom=0;right=0;editable=1;overflow=hidden;whiteSpace=wrap;html=1;rounded=1;labelBackgroundColor=none;" parent="B6C2UPkhNcGsAQH5O93r-5" vertex="1">
          <mxGeometry width="30" height="30" as="geometry">
            <mxRectangle width="30" height="30" as="alternateBounds" />
          </mxGeometry>
        </mxCell>
        <mxCell id="B6C2UPkhNcGsAQH5O93r-7" value="Name&lt;span style=&quot;white-space: pre;&quot;&gt;&#x9;&lt;/span&gt;" style="shape=partialRectangle;connectable=0;fillColor=none;top=0;left=0;bottom=0;right=0;align=left;spacingLeft=6;overflow=hidden;whiteSpace=wrap;html=1;rounded=1;labelBackgroundColor=none;" parent="B6C2UPkhNcGsAQH5O93r-5" vertex="1">
          <mxGeometry x="30" width="150" height="30" as="geometry">
            <mxRectangle width="150" height="30" as="alternateBounds" />
          </mxGeometry>
        </mxCell>
        <mxCell id="B6C2UPkhNcGsAQH5O93r-8" value="" style="shape=tableRow;horizontal=0;startSize=0;swimlaneHead=0;swimlaneBody=0;fillColor=none;collapsible=0;dropTarget=0;points=[[0,0.5],[1,0.5]];portConstraint=eastwest;top=0;left=0;right=0;bottom=0;rounded=1;labelBackgroundColor=none;" parent="B6C2UPkhNcGsAQH5O93r-1" vertex="1">
          <mxGeometry y="90" width="180" height="30" as="geometry" />
        </mxCell>
        <mxCell id="B6C2UPkhNcGsAQH5O93r-9" value="" style="shape=partialRectangle;connectable=0;fillColor=none;top=0;left=0;bottom=0;right=0;editable=1;overflow=hidden;whiteSpace=wrap;html=1;rounded=1;labelBackgroundColor=none;" parent="B6C2UPkhNcGsAQH5O93r-8" vertex="1">
          <mxGeometry width="30" height="30" as="geometry">
            <mxRectangle width="30" height="30" as="alternateBounds" />
          </mxGeometry>
        </mxCell>
        <mxCell id="B6C2UPkhNcGsAQH5O93r-10" value="Contact Info" style="shape=partialRectangle;connectable=0;fillColor=none;top=0;left=0;bottom=0;right=0;align=left;spacingLeft=6;overflow=hidden;whiteSpace=wrap;html=1;rounded=1;labelBackgroundColor=none;" parent="B6C2UPkhNcGsAQH5O93r-8" vertex="1">
          <mxGeometry x="30" width="150" height="30" as="geometry">
            <mxRectangle width="150" height="30" as="alternateBounds" />
          </mxGeometry>
        </mxCell>
        <mxCell id="B6C2UPkhNcGsAQH5O93r-14" value="Customers" style="shape=table;startSize=30;container=1;collapsible=1;childLayout=tableLayout;fixedRows=1;rowLines=0;fontStyle=1;align=center;resizeLast=1;html=1;rounded=1;labelBackgroundColor=none;" parent="1" vertex="1">
          <mxGeometry x="-210" y="250" width="180" height="120" as="geometry" />
        </mxCell>
        <mxCell id="B6C2UPkhNcGsAQH5O93r-15" value="" style="shape=tableRow;horizontal=0;startSize=0;swimlaneHead=0;swimlaneBody=0;fillColor=none;collapsible=0;dropTarget=0;points=[[0,0.5],[1,0.5]];portConstraint=eastwest;top=0;left=0;right=0;bottom=1;rounded=1;labelBackgroundColor=none;" parent="B6C2UPkhNcGsAQH5O93r-14" vertex="1">
          <mxGeometry y="30" width="180" height="30" as="geometry" />
        </mxCell>
        <mxCell id="B6C2UPkhNcGsAQH5O93r-16" value="PK" style="shape=partialRectangle;connectable=0;fillColor=none;top=0;left=0;bottom=0;right=0;fontStyle=1;overflow=hidden;whiteSpace=wrap;html=1;rounded=1;labelBackgroundColor=none;" parent="B6C2UPkhNcGsAQH5O93r-15" vertex="1">
          <mxGeometry width="30" height="30" as="geometry">
            <mxRectangle width="30" height="30" as="alternateBounds" />
          </mxGeometry>
        </mxCell>
        <mxCell id="B6C2UPkhNcGsAQH5O93r-17" value="ID" style="shape=partialRectangle;connectable=0;fillColor=none;top=0;left=0;bottom=0;right=0;align=left;spacingLeft=6;fontStyle=5;overflow=hidden;whiteSpace=wrap;html=1;rounded=1;labelBackgroundColor=none;" parent="B6C2UPkhNcGsAQH5O93r-15" vertex="1">
          <mxGeometry x="30" width="150" height="30" as="geometry">
            <mxRectangle width="150" height="30" as="alternateBounds" />
          </mxGeometry>
        </mxCell>
        <mxCell id="B6C2UPkhNcGsAQH5O93r-18" value="" style="shape=tableRow;horizontal=0;startSize=0;swimlaneHead=0;swimlaneBody=0;fillColor=none;collapsible=0;dropTarget=0;points=[[0,0.5],[1,0.5]];portConstraint=eastwest;top=0;left=0;right=0;bottom=0;rounded=1;labelBackgroundColor=none;" parent="B6C2UPkhNcGsAQH5O93r-14" vertex="1">
          <mxGeometry y="60" width="180" height="30" as="geometry" />
        </mxCell>
        <mxCell id="B6C2UPkhNcGsAQH5O93r-19" value="FK" style="shape=partialRectangle;connectable=0;fillColor=none;top=0;left=0;bottom=0;right=0;editable=1;overflow=hidden;whiteSpace=wrap;html=1;rounded=1;labelBackgroundColor=none;" parent="B6C2UPkhNcGsAQH5O93r-18" vertex="1">
          <mxGeometry width="30" height="30" as="geometry">
            <mxRectangle width="30" height="30" as="alternateBounds" />
          </mxGeometry>
        </mxCell>
        <mxCell id="B6C2UPkhNcGsAQH5O93r-20" value="Person ID" style="shape=partialRectangle;connectable=0;fillColor=none;top=0;left=0;bottom=0;right=0;align=left;spacingLeft=6;overflow=hidden;whiteSpace=wrap;html=1;rounded=1;labelBackgroundColor=none;" parent="B6C2UPkhNcGsAQH5O93r-18" vertex="1">
          <mxGeometry x="30" width="150" height="30" as="geometry">
            <mxRectangle width="150" height="30" as="alternateBounds" />
          </mxGeometry>
        </mxCell>
        <mxCell id="B6C2UPkhNcGsAQH5O93r-21" value="" style="shape=tableRow;horizontal=0;startSize=0;swimlaneHead=0;swimlaneBody=0;fillColor=none;collapsible=0;dropTarget=0;points=[[0,0.5],[1,0.5]];portConstraint=eastwest;top=0;left=0;right=0;bottom=0;rounded=1;labelBackgroundColor=none;" parent="B6C2UPkhNcGsAQH5O93r-14" vertex="1">
          <mxGeometry y="90" width="180" height="30" as="geometry" />
        </mxCell>
        <mxCell id="B6C2UPkhNcGsAQH5O93r-22" value="" style="shape=partialRectangle;connectable=0;fillColor=none;top=0;left=0;bottom=0;right=0;editable=1;overflow=hidden;whiteSpace=wrap;html=1;rounded=1;labelBackgroundColor=none;" parent="B6C2UPkhNcGsAQH5O93r-21" vertex="1">
          <mxGeometry width="30" height="30" as="geometry">
            <mxRectangle width="30" height="30" as="alternateBounds" />
          </mxGeometry>
        </mxCell>
        <mxCell id="B6C2UPkhNcGsAQH5O93r-23" value="Driver Licemse number" style="shape=partialRectangle;connectable=0;fillColor=none;top=0;left=0;bottom=0;right=0;align=left;spacingLeft=6;overflow=hidden;whiteSpace=wrap;html=1;rounded=1;labelBackgroundColor=none;" parent="B6C2UPkhNcGsAQH5O93r-21" vertex="1">
          <mxGeometry x="30" width="150" height="30" as="geometry">
            <mxRectangle width="150" height="30" as="alternateBounds" />
          </mxGeometry>
        </mxCell>
        <mxCell id="B6C2UPkhNcGsAQH5O93r-24" style="edgeStyle=orthogonalEdgeStyle;rounded=0;orthogonalLoop=1;jettySize=auto;html=1;entryX=0;entryY=0.5;entryDx=0;entryDy=0;startArrow=ERzeroToOne;startFill=0;endArrow=ERmandOne;endFill=0;" parent="1" source="B6C2UPkhNcGsAQH5O93r-18" target="B6C2UPkhNcGsAQH5O93r-2" edge="1">
          <mxGeometry relative="1" as="geometry" />
        </mxCell>
        <mxCell id="B6C2UPkhNcGsAQH5O93r-25" value="Vhicles" style="shape=table;startSize=30;container=1;collapsible=1;childLayout=tableLayout;fixedRows=1;rowLines=0;fontStyle=1;align=center;resizeLast=1;html=1;rounded=1;labelBackgroundColor=none;" parent="1" vertex="1">
          <mxGeometry x="440" y="30" width="180" height="300" as="geometry" />
        </mxCell>
        <mxCell id="B6C2UPkhNcGsAQH5O93r-26" value="" style="shape=tableRow;horizontal=0;startSize=0;swimlaneHead=0;swimlaneBody=0;fillColor=none;collapsible=0;dropTarget=0;points=[[0,0.5],[1,0.5]];portConstraint=eastwest;top=0;left=0;right=0;bottom=1;rounded=1;labelBackgroundColor=none;" parent="B6C2UPkhNcGsAQH5O93r-25" vertex="1">
          <mxGeometry y="30" width="180" height="30" as="geometry" />
        </mxCell>
        <mxCell id="B6C2UPkhNcGsAQH5O93r-27" value="PK" style="shape=partialRectangle;connectable=0;fillColor=none;top=0;left=0;bottom=0;right=0;fontStyle=1;overflow=hidden;whiteSpace=wrap;html=1;rounded=1;labelBackgroundColor=none;" parent="B6C2UPkhNcGsAQH5O93r-26" vertex="1">
          <mxGeometry width="35" height="30" as="geometry">
            <mxRectangle width="35" height="30" as="alternateBounds" />
          </mxGeometry>
        </mxCell>
        <mxCell id="B6C2UPkhNcGsAQH5O93r-28" value="ID" style="shape=partialRectangle;connectable=0;fillColor=none;top=0;left=0;bottom=0;right=0;align=left;spacingLeft=6;fontStyle=5;overflow=hidden;whiteSpace=wrap;html=1;rounded=1;labelBackgroundColor=none;" parent="B6C2UPkhNcGsAQH5O93r-26" vertex="1">
          <mxGeometry x="35" width="145" height="30" as="geometry">
            <mxRectangle width="145" height="30" as="alternateBounds" />
          </mxGeometry>
        </mxCell>
        <mxCell id="B6C2UPkhNcGsAQH5O93r-29" value="" style="shape=tableRow;horizontal=0;startSize=0;swimlaneHead=0;swimlaneBody=0;fillColor=none;collapsible=0;dropTarget=0;points=[[0,0.5],[1,0.5]];portConstraint=eastwest;top=0;left=0;right=0;bottom=0;rounded=1;labelBackgroundColor=none;" parent="B6C2UPkhNcGsAQH5O93r-25" vertex="1">
          <mxGeometry y="60" width="180" height="30" as="geometry" />
        </mxCell>
        <mxCell id="B6C2UPkhNcGsAQH5O93r-30" value="" style="shape=partialRectangle;connectable=0;fillColor=none;top=0;left=0;bottom=0;right=0;editable=1;overflow=hidden;whiteSpace=wrap;html=1;rounded=1;labelBackgroundColor=none;" parent="B6C2UPkhNcGsAQH5O93r-29" vertex="1">
          <mxGeometry width="35" height="30" as="geometry">
            <mxRectangle width="35" height="30" as="alternateBounds" />
          </mxGeometry>
        </mxCell>
        <mxCell id="B6C2UPkhNcGsAQH5O93r-31" value="Model" style="shape=partialRectangle;connectable=0;fillColor=none;top=0;left=0;bottom=0;right=0;align=left;spacingLeft=6;overflow=hidden;whiteSpace=wrap;html=1;rounded=1;labelBackgroundColor=none;" parent="B6C2UPkhNcGsAQH5O93r-29" vertex="1">
          <mxGeometry x="35" width="145" height="30" as="geometry">
            <mxRectangle width="145" height="30" as="alternateBounds" />
          </mxGeometry>
        </mxCell>
        <mxCell id="B6C2UPkhNcGsAQH5O93r-32" value="" style="shape=tableRow;horizontal=0;startSize=0;swimlaneHead=0;swimlaneBody=0;fillColor=none;collapsible=0;dropTarget=0;points=[[0,0.5],[1,0.5]];portConstraint=eastwest;top=0;left=0;right=0;bottom=0;rounded=1;labelBackgroundColor=none;" parent="B6C2UPkhNcGsAQH5O93r-25" vertex="1">
          <mxGeometry y="90" width="180" height="30" as="geometry" />
        </mxCell>
        <mxCell id="B6C2UPkhNcGsAQH5O93r-33" value="" style="shape=partialRectangle;connectable=0;fillColor=none;top=0;left=0;bottom=0;right=0;editable=1;overflow=hidden;whiteSpace=wrap;html=1;rounded=1;labelBackgroundColor=none;" parent="B6C2UPkhNcGsAQH5O93r-32" vertex="1">
          <mxGeometry width="35" height="30" as="geometry">
            <mxRectangle width="35" height="30" as="alternateBounds" />
          </mxGeometry>
        </mxCell>
        <mxCell id="B6C2UPkhNcGsAQH5O93r-34" value="Year" style="shape=partialRectangle;connectable=0;fillColor=none;top=0;left=0;bottom=0;right=0;align=left;spacingLeft=6;overflow=hidden;whiteSpace=wrap;html=1;rounded=1;labelBackgroundColor=none;" parent="B6C2UPkhNcGsAQH5O93r-32" vertex="1">
          <mxGeometry x="35" width="145" height="30" as="geometry">
            <mxRectangle width="145" height="30" as="alternateBounds" />
          </mxGeometry>
        </mxCell>
        <mxCell id="B6C2UPkhNcGsAQH5O93r-35" value="" style="shape=tableRow;horizontal=0;startSize=0;swimlaneHead=0;swimlaneBody=0;fillColor=none;collapsible=0;dropTarget=0;points=[[0,0.5],[1,0.5]];portConstraint=eastwest;top=0;left=0;right=0;bottom=0;rounded=1;labelBackgroundColor=none;" parent="B6C2UPkhNcGsAQH5O93r-25" vertex="1">
          <mxGeometry y="120" width="180" height="30" as="geometry" />
        </mxCell>
        <mxCell id="B6C2UPkhNcGsAQH5O93r-36" value="" style="shape=partialRectangle;connectable=0;fillColor=none;top=0;left=0;bottom=0;right=0;editable=1;overflow=hidden;whiteSpace=wrap;html=1;rounded=1;labelBackgroundColor=none;" parent="B6C2UPkhNcGsAQH5O93r-35" vertex="1">
          <mxGeometry width="35" height="30" as="geometry">
            <mxRectangle width="35" height="30" as="alternateBounds" />
          </mxGeometry>
        </mxCell>
        <mxCell id="B6C2UPkhNcGsAQH5O93r-37" value="Mileage" style="shape=partialRectangle;connectable=0;fillColor=none;top=0;left=0;bottom=0;right=0;align=left;spacingLeft=6;overflow=hidden;whiteSpace=wrap;html=1;rounded=1;labelBackgroundColor=none;" parent="B6C2UPkhNcGsAQH5O93r-35" vertex="1">
          <mxGeometry x="35" width="145" height="30" as="geometry">
            <mxRectangle width="145" height="30" as="alternateBounds" />
          </mxGeometry>
        </mxCell>
        <mxCell id="B6C2UPkhNcGsAQH5O93r-38" value="" style="shape=tableRow;horizontal=0;startSize=0;swimlaneHead=0;swimlaneBody=0;fillColor=none;collapsible=0;dropTarget=0;points=[[0,0.5],[1,0.5]];portConstraint=eastwest;top=0;left=0;right=0;bottom=0;rounded=1;labelBackgroundColor=none;" parent="B6C2UPkhNcGsAQH5O93r-25" vertex="1">
          <mxGeometry y="150" width="180" height="30" as="geometry" />
        </mxCell>
        <mxCell id="B6C2UPkhNcGsAQH5O93r-39" value="" style="shape=partialRectangle;connectable=0;fillColor=none;top=0;left=0;bottom=0;right=0;editable=1;overflow=hidden;whiteSpace=wrap;html=1;rounded=1;labelBackgroundColor=none;" parent="B6C2UPkhNcGsAQH5O93r-38" vertex="1">
          <mxGeometry width="35" height="30" as="geometry">
            <mxRectangle width="35" height="30" as="alternateBounds" />
          </mxGeometry>
        </mxCell>
        <mxCell id="B6C2UPkhNcGsAQH5O93r-40" value="Rental Rates" style="shape=partialRectangle;connectable=0;fillColor=none;top=0;left=0;bottom=0;right=0;align=left;spacingLeft=6;overflow=hidden;whiteSpace=wrap;html=1;rounded=1;labelBackgroundColor=none;" parent="B6C2UPkhNcGsAQH5O93r-38" vertex="1">
          <mxGeometry x="35" width="145" height="30" as="geometry">
            <mxRectangle width="145" height="30" as="alternateBounds" />
          </mxGeometry>
        </mxCell>
        <mxCell id="B6C2UPkhNcGsAQH5O93r-41" value="" style="shape=tableRow;horizontal=0;startSize=0;swimlaneHead=0;swimlaneBody=0;fillColor=none;collapsible=0;dropTarget=0;points=[[0,0.5],[1,0.5]];portConstraint=eastwest;top=0;left=0;right=0;bottom=0;rounded=1;labelBackgroundColor=none;" parent="B6C2UPkhNcGsAQH5O93r-25" vertex="1">
          <mxGeometry y="180" width="180" height="30" as="geometry" />
        </mxCell>
        <mxCell id="B6C2UPkhNcGsAQH5O93r-42" value="FK" style="shape=partialRectangle;connectable=0;fillColor=none;top=0;left=0;bottom=0;right=0;editable=1;overflow=hidden;whiteSpace=wrap;html=1;rounded=1;labelBackgroundColor=none;" parent="B6C2UPkhNcGsAQH5O93r-41" vertex="1">
          <mxGeometry width="35" height="30" as="geometry">
            <mxRectangle width="35" height="30" as="alternateBounds" />
          </mxGeometry>
        </mxCell>
        <mxCell id="B6C2UPkhNcGsAQH5O93r-43" value="Fuel Type" style="shape=partialRectangle;connectable=0;fillColor=none;top=0;left=0;bottom=0;right=0;align=left;spacingLeft=6;overflow=hidden;whiteSpace=wrap;html=1;rounded=1;labelBackgroundColor=none;" parent="B6C2UPkhNcGsAQH5O93r-41" vertex="1">
          <mxGeometry x="35" width="145" height="30" as="geometry">
            <mxRectangle width="145" height="30" as="alternateBounds" />
          </mxGeometry>
        </mxCell>
        <mxCell id="B6C2UPkhNcGsAQH5O93r-73" value="" style="shape=tableRow;horizontal=0;startSize=0;swimlaneHead=0;swimlaneBody=0;fillColor=none;collapsible=0;dropTarget=0;points=[[0,0.5],[1,0.5]];portConstraint=eastwest;top=0;left=0;right=0;bottom=0;rounded=1;labelBackgroundColor=none;" parent="B6C2UPkhNcGsAQH5O93r-25" vertex="1">
          <mxGeometry y="210" width="180" height="30" as="geometry" />
        </mxCell>
        <mxCell id="B6C2UPkhNcGsAQH5O93r-74" value="" style="shape=partialRectangle;connectable=0;fillColor=none;top=0;left=0;bottom=0;right=0;editable=1;overflow=hidden;whiteSpace=wrap;html=1;rounded=1;labelBackgroundColor=none;" parent="B6C2UPkhNcGsAQH5O93r-73" vertex="1">
          <mxGeometry width="35" height="30" as="geometry">
            <mxRectangle width="35" height="30" as="alternateBounds" />
          </mxGeometry>
        </mxCell>
        <mxCell id="B6C2UPkhNcGsAQH5O93r-75" value="Rental Rates" style="shape=partialRectangle;connectable=0;fillColor=none;top=0;left=0;bottom=0;right=0;align=left;spacingLeft=6;overflow=hidden;whiteSpace=wrap;html=1;rounded=1;labelBackgroundColor=none;" parent="B6C2UPkhNcGsAQH5O93r-73" vertex="1">
          <mxGeometry x="35" width="145" height="30" as="geometry">
            <mxRectangle width="145" height="30" as="alternateBounds" />
          </mxGeometry>
        </mxCell>
        <mxCell id="cCGf5AAiEmYSowASUhXe-23" value="" style="shape=tableRow;horizontal=0;startSize=0;swimlaneHead=0;swimlaneBody=0;fillColor=none;collapsible=0;dropTarget=0;points=[[0,0.5],[1,0.5]];portConstraint=eastwest;top=0;left=0;right=0;bottom=0;rounded=1;labelBackgroundColor=none;" parent="B6C2UPkhNcGsAQH5O93r-25" vertex="1">
          <mxGeometry y="240" width="180" height="30" as="geometry" />
        </mxCell>
        <mxCell id="cCGf5AAiEmYSowASUhXe-24" value="" style="shape=partialRectangle;connectable=0;fillColor=none;top=0;left=0;bottom=0;right=0;editable=1;overflow=hidden;whiteSpace=wrap;html=1;rounded=1;labelBackgroundColor=none;" parent="cCGf5AAiEmYSowASUhXe-23" vertex="1">
          <mxGeometry width="35" height="30" as="geometry">
            <mxRectangle width="35" height="30" as="alternateBounds" />
          </mxGeometry>
        </mxCell>
        <mxCell id="cCGf5AAiEmYSowASUhXe-25" value="Plate Number" style="shape=partialRectangle;connectable=0;fillColor=none;top=0;left=0;bottom=0;right=0;align=left;spacingLeft=6;overflow=hidden;whiteSpace=wrap;html=1;rounded=1;labelBackgroundColor=none;" parent="cCGf5AAiEmYSowASUhXe-23" vertex="1">
          <mxGeometry x="35" width="145" height="30" as="geometry">
            <mxRectangle width="145" height="30" as="alternateBounds" />
          </mxGeometry>
        </mxCell>
        <mxCell id="cCGf5AAiEmYSowASUhXe-51" value="" style="shape=tableRow;horizontal=0;startSize=0;swimlaneHead=0;swimlaneBody=0;fillColor=none;collapsible=0;dropTarget=0;points=[[0,0.5],[1,0.5]];portConstraint=eastwest;top=0;left=0;right=0;bottom=0;rounded=1;labelBackgroundColor=none;" parent="B6C2UPkhNcGsAQH5O93r-25" vertex="1">
          <mxGeometry y="270" width="180" height="30" as="geometry" />
        </mxCell>
        <mxCell id="cCGf5AAiEmYSowASUhXe-52" value="FK" style="shape=partialRectangle;connectable=0;fillColor=none;top=0;left=0;bottom=0;right=0;editable=1;overflow=hidden;whiteSpace=wrap;html=1;rounded=1;labelBackgroundColor=none;" parent="cCGf5AAiEmYSowASUhXe-51" vertex="1">
          <mxGeometry width="35" height="30" as="geometry">
            <mxRectangle width="35" height="30" as="alternateBounds" />
          </mxGeometry>
        </mxCell>
        <mxCell id="cCGf5AAiEmYSowASUhXe-53" value="Vhicle Category" style="shape=partialRectangle;connectable=0;fillColor=none;top=0;left=0;bottom=0;right=0;align=left;spacingLeft=6;overflow=hidden;whiteSpace=wrap;html=1;rounded=1;labelBackgroundColor=none;" parent="cCGf5AAiEmYSowASUhXe-51" vertex="1">
          <mxGeometry x="35" width="145" height="30" as="geometry">
            <mxRectangle width="145" height="30" as="alternateBounds" />
          </mxGeometry>
        </mxCell>
        <mxCell id="cCGf5AAiEmYSowASUhXe-54" value="Fuel Types" style="shape=table;startSize=30;container=1;collapsible=1;childLayout=tableLayout;fixedRows=1;rowLines=0;fontStyle=1;align=center;resizeLast=1;html=1;rounded=1;labelBackgroundColor=none;" parent="1" vertex="1">
          <mxGeometry x="760" y="220" width="180" height="90" as="geometry" />
        </mxCell>
        <mxCell id="cCGf5AAiEmYSowASUhXe-55" value="" style="shape=tableRow;horizontal=0;startSize=0;swimlaneHead=0;swimlaneBody=0;fillColor=none;collapsible=0;dropTarget=0;points=[[0,0.5],[1,0.5]];portConstraint=eastwest;top=0;left=0;right=0;bottom=1;rounded=1;labelBackgroundColor=none;" parent="cCGf5AAiEmYSowASUhXe-54" vertex="1">
          <mxGeometry y="30" width="180" height="30" as="geometry" />
        </mxCell>
        <mxCell id="cCGf5AAiEmYSowASUhXe-56" value="PK" style="shape=partialRectangle;connectable=0;fillColor=none;top=0;left=0;bottom=0;right=0;fontStyle=1;overflow=hidden;whiteSpace=wrap;html=1;rounded=1;labelBackgroundColor=none;" parent="cCGf5AAiEmYSowASUhXe-55" vertex="1">
          <mxGeometry width="30" height="30" as="geometry">
            <mxRectangle width="30" height="30" as="alternateBounds" />
          </mxGeometry>
        </mxCell>
        <mxCell id="cCGf5AAiEmYSowASUhXe-57" value="ID" style="shape=partialRectangle;connectable=0;fillColor=none;top=0;left=0;bottom=0;right=0;align=left;spacingLeft=6;fontStyle=5;overflow=hidden;whiteSpace=wrap;html=1;rounded=1;labelBackgroundColor=none;" parent="cCGf5AAiEmYSowASUhXe-55" vertex="1">
          <mxGeometry x="30" width="150" height="30" as="geometry">
            <mxRectangle width="150" height="30" as="alternateBounds" />
          </mxGeometry>
        </mxCell>
        <mxCell id="cCGf5AAiEmYSowASUhXe-58" value="" style="shape=tableRow;horizontal=0;startSize=0;swimlaneHead=0;swimlaneBody=0;fillColor=none;collapsible=0;dropTarget=0;points=[[0,0.5],[1,0.5]];portConstraint=eastwest;top=0;left=0;right=0;bottom=0;rounded=1;labelBackgroundColor=none;" parent="cCGf5AAiEmYSowASUhXe-54" vertex="1">
          <mxGeometry y="60" width="180" height="30" as="geometry" />
        </mxCell>
        <mxCell id="cCGf5AAiEmYSowASUhXe-59" value="" style="shape=partialRectangle;connectable=0;fillColor=none;top=0;left=0;bottom=0;right=0;editable=1;overflow=hidden;whiteSpace=wrap;html=1;rounded=1;labelBackgroundColor=none;" parent="cCGf5AAiEmYSowASUhXe-58" vertex="1">
          <mxGeometry width="30" height="30" as="geometry">
            <mxRectangle width="30" height="30" as="alternateBounds" />
          </mxGeometry>
        </mxCell>
        <mxCell id="cCGf5AAiEmYSowASUhXe-60" value="Fuel Type Name" style="shape=partialRectangle;connectable=0;fillColor=none;top=0;left=0;bottom=0;right=0;align=left;spacingLeft=6;overflow=hidden;whiteSpace=wrap;html=1;rounded=1;labelBackgroundColor=none;" parent="cCGf5AAiEmYSowASUhXe-58" vertex="1">
          <mxGeometry x="30" width="150" height="30" as="geometry">
            <mxRectangle width="150" height="30" as="alternateBounds" />
          </mxGeometry>
        </mxCell>
        <mxCell id="cCGf5AAiEmYSowASUhXe-64" style="edgeStyle=orthogonalEdgeStyle;rounded=0;orthogonalLoop=1;jettySize=auto;html=1;entryX=1;entryY=0.5;entryDx=0;entryDy=0;endArrow=ERmandOne;endFill=0;startArrow=ERmandOne;startFill=0;" parent="1" source="cCGf5AAiEmYSowASUhXe-55" target="B6C2UPkhNcGsAQH5O93r-41" edge="1">
          <mxGeometry relative="1" as="geometry" />
        </mxCell>
        <mxCell id="cCGf5AAiEmYSowASUhXe-65" value="&lt;span style=&quot;font-weight: 400; text-align: left; text-wrap: wrap;&quot;&gt;Vhicle Categorys&lt;/span&gt;" style="shape=table;startSize=30;container=1;collapsible=1;childLayout=tableLayout;fixedRows=1;rowLines=0;fontStyle=1;align=center;resizeLast=1;html=1;rounded=1;labelBackgroundColor=none;" parent="1" vertex="1">
          <mxGeometry x="800" y="350" width="180" height="90" as="geometry" />
        </mxCell>
        <mxCell id="cCGf5AAiEmYSowASUhXe-66" value="" style="shape=tableRow;horizontal=0;startSize=0;swimlaneHead=0;swimlaneBody=0;fillColor=none;collapsible=0;dropTarget=0;points=[[0,0.5],[1,0.5]];portConstraint=eastwest;top=0;left=0;right=0;bottom=1;rounded=1;labelBackgroundColor=none;" parent="cCGf5AAiEmYSowASUhXe-65" vertex="1">
          <mxGeometry y="30" width="180" height="30" as="geometry" />
        </mxCell>
        <mxCell id="cCGf5AAiEmYSowASUhXe-67" value="PK" style="shape=partialRectangle;connectable=0;fillColor=none;top=0;left=0;bottom=0;right=0;fontStyle=1;overflow=hidden;whiteSpace=wrap;html=1;rounded=1;labelBackgroundColor=none;" parent="cCGf5AAiEmYSowASUhXe-66" vertex="1">
          <mxGeometry width="30" height="30" as="geometry">
            <mxRectangle width="30" height="30" as="alternateBounds" />
          </mxGeometry>
        </mxCell>
        <mxCell id="cCGf5AAiEmYSowASUhXe-68" value="ID" style="shape=partialRectangle;connectable=0;fillColor=none;top=0;left=0;bottom=0;right=0;align=left;spacingLeft=6;fontStyle=5;overflow=hidden;whiteSpace=wrap;html=1;rounded=1;labelBackgroundColor=none;" parent="cCGf5AAiEmYSowASUhXe-66" vertex="1">
          <mxGeometry x="30" width="150" height="30" as="geometry">
            <mxRectangle width="150" height="30" as="alternateBounds" />
          </mxGeometry>
        </mxCell>
        <mxCell id="cCGf5AAiEmYSowASUhXe-69" value="" style="shape=tableRow;horizontal=0;startSize=0;swimlaneHead=0;swimlaneBody=0;fillColor=none;collapsible=0;dropTarget=0;points=[[0,0.5],[1,0.5]];portConstraint=eastwest;top=0;left=0;right=0;bottom=0;rounded=1;labelBackgroundColor=none;" parent="cCGf5AAiEmYSowASUhXe-65" vertex="1">
          <mxGeometry y="60" width="180" height="30" as="geometry" />
        </mxCell>
        <mxCell id="cCGf5AAiEmYSowASUhXe-70" value="" style="shape=partialRectangle;connectable=0;fillColor=none;top=0;left=0;bottom=0;right=0;editable=1;overflow=hidden;whiteSpace=wrap;html=1;rounded=1;labelBackgroundColor=none;" parent="cCGf5AAiEmYSowASUhXe-69" vertex="1">
          <mxGeometry width="30" height="30" as="geometry">
            <mxRectangle width="30" height="30" as="alternateBounds" />
          </mxGeometry>
        </mxCell>
        <mxCell id="cCGf5AAiEmYSowASUhXe-71" value="Vhicle Category" style="shape=partialRectangle;connectable=0;fillColor=none;top=0;left=0;bottom=0;right=0;align=left;spacingLeft=6;overflow=hidden;whiteSpace=wrap;html=1;rounded=1;labelBackgroundColor=none;" parent="cCGf5AAiEmYSowASUhXe-69" vertex="1">
          <mxGeometry x="30" width="150" height="30" as="geometry">
            <mxRectangle width="150" height="30" as="alternateBounds" />
          </mxGeometry>
        </mxCell>
        <mxCell id="cCGf5AAiEmYSowASUhXe-72" style="edgeStyle=orthogonalEdgeStyle;rounded=0;orthogonalLoop=1;jettySize=auto;html=1;entryX=0;entryY=0.5;entryDx=0;entryDy=0;endArrow=ERmandOne;endFill=0;startArrow=ERmandOne;startFill=0;" parent="1" source="cCGf5AAiEmYSowASUhXe-51" target="cCGf5AAiEmYSowASUhXe-66" edge="1">
          <mxGeometry relative="1" as="geometry" />
        </mxCell>
        <mxCell id="cCGf5AAiEmYSowASUhXe-74" value="Vhicles booking" style="shape=table;startSize=30;container=1;collapsible=1;childLayout=tableLayout;fixedRows=1;rowLines=0;fontStyle=1;align=center;resizeLast=1;html=1;rounded=1;labelBackgroundColor=none;" parent="1" vertex="1">
          <mxGeometry x="120" y="250" width="180" height="330" as="geometry" />
        </mxCell>
        <mxCell id="cCGf5AAiEmYSowASUhXe-75" value="" style="shape=tableRow;horizontal=0;startSize=0;swimlaneHead=0;swimlaneBody=0;fillColor=none;collapsible=0;dropTarget=0;points=[[0,0.5],[1,0.5]];portConstraint=eastwest;top=0;left=0;right=0;bottom=1;rounded=1;labelBackgroundColor=none;" parent="cCGf5AAiEmYSowASUhXe-74" vertex="1">
          <mxGeometry y="30" width="180" height="30" as="geometry" />
        </mxCell>
        <mxCell id="cCGf5AAiEmYSowASUhXe-76" value="PK" style="shape=partialRectangle;connectable=0;fillColor=none;top=0;left=0;bottom=0;right=0;fontStyle=1;overflow=hidden;whiteSpace=wrap;html=1;rounded=1;labelBackgroundColor=none;" parent="cCGf5AAiEmYSowASUhXe-75" vertex="1">
          <mxGeometry width="35" height="30" as="geometry">
            <mxRectangle width="35" height="30" as="alternateBounds" />
          </mxGeometry>
        </mxCell>
        <mxCell id="cCGf5AAiEmYSowASUhXe-77" value="ID" style="shape=partialRectangle;connectable=0;fillColor=none;top=0;left=0;bottom=0;right=0;align=left;spacingLeft=6;fontStyle=5;overflow=hidden;whiteSpace=wrap;html=1;rounded=1;labelBackgroundColor=none;" parent="cCGf5AAiEmYSowASUhXe-75" vertex="1">
          <mxGeometry x="35" width="145" height="30" as="geometry">
            <mxRectangle width="145" height="30" as="alternateBounds" />
          </mxGeometry>
        </mxCell>
        <mxCell id="cCGf5AAiEmYSowASUhXe-78" value="" style="shape=tableRow;horizontal=0;startSize=0;swimlaneHead=0;swimlaneBody=0;fillColor=none;collapsible=0;dropTarget=0;points=[[0,0.5],[1,0.5]];portConstraint=eastwest;top=0;left=0;right=0;bottom=0;rounded=1;labelBackgroundColor=none;" parent="cCGf5AAiEmYSowASUhXe-74" vertex="1">
          <mxGeometry y="60" width="180" height="30" as="geometry" />
        </mxCell>
        <mxCell id="cCGf5AAiEmYSowASUhXe-79" value="FK" style="shape=partialRectangle;connectable=0;fillColor=none;top=0;left=0;bottom=0;right=0;editable=1;overflow=hidden;whiteSpace=wrap;html=1;rounded=1;labelBackgroundColor=none;" parent="cCGf5AAiEmYSowASUhXe-78" vertex="1">
          <mxGeometry width="35" height="30" as="geometry">
            <mxRectangle width="35" height="30" as="alternateBounds" />
          </mxGeometry>
        </mxCell>
        <mxCell id="cCGf5AAiEmYSowASUhXe-80" value="Custmer ID" style="shape=partialRectangle;connectable=0;fillColor=none;top=0;left=0;bottom=0;right=0;align=left;spacingLeft=6;overflow=hidden;whiteSpace=wrap;html=1;rounded=1;labelBackgroundColor=none;" parent="cCGf5AAiEmYSowASUhXe-78" vertex="1">
          <mxGeometry x="35" width="145" height="30" as="geometry">
            <mxRectangle width="145" height="30" as="alternateBounds" />
          </mxGeometry>
        </mxCell>
        <mxCell id="cCGf5AAiEmYSowASUhXe-81" value="" style="shape=tableRow;horizontal=0;startSize=0;swimlaneHead=0;swimlaneBody=0;fillColor=none;collapsible=0;dropTarget=0;points=[[0,0.5],[1,0.5]];portConstraint=eastwest;top=0;left=0;right=0;bottom=0;rounded=1;labelBackgroundColor=none;" parent="cCGf5AAiEmYSowASUhXe-74" vertex="1">
          <mxGeometry y="90" width="180" height="30" as="geometry" />
        </mxCell>
        <mxCell id="cCGf5AAiEmYSowASUhXe-82" value="" style="shape=partialRectangle;connectable=0;fillColor=none;top=0;left=0;bottom=0;right=0;editable=1;overflow=hidden;whiteSpace=wrap;html=1;rounded=1;labelBackgroundColor=none;" parent="cCGf5AAiEmYSowASUhXe-81" vertex="1">
          <mxGeometry width="35" height="30" as="geometry">
            <mxRectangle width="35" height="30" as="alternateBounds" />
          </mxGeometry>
        </mxCell>
        <mxCell id="cCGf5AAiEmYSowASUhXe-83" value="Rental Start Date" style="shape=partialRectangle;connectable=0;fillColor=none;top=0;left=0;bottom=0;right=0;align=left;spacingLeft=6;overflow=hidden;whiteSpace=wrap;html=1;rounded=1;labelBackgroundColor=none;" parent="cCGf5AAiEmYSowASUhXe-81" vertex="1">
          <mxGeometry x="35" width="145" height="30" as="geometry">
            <mxRectangle width="145" height="30" as="alternateBounds" />
          </mxGeometry>
        </mxCell>
        <mxCell id="cCGf5AAiEmYSowASUhXe-84" value="" style="shape=tableRow;horizontal=0;startSize=0;swimlaneHead=0;swimlaneBody=0;fillColor=none;collapsible=0;dropTarget=0;points=[[0,0.5],[1,0.5]];portConstraint=eastwest;top=0;left=0;right=0;bottom=0;rounded=1;labelBackgroundColor=none;" parent="cCGf5AAiEmYSowASUhXe-74" vertex="1">
          <mxGeometry y="120" width="180" height="30" as="geometry" />
        </mxCell>
        <mxCell id="cCGf5AAiEmYSowASUhXe-85" value="" style="shape=partialRectangle;connectable=0;fillColor=none;top=0;left=0;bottom=0;right=0;editable=1;overflow=hidden;whiteSpace=wrap;html=1;rounded=1;labelBackgroundColor=none;" parent="cCGf5AAiEmYSowASUhXe-84" vertex="1">
          <mxGeometry width="35" height="30" as="geometry">
            <mxRectangle width="35" height="30" as="alternateBounds" />
          </mxGeometry>
        </mxCell>
        <mxCell id="cCGf5AAiEmYSowASUhXe-86" value="Rental End Date" style="shape=partialRectangle;connectable=0;fillColor=none;top=0;left=0;bottom=0;right=0;align=left;spacingLeft=6;overflow=hidden;whiteSpace=wrap;html=1;rounded=1;labelBackgroundColor=none;" parent="cCGf5AAiEmYSowASUhXe-84" vertex="1">
          <mxGeometry x="35" width="145" height="30" as="geometry">
            <mxRectangle width="145" height="30" as="alternateBounds" />
          </mxGeometry>
        </mxCell>
        <mxCell id="cCGf5AAiEmYSowASUhXe-87" value="" style="shape=tableRow;horizontal=0;startSize=0;swimlaneHead=0;swimlaneBody=0;fillColor=none;collapsible=0;dropTarget=0;points=[[0,0.5],[1,0.5]];portConstraint=eastwest;top=0;left=0;right=0;bottom=0;rounded=1;labelBackgroundColor=none;" parent="cCGf5AAiEmYSowASUhXe-74" vertex="1">
          <mxGeometry y="150" width="180" height="30" as="geometry" />
        </mxCell>
        <mxCell id="cCGf5AAiEmYSowASUhXe-88" value="" style="shape=partialRectangle;connectable=0;fillColor=none;top=0;left=0;bottom=0;right=0;editable=1;overflow=hidden;whiteSpace=wrap;html=1;rounded=1;labelBackgroundColor=none;" parent="cCGf5AAiEmYSowASUhXe-87" vertex="1">
          <mxGeometry width="35" height="30" as="geometry">
            <mxRectangle width="35" height="30" as="alternateBounds" />
          </mxGeometry>
        </mxCell>
        <mxCell id="cCGf5AAiEmYSowASUhXe-89" value="Pickup Location" style="shape=partialRectangle;connectable=0;fillColor=none;top=0;left=0;bottom=0;right=0;align=left;spacingLeft=6;overflow=hidden;whiteSpace=wrap;html=1;rounded=1;labelBackgroundColor=none;" parent="cCGf5AAiEmYSowASUhXe-87" vertex="1">
          <mxGeometry x="35" width="145" height="30" as="geometry">
            <mxRectangle width="145" height="30" as="alternateBounds" />
          </mxGeometry>
        </mxCell>
        <mxCell id="cCGf5AAiEmYSowASUhXe-90" value="" style="shape=tableRow;horizontal=0;startSize=0;swimlaneHead=0;swimlaneBody=0;fillColor=none;collapsible=0;dropTarget=0;points=[[0,0.5],[1,0.5]];portConstraint=eastwest;top=0;left=0;right=0;bottom=0;rounded=1;labelBackgroundColor=none;" parent="cCGf5AAiEmYSowASUhXe-74" vertex="1">
          <mxGeometry y="180" width="180" height="30" as="geometry" />
        </mxCell>
        <mxCell id="cCGf5AAiEmYSowASUhXe-91" value="" style="shape=partialRectangle;connectable=0;fillColor=none;top=0;left=0;bottom=0;right=0;editable=1;overflow=hidden;whiteSpace=wrap;html=1;rounded=1;labelBackgroundColor=none;" parent="cCGf5AAiEmYSowASUhXe-90" vertex="1">
          <mxGeometry width="35" height="30" as="geometry">
            <mxRectangle width="35" height="30" as="alternateBounds" />
          </mxGeometry>
        </mxCell>
        <mxCell id="cCGf5AAiEmYSowASUhXe-92" value="Drop OFF Locataion" style="shape=partialRectangle;connectable=0;fillColor=none;top=0;left=0;bottom=0;right=0;align=left;spacingLeft=6;overflow=hidden;whiteSpace=wrap;html=1;rounded=1;labelBackgroundColor=none;" parent="cCGf5AAiEmYSowASUhXe-90" vertex="1">
          <mxGeometry x="35" width="145" height="30" as="geometry">
            <mxRectangle width="145" height="30" as="alternateBounds" />
          </mxGeometry>
        </mxCell>
        <mxCell id="cCGf5AAiEmYSowASUhXe-93" value="" style="shape=tableRow;horizontal=0;startSize=0;swimlaneHead=0;swimlaneBody=0;fillColor=none;collapsible=0;dropTarget=0;points=[[0,0.5],[1,0.5]];portConstraint=eastwest;top=0;left=0;right=0;bottom=0;rounded=1;labelBackgroundColor=none;" parent="cCGf5AAiEmYSowASUhXe-74" vertex="1">
          <mxGeometry y="210" width="180" height="30" as="geometry" />
        </mxCell>
        <mxCell id="cCGf5AAiEmYSowASUhXe-94" value="" style="shape=partialRectangle;connectable=0;fillColor=none;top=0;left=0;bottom=0;right=0;editable=1;overflow=hidden;whiteSpace=wrap;html=1;rounded=1;labelBackgroundColor=none;" parent="cCGf5AAiEmYSowASUhXe-93" vertex="1">
          <mxGeometry width="35" height="30" as="geometry">
            <mxRectangle width="35" height="30" as="alternateBounds" />
          </mxGeometry>
        </mxCell>
        <mxCell id="cCGf5AAiEmYSowASUhXe-95" value="Total due amoun" style="shape=partialRectangle;connectable=0;fillColor=none;top=0;left=0;bottom=0;right=0;align=left;spacingLeft=6;overflow=hidden;whiteSpace=wrap;html=1;rounded=1;labelBackgroundColor=none;" parent="cCGf5AAiEmYSowASUhXe-93" vertex="1">
          <mxGeometry x="35" width="145" height="30" as="geometry">
            <mxRectangle width="145" height="30" as="alternateBounds" />
          </mxGeometry>
        </mxCell>
        <mxCell id="cCGf5AAiEmYSowASUhXe-96" value="" style="shape=tableRow;horizontal=0;startSize=0;swimlaneHead=0;swimlaneBody=0;fillColor=none;collapsible=0;dropTarget=0;points=[[0,0.5],[1,0.5]];portConstraint=eastwest;top=0;left=0;right=0;bottom=0;rounded=1;labelBackgroundColor=none;" parent="cCGf5AAiEmYSowASUhXe-74" vertex="1">
          <mxGeometry y="240" width="180" height="30" as="geometry" />
        </mxCell>
        <mxCell id="cCGf5AAiEmYSowASUhXe-97" value="" style="shape=partialRectangle;connectable=0;fillColor=none;top=0;left=0;bottom=0;right=0;editable=1;overflow=hidden;whiteSpace=wrap;html=1;rounded=1;labelBackgroundColor=none;" parent="cCGf5AAiEmYSowASUhXe-96" vertex="1">
          <mxGeometry width="35" height="30" as="geometry">
            <mxRectangle width="35" height="30" as="alternateBounds" />
          </mxGeometry>
        </mxCell>
        <mxCell id="cCGf5AAiEmYSowASUhXe-98" value="Vehicle check notes" style="shape=partialRectangle;connectable=0;fillColor=none;top=0;left=0;bottom=0;right=0;align=left;spacingLeft=6;overflow=hidden;whiteSpace=wrap;html=1;rounded=1;labelBackgroundColor=none;" parent="cCGf5AAiEmYSowASUhXe-96" vertex="1">
          <mxGeometry x="35" width="145" height="30" as="geometry">
            <mxRectangle width="145" height="30" as="alternateBounds" />
          </mxGeometry>
        </mxCell>
        <mxCell id="cCGf5AAiEmYSowASUhXe-132" value="" style="shape=tableRow;horizontal=0;startSize=0;swimlaneHead=0;swimlaneBody=0;fillColor=none;collapsible=0;dropTarget=0;points=[[0,0.5],[1,0.5]];portConstraint=eastwest;top=0;left=0;right=0;bottom=0;rounded=1;labelBackgroundColor=none;" parent="cCGf5AAiEmYSowASUhXe-74" vertex="1">
          <mxGeometry y="270" width="180" height="30" as="geometry" />
        </mxCell>
        <mxCell id="cCGf5AAiEmYSowASUhXe-133" value="FK" style="shape=partialRectangle;connectable=0;fillColor=none;top=0;left=0;bottom=0;right=0;editable=1;overflow=hidden;whiteSpace=wrap;html=1;rounded=1;labelBackgroundColor=none;" parent="cCGf5AAiEmYSowASUhXe-132" vertex="1">
          <mxGeometry width="35" height="30" as="geometry">
            <mxRectangle width="35" height="30" as="alternateBounds" />
          </mxGeometry>
        </mxCell>
        <mxCell id="cCGf5AAiEmYSowASUhXe-134" value="Vhicle ID" style="shape=partialRectangle;connectable=0;fillColor=none;top=0;left=0;bottom=0;right=0;align=left;spacingLeft=6;overflow=hidden;whiteSpace=wrap;html=1;rounded=1;labelBackgroundColor=none;" parent="cCGf5AAiEmYSowASUhXe-132" vertex="1">
          <mxGeometry x="35" width="145" height="30" as="geometry">
            <mxRectangle width="145" height="30" as="alternateBounds" />
          </mxGeometry>
        </mxCell>
        <mxCell id="cCGf5AAiEmYSowASUhXe-164" value="" style="shape=tableRow;horizontal=0;startSize=0;swimlaneHead=0;swimlaneBody=0;fillColor=none;collapsible=0;dropTarget=0;points=[[0,0.5],[1,0.5]];portConstraint=eastwest;top=0;left=0;right=0;bottom=0;rounded=1;labelBackgroundColor=none;" parent="cCGf5AAiEmYSowASUhXe-74" vertex="1">
          <mxGeometry y="300" width="180" height="30" as="geometry" />
        </mxCell>
        <mxCell id="cCGf5AAiEmYSowASUhXe-165" value="FK" style="shape=partialRectangle;connectable=0;fillColor=none;top=0;left=0;bottom=0;right=0;editable=1;overflow=hidden;whiteSpace=wrap;html=1;rounded=1;labelBackgroundColor=none;" parent="cCGf5AAiEmYSowASUhXe-164" vertex="1">
          <mxGeometry width="35" height="30" as="geometry">
            <mxRectangle width="35" height="30" as="alternateBounds" />
          </mxGeometry>
        </mxCell>
        <mxCell id="cCGf5AAiEmYSowASUhXe-166" value="&lt;span style=&quot;font-weight: 700; text-align: center; text-wrap: nowrap;&quot;&gt;Rental Transaction ID&lt;/span&gt;" style="shape=partialRectangle;connectable=0;fillColor=none;top=0;left=0;bottom=0;right=0;align=left;spacingLeft=6;overflow=hidden;whiteSpace=wrap;html=1;rounded=1;labelBackgroundColor=none;" parent="cCGf5AAiEmYSowASUhXe-164" vertex="1">
          <mxGeometry x="35" width="145" height="30" as="geometry">
            <mxRectangle width="145" height="30" as="alternateBounds" />
          </mxGeometry>
        </mxCell>
        <mxCell id="cCGf5AAiEmYSowASUhXe-102" style="edgeStyle=orthogonalEdgeStyle;rounded=0;orthogonalLoop=1;jettySize=auto;html=1;entryX=1;entryY=0.5;entryDx=0;entryDy=0;endArrow=ERmandOne;endFill=0;startArrow=ERoneToMany;startFill=0;" parent="1" source="cCGf5AAiEmYSowASUhXe-78" target="B6C2UPkhNcGsAQH5O93r-15" edge="1">
          <mxGeometry relative="1" as="geometry" />
        </mxCell>
        <mxCell id="cCGf5AAiEmYSowASUhXe-104" value="Rental Transactions" style="shape=table;startSize=30;container=1;collapsible=1;childLayout=tableLayout;fixedRows=1;rowLines=0;fontStyle=1;align=center;resizeLast=1;html=1;rounded=1;labelBackgroundColor=none;" parent="1" vertex="1">
          <mxGeometry x="100" y="650" width="180" height="120" as="geometry" />
        </mxCell>
        <mxCell id="cCGf5AAiEmYSowASUhXe-105" value="" style="shape=tableRow;horizontal=0;startSize=0;swimlaneHead=0;swimlaneBody=0;fillColor=none;collapsible=0;dropTarget=0;points=[[0,0.5],[1,0.5]];portConstraint=eastwest;top=0;left=0;right=0;bottom=1;rounded=1;labelBackgroundColor=none;" parent="cCGf5AAiEmYSowASUhXe-104" vertex="1">
          <mxGeometry y="30" width="180" height="30" as="geometry" />
        </mxCell>
        <mxCell id="cCGf5AAiEmYSowASUhXe-106" value="PK" style="shape=partialRectangle;connectable=0;fillColor=none;top=0;left=0;bottom=0;right=0;fontStyle=1;overflow=hidden;whiteSpace=wrap;html=1;rounded=1;labelBackgroundColor=none;" parent="cCGf5AAiEmYSowASUhXe-105" vertex="1">
          <mxGeometry width="35" height="30" as="geometry">
            <mxRectangle width="35" height="30" as="alternateBounds" />
          </mxGeometry>
        </mxCell>
        <mxCell id="cCGf5AAiEmYSowASUhXe-107" value="ID" style="shape=partialRectangle;connectable=0;fillColor=none;top=0;left=0;bottom=0;right=0;align=left;spacingLeft=6;fontStyle=5;overflow=hidden;whiteSpace=wrap;html=1;rounded=1;labelBackgroundColor=none;" parent="cCGf5AAiEmYSowASUhXe-105" vertex="1">
          <mxGeometry x="35" width="145" height="30" as="geometry">
            <mxRectangle width="145" height="30" as="alternateBounds" />
          </mxGeometry>
        </mxCell>
        <mxCell id="cCGf5AAiEmYSowASUhXe-108" value="" style="shape=tableRow;horizontal=0;startSize=0;swimlaneHead=0;swimlaneBody=0;fillColor=none;collapsible=0;dropTarget=0;points=[[0,0.5],[1,0.5]];portConstraint=eastwest;top=0;left=0;right=0;bottom=0;rounded=1;labelBackgroundColor=none;" parent="cCGf5AAiEmYSowASUhXe-104" vertex="1">
          <mxGeometry y="60" width="180" height="30" as="geometry" />
        </mxCell>
        <mxCell id="cCGf5AAiEmYSowASUhXe-109" value="FK" style="shape=partialRectangle;connectable=0;fillColor=none;top=0;left=0;bottom=0;right=0;editable=1;overflow=hidden;whiteSpace=wrap;html=1;rounded=1;labelBackgroundColor=none;" parent="cCGf5AAiEmYSowASUhXe-108" vertex="1">
          <mxGeometry width="35" height="30" as="geometry">
            <mxRectangle width="35" height="30" as="alternateBounds" />
          </mxGeometry>
        </mxCell>
        <mxCell id="cCGf5AAiEmYSowASUhXe-110" value="Payment ID" style="shape=partialRectangle;connectable=0;fillColor=none;top=0;left=0;bottom=0;right=0;align=left;spacingLeft=6;overflow=hidden;whiteSpace=wrap;html=1;rounded=1;labelBackgroundColor=none;" parent="cCGf5AAiEmYSowASUhXe-108" vertex="1">
          <mxGeometry x="35" width="145" height="30" as="geometry">
            <mxRectangle width="145" height="30" as="alternateBounds" />
          </mxGeometry>
        </mxCell>
        <mxCell id="cCGf5AAiEmYSowASUhXe-111" value="" style="shape=tableRow;horizontal=0;startSize=0;swimlaneHead=0;swimlaneBody=0;fillColor=none;collapsible=0;dropTarget=0;points=[[0,0.5],[1,0.5]];portConstraint=eastwest;top=0;left=0;right=0;bottom=0;rounded=1;labelBackgroundColor=none;" parent="cCGf5AAiEmYSowASUhXe-104" vertex="1">
          <mxGeometry y="90" width="180" height="30" as="geometry" />
        </mxCell>
        <mxCell id="cCGf5AAiEmYSowASUhXe-112" value="" style="shape=partialRectangle;connectable=0;fillColor=none;top=0;left=0;bottom=0;right=0;editable=1;overflow=hidden;whiteSpace=wrap;html=1;rounded=1;labelBackgroundColor=none;" parent="cCGf5AAiEmYSowASUhXe-111" vertex="1">
          <mxGeometry width="35" height="30" as="geometry">
            <mxRectangle width="35" height="30" as="alternateBounds" />
          </mxGeometry>
        </mxCell>
        <mxCell id="cCGf5AAiEmYSowASUhXe-113" value="paid amoun" style="shape=partialRectangle;connectable=0;fillColor=none;top=0;left=0;bottom=0;right=0;align=left;spacingLeft=6;overflow=hidden;whiteSpace=wrap;html=1;rounded=1;labelBackgroundColor=none;" parent="cCGf5AAiEmYSowASUhXe-111" vertex="1">
          <mxGeometry x="35" width="145" height="30" as="geometry">
            <mxRectangle width="145" height="30" as="alternateBounds" />
          </mxGeometry>
        </mxCell>
        <mxCell id="cCGf5AAiEmYSowASUhXe-135" style="edgeStyle=orthogonalEdgeStyle;rounded=0;orthogonalLoop=1;jettySize=auto;html=1;entryX=0;entryY=0.5;entryDx=0;entryDy=0;startArrow=ERone;startFill=0;endArrow=ERone;endFill=0;" parent="1" source="cCGf5AAiEmYSowASUhXe-132" target="B6C2UPkhNcGsAQH5O93r-26" edge="1">
          <mxGeometry relative="1" as="geometry" />
        </mxCell>
        <mxCell id="cCGf5AAiEmYSowASUhXe-136" value="Payments" style="shape=table;startSize=30;container=1;collapsible=1;childLayout=tableLayout;fixedRows=1;rowLines=0;fontStyle=1;align=center;resizeLast=1;html=1;rounded=1;labelBackgroundColor=none;" parent="1" vertex="1">
          <mxGeometry x="450" y="690" width="180" height="180" as="geometry" />
        </mxCell>
        <mxCell id="cCGf5AAiEmYSowASUhXe-137" value="" style="shape=tableRow;horizontal=0;startSize=0;swimlaneHead=0;swimlaneBody=0;fillColor=none;collapsible=0;dropTarget=0;points=[[0,0.5],[1,0.5]];portConstraint=eastwest;top=0;left=0;right=0;bottom=1;rounded=1;labelBackgroundColor=none;" parent="cCGf5AAiEmYSowASUhXe-136" vertex="1">
          <mxGeometry y="30" width="180" height="30" as="geometry" />
        </mxCell>
        <mxCell id="cCGf5AAiEmYSowASUhXe-138" value="PK" style="shape=partialRectangle;connectable=0;fillColor=none;top=0;left=0;bottom=0;right=0;fontStyle=1;overflow=hidden;whiteSpace=wrap;html=1;rounded=1;labelBackgroundColor=none;" parent="cCGf5AAiEmYSowASUhXe-137" vertex="1">
          <mxGeometry width="35" height="30" as="geometry">
            <mxRectangle width="35" height="30" as="alternateBounds" />
          </mxGeometry>
        </mxCell>
        <mxCell id="cCGf5AAiEmYSowASUhXe-139" value="ID" style="shape=partialRectangle;connectable=0;fillColor=none;top=0;left=0;bottom=0;right=0;align=left;spacingLeft=6;fontStyle=5;overflow=hidden;whiteSpace=wrap;html=1;rounded=1;labelBackgroundColor=none;" parent="cCGf5AAiEmYSowASUhXe-137" vertex="1">
          <mxGeometry x="35" width="145" height="30" as="geometry">
            <mxRectangle width="145" height="30" as="alternateBounds" />
          </mxGeometry>
        </mxCell>
        <mxCell id="cCGf5AAiEmYSowASUhXe-140" value="" style="shape=tableRow;horizontal=0;startSize=0;swimlaneHead=0;swimlaneBody=0;fillColor=none;collapsible=0;dropTarget=0;points=[[0,0.5],[1,0.5]];portConstraint=eastwest;top=0;left=0;right=0;bottom=0;rounded=1;labelBackgroundColor=none;" parent="cCGf5AAiEmYSowASUhXe-136" vertex="1">
          <mxGeometry y="60" width="180" height="30" as="geometry" />
        </mxCell>
        <mxCell id="cCGf5AAiEmYSowASUhXe-141" value="FK" style="shape=partialRectangle;connectable=0;fillColor=none;top=0;left=0;bottom=0;right=0;editable=1;overflow=hidden;whiteSpace=wrap;html=1;rounded=1;labelBackgroundColor=none;" parent="cCGf5AAiEmYSowASUhXe-140" vertex="1">
          <mxGeometry width="35" height="30" as="geometry">
            <mxRectangle width="35" height="30" as="alternateBounds" />
          </mxGeometry>
        </mxCell>
        <mxCell id="cCGf5AAiEmYSowASUhXe-142" value="Payment ID" style="shape=partialRectangle;connectable=0;fillColor=none;top=0;left=0;bottom=0;right=0;align=left;spacingLeft=6;overflow=hidden;whiteSpace=wrap;html=1;rounded=1;labelBackgroundColor=none;" parent="cCGf5AAiEmYSowASUhXe-140" vertex="1">
          <mxGeometry x="35" width="145" height="30" as="geometry">
            <mxRectangle width="145" height="30" as="alternateBounds" />
          </mxGeometry>
        </mxCell>
        <mxCell id="cCGf5AAiEmYSowASUhXe-143" value="" style="shape=tableRow;horizontal=0;startSize=0;swimlaneHead=0;swimlaneBody=0;fillColor=none;collapsible=0;dropTarget=0;points=[[0,0.5],[1,0.5]];portConstraint=eastwest;top=0;left=0;right=0;bottom=0;rounded=1;labelBackgroundColor=none;" parent="cCGf5AAiEmYSowASUhXe-136" vertex="1">
          <mxGeometry y="90" width="180" height="30" as="geometry" />
        </mxCell>
        <mxCell id="cCGf5AAiEmYSowASUhXe-144" value="" style="shape=partialRectangle;connectable=0;fillColor=none;top=0;left=0;bottom=0;right=0;editable=1;overflow=hidden;whiteSpace=wrap;html=1;rounded=1;labelBackgroundColor=none;" parent="cCGf5AAiEmYSowASUhXe-143" vertex="1">
          <mxGeometry width="35" height="30" as="geometry">
            <mxRectangle width="35" height="30" as="alternateBounds" />
          </mxGeometry>
        </mxCell>
        <mxCell id="cCGf5AAiEmYSowASUhXe-145" value="Date" style="shape=partialRectangle;connectable=0;fillColor=none;top=0;left=0;bottom=0;right=0;align=left;spacingLeft=6;overflow=hidden;whiteSpace=wrap;html=1;rounded=1;labelBackgroundColor=none;" parent="cCGf5AAiEmYSowASUhXe-143" vertex="1">
          <mxGeometry x="35" width="145" height="30" as="geometry">
            <mxRectangle width="145" height="30" as="alternateBounds" />
          </mxGeometry>
        </mxCell>
        <mxCell id="cCGf5AAiEmYSowASUhXe-158" value="" style="shape=tableRow;horizontal=0;startSize=0;swimlaneHead=0;swimlaneBody=0;fillColor=none;collapsible=0;dropTarget=0;points=[[0,0.5],[1,0.5]];portConstraint=eastwest;top=0;left=0;right=0;bottom=0;rounded=1;labelBackgroundColor=none;" parent="cCGf5AAiEmYSowASUhXe-136" vertex="1">
          <mxGeometry y="120" width="180" height="30" as="geometry" />
        </mxCell>
        <mxCell id="cCGf5AAiEmYSowASUhXe-159" value="" style="shape=partialRectangle;connectable=0;fillColor=none;top=0;left=0;bottom=0;right=0;editable=1;overflow=hidden;whiteSpace=wrap;html=1;rounded=1;labelBackgroundColor=none;" parent="cCGf5AAiEmYSowASUhXe-158" vertex="1">
          <mxGeometry width="35" height="30" as="geometry">
            <mxRectangle width="35" height="30" as="alternateBounds" />
          </mxGeometry>
        </mxCell>
        <mxCell id="cCGf5AAiEmYSowASUhXe-160" value="Payment Amount" style="shape=partialRectangle;connectable=0;fillColor=none;top=0;left=0;bottom=0;right=0;align=left;spacingLeft=6;overflow=hidden;whiteSpace=wrap;html=1;rounded=1;labelBackgroundColor=none;" parent="cCGf5AAiEmYSowASUhXe-158" vertex="1">
          <mxGeometry x="35" width="145" height="30" as="geometry">
            <mxRectangle width="145" height="30" as="alternateBounds" />
          </mxGeometry>
        </mxCell>
        <mxCell id="cCGf5AAiEmYSowASUhXe-161" value="" style="shape=tableRow;horizontal=0;startSize=0;swimlaneHead=0;swimlaneBody=0;fillColor=none;collapsible=0;dropTarget=0;points=[[0,0.5],[1,0.5]];portConstraint=eastwest;top=0;left=0;right=0;bottom=0;rounded=1;labelBackgroundColor=none;" parent="cCGf5AAiEmYSowASUhXe-136" vertex="1">
          <mxGeometry y="150" width="180" height="30" as="geometry" />
        </mxCell>
        <mxCell id="cCGf5AAiEmYSowASUhXe-162" value="FK" style="shape=partialRectangle;connectable=0;fillColor=none;top=0;left=0;bottom=0;right=0;editable=1;overflow=hidden;whiteSpace=wrap;html=1;rounded=1;labelBackgroundColor=none;" parent="cCGf5AAiEmYSowASUhXe-161" vertex="1">
          <mxGeometry width="35" height="30" as="geometry">
            <mxRectangle width="35" height="30" as="alternateBounds" />
          </mxGeometry>
        </mxCell>
        <mxCell id="cCGf5AAiEmYSowASUhXe-163" value="Custmer ID" style="shape=partialRectangle;connectable=0;fillColor=none;top=0;left=0;bottom=0;right=0;align=left;spacingLeft=6;overflow=hidden;whiteSpace=wrap;html=1;rounded=1;labelBackgroundColor=none;" parent="cCGf5AAiEmYSowASUhXe-161" vertex="1">
          <mxGeometry x="35" width="145" height="30" as="geometry">
            <mxRectangle width="145" height="30" as="alternateBounds" />
          </mxGeometry>
        </mxCell>
        <mxCell id="cCGf5AAiEmYSowASUhXe-168" style="edgeStyle=orthogonalEdgeStyle;rounded=0;orthogonalLoop=1;jettySize=auto;html=1;entryX=0;entryY=0.5;entryDx=0;entryDy=0;startArrow=ERoneToMany;startFill=0;endArrow=ERmandOne;endFill=0;" parent="1" source="cCGf5AAiEmYSowASUhXe-105" target="cCGf5AAiEmYSowASUhXe-164" edge="1">
          <mxGeometry relative="1" as="geometry" />
        </mxCell>
        <mxCell id="cCGf5AAiEmYSowASUhXe-170" style="edgeStyle=orthogonalEdgeStyle;rounded=0;orthogonalLoop=1;jettySize=auto;html=1;entryX=0;entryY=0.5;entryDx=0;entryDy=0;endArrow=ERmandOne;endFill=0;startArrow=ERmandOne;startFill=0;" parent="1" source="cCGf5AAiEmYSowASUhXe-108" target="cCGf5AAiEmYSowASUhXe-137" edge="1">
          <mxGeometry relative="1" as="geometry" />
        </mxCell>
        <mxCell id="cCGf5AAiEmYSowASUhXe-171" value="Vhicle Returns" style="shape=table;startSize=30;container=1;collapsible=1;childLayout=tableLayout;fixedRows=1;rowLines=0;fontStyle=1;align=center;resizeLast=1;html=1;rounded=1;labelBackgroundColor=none;" parent="1" vertex="1">
          <mxGeometry x="-220" y="570" width="180" height="210" as="geometry" />
        </mxCell>
        <mxCell id="cCGf5AAiEmYSowASUhXe-172" value="" style="shape=tableRow;horizontal=0;startSize=0;swimlaneHead=0;swimlaneBody=0;fillColor=none;collapsible=0;dropTarget=0;points=[[0,0.5],[1,0.5]];portConstraint=eastwest;top=0;left=0;right=0;bottom=1;rounded=1;labelBackgroundColor=none;" parent="cCGf5AAiEmYSowASUhXe-171" vertex="1">
          <mxGeometry y="30" width="180" height="30" as="geometry" />
        </mxCell>
        <mxCell id="cCGf5AAiEmYSowASUhXe-173" value="PK" style="shape=partialRectangle;connectable=0;fillColor=none;top=0;left=0;bottom=0;right=0;fontStyle=1;overflow=hidden;whiteSpace=wrap;html=1;rounded=1;labelBackgroundColor=none;" parent="cCGf5AAiEmYSowASUhXe-172" vertex="1">
          <mxGeometry width="35" height="30" as="geometry">
            <mxRectangle width="35" height="30" as="alternateBounds" />
          </mxGeometry>
        </mxCell>
        <mxCell id="cCGf5AAiEmYSowASUhXe-174" value="ID" style="shape=partialRectangle;connectable=0;fillColor=none;top=0;left=0;bottom=0;right=0;align=left;spacingLeft=6;fontStyle=5;overflow=hidden;whiteSpace=wrap;html=1;rounded=1;labelBackgroundColor=none;" parent="cCGf5AAiEmYSowASUhXe-172" vertex="1">
          <mxGeometry x="35" width="145" height="30" as="geometry">
            <mxRectangle width="145" height="30" as="alternateBounds" />
          </mxGeometry>
        </mxCell>
        <mxCell id="cCGf5AAiEmYSowASUhXe-175" value="" style="shape=tableRow;horizontal=0;startSize=0;swimlaneHead=0;swimlaneBody=0;fillColor=none;collapsible=0;dropTarget=0;points=[[0,0.5],[1,0.5]];portConstraint=eastwest;top=0;left=0;right=0;bottom=0;rounded=1;labelBackgroundColor=none;" parent="cCGf5AAiEmYSowASUhXe-171" vertex="1">
          <mxGeometry y="60" width="180" height="30" as="geometry" />
        </mxCell>
        <mxCell id="cCGf5AAiEmYSowASUhXe-176" value="" style="shape=partialRectangle;connectable=0;fillColor=none;top=0;left=0;bottom=0;right=0;editable=1;overflow=hidden;whiteSpace=wrap;html=1;rounded=1;labelBackgroundColor=none;" parent="cCGf5AAiEmYSowASUhXe-175" vertex="1">
          <mxGeometry width="35" height="30" as="geometry">
            <mxRectangle width="35" height="30" as="alternateBounds" />
          </mxGeometry>
        </mxCell>
        <mxCell id="cCGf5AAiEmYSowASUhXe-177" value="Return Date" style="shape=partialRectangle;connectable=0;fillColor=none;top=0;left=0;bottom=0;right=0;align=left;spacingLeft=6;overflow=hidden;whiteSpace=wrap;html=1;rounded=1;labelBackgroundColor=none;" parent="cCGf5AAiEmYSowASUhXe-175" vertex="1">
          <mxGeometry x="35" width="145" height="30" as="geometry">
            <mxRectangle width="145" height="30" as="alternateBounds" />
          </mxGeometry>
        </mxCell>
        <mxCell id="cCGf5AAiEmYSowASUhXe-178" value="" style="shape=tableRow;horizontal=0;startSize=0;swimlaneHead=0;swimlaneBody=0;fillColor=none;collapsible=0;dropTarget=0;points=[[0,0.5],[1,0.5]];portConstraint=eastwest;top=0;left=0;right=0;bottom=0;rounded=1;labelBackgroundColor=none;" parent="cCGf5AAiEmYSowASUhXe-171" vertex="1">
          <mxGeometry y="90" width="180" height="30" as="geometry" />
        </mxCell>
        <mxCell id="cCGf5AAiEmYSowASUhXe-179" value="FK" style="shape=partialRectangle;connectable=0;fillColor=none;top=0;left=0;bottom=0;right=0;editable=1;overflow=hidden;whiteSpace=wrap;html=1;rounded=1;labelBackgroundColor=none;" parent="cCGf5AAiEmYSowASUhXe-178" vertex="1">
          <mxGeometry width="35" height="30" as="geometry">
            <mxRectangle width="35" height="30" as="alternateBounds" />
          </mxGeometry>
        </mxCell>
        <mxCell id="cCGf5AAiEmYSowASUhXe-180" value="&lt;span style=&quot;font-weight: 700; text-align: center; text-wrap: nowrap;&quot;&gt;Vhicles booking&lt;/span&gt;" style="shape=partialRectangle;connectable=0;fillColor=none;top=0;left=0;bottom=0;right=0;align=left;spacingLeft=6;overflow=hidden;whiteSpace=wrap;html=1;rounded=1;labelBackgroundColor=none;" parent="cCGf5AAiEmYSowASUhXe-178" vertex="1">
          <mxGeometry x="35" width="145" height="30" as="geometry">
            <mxRectangle width="145" height="30" as="alternateBounds" />
          </mxGeometry>
        </mxCell>
        <mxCell id="cCGf5AAiEmYSowASUhXe-181" value="" style="shape=tableRow;horizontal=0;startSize=0;swimlaneHead=0;swimlaneBody=0;fillColor=none;collapsible=0;dropTarget=0;points=[[0,0.5],[1,0.5]];portConstraint=eastwest;top=0;left=0;right=0;bottom=0;rounded=1;labelBackgroundColor=none;" parent="cCGf5AAiEmYSowASUhXe-171" vertex="1">
          <mxGeometry y="120" width="180" height="30" as="geometry" />
        </mxCell>
        <mxCell id="cCGf5AAiEmYSowASUhXe-182" value="" style="shape=partialRectangle;connectable=0;fillColor=none;top=0;left=0;bottom=0;right=0;editable=1;overflow=hidden;whiteSpace=wrap;html=1;rounded=1;labelBackgroundColor=none;" parent="cCGf5AAiEmYSowASUhXe-181" vertex="1">
          <mxGeometry width="35" height="30" as="geometry">
            <mxRectangle width="35" height="30" as="alternateBounds" />
          </mxGeometry>
        </mxCell>
        <mxCell id="cCGf5AAiEmYSowASUhXe-183" value="Remaning Amount" style="shape=partialRectangle;connectable=0;fillColor=none;top=0;left=0;bottom=0;right=0;align=left;spacingLeft=6;overflow=hidden;whiteSpace=wrap;html=1;rounded=1;labelBackgroundColor=none;" parent="cCGf5AAiEmYSowASUhXe-181" vertex="1">
          <mxGeometry x="35" width="145" height="30" as="geometry">
            <mxRectangle width="145" height="30" as="alternateBounds" />
          </mxGeometry>
        </mxCell>
        <mxCell id="cCGf5AAiEmYSowASUhXe-184" value="" style="shape=tableRow;horizontal=0;startSize=0;swimlaneHead=0;swimlaneBody=0;fillColor=none;collapsible=0;dropTarget=0;points=[[0,0.5],[1,0.5]];portConstraint=eastwest;top=0;left=0;right=0;bottom=0;rounded=1;labelBackgroundColor=none;" parent="cCGf5AAiEmYSowASUhXe-171" vertex="1">
          <mxGeometry y="150" width="180" height="30" as="geometry" />
        </mxCell>
        <mxCell id="cCGf5AAiEmYSowASUhXe-185" value="" style="shape=partialRectangle;connectable=0;fillColor=none;top=0;left=0;bottom=0;right=0;editable=1;overflow=hidden;whiteSpace=wrap;html=1;rounded=1;labelBackgroundColor=none;" parent="cCGf5AAiEmYSowASUhXe-184" vertex="1">
          <mxGeometry width="35" height="30" as="geometry">
            <mxRectangle width="35" height="30" as="alternateBounds" />
          </mxGeometry>
        </mxCell>
        <mxCell id="cCGf5AAiEmYSowASUhXe-186" value="Final Amount Due" style="shape=partialRectangle;connectable=0;fillColor=none;top=0;left=0;bottom=0;right=0;align=left;spacingLeft=6;overflow=hidden;whiteSpace=wrap;html=1;rounded=1;labelBackgroundColor=none;" parent="cCGf5AAiEmYSowASUhXe-184" vertex="1">
          <mxGeometry x="35" width="145" height="30" as="geometry">
            <mxRectangle width="145" height="30" as="alternateBounds" />
          </mxGeometry>
        </mxCell>
        <mxCell id="cCGf5AAiEmYSowASUhXe-187" value="" style="shape=tableRow;horizontal=0;startSize=0;swimlaneHead=0;swimlaneBody=0;fillColor=none;collapsible=0;dropTarget=0;points=[[0,0.5],[1,0.5]];portConstraint=eastwest;top=0;left=0;right=0;bottom=0;rounded=1;labelBackgroundColor=none;" parent="cCGf5AAiEmYSowASUhXe-171" vertex="1">
          <mxGeometry y="180" width="180" height="30" as="geometry" />
        </mxCell>
        <mxCell id="cCGf5AAiEmYSowASUhXe-188" value="" style="shape=partialRectangle;connectable=0;fillColor=none;top=0;left=0;bottom=0;right=0;editable=1;overflow=hidden;whiteSpace=wrap;html=1;rounded=1;labelBackgroundColor=none;" parent="cCGf5AAiEmYSowASUhXe-187" vertex="1">
          <mxGeometry width="35" height="30" as="geometry">
            <mxRectangle width="35" height="30" as="alternateBounds" />
          </mxGeometry>
        </mxCell>
        <mxCell id="cCGf5AAiEmYSowASUhXe-189" value="Mileage by custom" style="shape=partialRectangle;connectable=0;fillColor=none;top=0;left=0;bottom=0;right=0;align=left;spacingLeft=6;overflow=hidden;whiteSpace=wrap;html=1;rounded=1;labelBackgroundColor=none;" parent="cCGf5AAiEmYSowASUhXe-187" vertex="1">
          <mxGeometry x="35" width="145" height="30" as="geometry">
            <mxRectangle width="145" height="30" as="alternateBounds" />
          </mxGeometry>
        </mxCell>
        <mxCell id="cCGf5AAiEmYSowASUhXe-202" style="edgeStyle=orthogonalEdgeStyle;rounded=0;orthogonalLoop=1;jettySize=auto;html=1;entryX=0;entryY=0.5;entryDx=0;entryDy=0;startArrow=ERmandOne;startFill=0;endArrow=ERmandOne;endFill=0;" parent="1" source="cCGf5AAiEmYSowASUhXe-178" target="cCGf5AAiEmYSowASUhXe-75" edge="1">
          <mxGeometry relative="1" as="geometry" />
        </mxCell>
        <mxCell id="3gbF3Js7RYyQ2YKZnJj0-3" style="edgeStyle=orthogonalEdgeStyle;rounded=0;orthogonalLoop=1;jettySize=auto;html=1;" edge="1" parent="1">
          <mxGeometry relative="1" as="geometry">
            <mxPoint x="-300" y="635" as="sourcePoint" />
            <mxPoint x="-240" y="620" as="targetPoint" />
          </mxGeometry>
        </mxCell>
        <mxCell id="3gbF3Js7RYyQ2YKZnJj0-4" value="لازم اسوي&amp;nbsp;&lt;div&gt;1-قيممة بدائية اللي دفعه المستأجر&amp;nbsp;&lt;/div&gt;&lt;div&gt;2-بطلع القيمة االفعلية اللي دفعها المستأجر لانه يمكن يرجع المركبة قبل الموهد المحد او بعد فبطلع بسالبد&lt;/div&gt;&lt;div&gt;&amp;nbsp;&lt;/div&gt;&lt;div&gt;3- اطلع الباقي للمستأحر بعد حساب&amp;nbsp; الامور الاضافية&lt;/div&gt;&lt;div&gt;4-بطلع المبلغ الكامل للمسترد&amp;nbsp;&lt;/div&gt;&lt;div&gt;5- أحدث عملية ال تحويل و التاريخ&amp;nbsp;&lt;/div&gt;" style="text;strokeColor=none;align=center;fillColor=none;html=1;verticalAlign=middle;whiteSpace=wrap;rounded=0;" vertex="1" parent="1">
          <mxGeometry x="-810" y="380" width="490" height="281" as="geometry" />
        </mxCell>
        <mxCell id="3gbF3Js7RYyQ2YKZnJj0-5" value="" style="shape=image;verticalLabelPosition=bottom;labelBackgroundColor=default;verticalAlign=top;aspect=fixed;imageAspect=0;image=data:image/png,iVBORw0KGgoAAAANSUhEUgAAARQAAAD6CAYAAABgSbg/AAAAAXNSR0IArs4c6QAAAARnQU1BAACxjwv8YQUAAAAJcEhZcwAADsMAAA7DAcdvqGQAAK+9SURBVHhe7Z0FgFVFF8cP3d3d3Z0KioqKWKhgYqGigAUYlIWKYnx2EaJ0I6l0g3R3d8PC0ux3fufd+7i7vIUFdgm5/2V4N2fmzpw5c2bunf+JF6GQGCDitMiihQtl+IjhsnXrNjl96pRzxocPHxdCvPjxnK2LR8SZs000hs31HMSLd+npxwQnVR8kTpxIYqxQJo6fJB99+KEkTZZUKlSoKBkzZnDO+PDh40KIFy++s3XxiIg442xFVi4Xg8tRaDFBqpSpZPPmzTFXKA0eaCDZs2WXjzp2lDTpUoucfUYfPnxcCJfTnj0t9BINFFVozkZcAX2pOiF6hcJRJxOrVqyWhx96SL7+3//kljq1Awd9+PDhIwpibIclSpRIChQo4Oz58HGDgQ6WgGV+KcG9/1JDqDgvJoSKMw5CjBXKyZMn5XBYmLPnw0ccAKGMLcRmXF5gtfsh2nBRM0UJEiSIu4q60eBo9IsKINTvpQTg/b1SAYTavpgAQm3HJIBQxy8UQjSeiwqXi1BxXky4Qri0qeeohe3j4kElu4IK9Ncm810B8J53gxfuftRz7r4bQtWRe71zfuOGjXLi2AlL/8xpPeC93wmct3PE5RyL9nr3Gs+1hFMnnE8N3GMK7nefm9k8d/vk8ZN23uBcb+eI04nX9hWHDx2WXTt3B6+zc960HQTjdI+HuMbH5eGiJmX79esnRYoV8SsglrF9y3Zp3qKFJEqYUBInTmwhfvz48uyzz0qV6lXk9MnTAevwAuqfb4VAPL2Uew4eOCj79++XAoUKBOrTvZ+GqNtnTkVI/ATxpEP796RokSKSLHlyGTRwoKV9+MgRu9S+LYgXXz799FPJlSdn8F4vSJfvkhImShg4p2mhPBIm1n1XVpzGH90zWF54tRklj9Eh/HC4rFu3XkqWLiEzps2UL774Qv78809JmjyJPXv8+AmsHELCjVt/T5/Wsk0UA8vbl/kY4TxVFhlBveMXbKxj67atMnToEKlWrZrccccdcsstt0iqVKnksccft+9/TOC1pmgopjRoEG4DcBuqggZkjUiPcc+s2bPl2+++C9SZU9PEER4ebtvxE+oJjWfH9u2ya9cuKVa0qNSuXVvurldP5s6dYwruwQcelEceeUTSpkkTSFPjofG7OHX8lJw5c9qUiYmIk5+ESQLK5OQxtQqc+yx48huEHkOxgQP7Dp693o3PCcFnV0yePEXatW1r21WqVJHffvtNkiRJYvs8+7Fjx+TE0ROBOBy4CtctC37t2vDjzgEfl4sYWygPNWhgFkrREkUDB33EGubMniOVq1TWhr1TMmfN5BwVubvu3VKhQgXp0KGDhB0Ok169esv48eMkcaLEpnieef4Z2btrr3Tp0kVq3nSTdOvaVU6dPiVPPdXYLI4Htc42bdokL7/cVF5//XUZPGiw9O/f3ybY8+XLZ1ZHyjQppfnLzaV48eLSVK87dTJgWTzx+JNyU82a8sKLL5qSWrF0hfzxxx+WLyyYt99+WwYMHGBx8hUmbwDbtmsnKVOkkO9UiWXJksWO//3PP5Ije3Zp37695u20DBgwQCZPmiRHtcGnS5tWOn3WSZKnTC5DBg2VEcOHy05VbHly55YXX3rJrA+UF8qWfCdNmkyf7SlL664775RDhw5J67fekiqVK8s/Y8fKu23ekaPhx+zaYcOGSRpVgg8+8IDUue02OXnihD3vww8/bM+xe/duaaBW930P3GvP5FU8IeG0BR8XAAolJM44v4qVy1dFlCxWMmL5kuXOER+xidkzZiPOERvXb7L90yfPRKxbvS6iUP5CET99/1OENqqI1i3firjvnvsi1qxcEzHirxERZUuXi5g6eWqEKvuIZImTRTR98eWI+XPmR7za/LWIe+6uH3H0yLGID9/7MKJmtZoRO7fvilDFY9vDhw6P2LBuQ4Qqq4hPO35q6b3Y5MWIH779QROOiFCLwur+gXsfiOj82Rd2HkwYN9Hy+EzjZy2d9WvWR9SpXSdi2OBhEcsWL4uoWK5ixFedv7K8Enf2rDkiBvQdEDFp/KSIgvkK2i/PlzJ5qojBA4fY/Y0ebmT3Hw8/bnkmD1s3bY148P4HI95q9bblpeuvXU32xv491vKZP28BK4OGDzWMqFS+kj3bmJFjIooVKW5pc1/lilUiFsxdENGzR8+IooWLRcz9d17EkbAjEfElfkSTZ5tE/Dvr34iOH34cUaFshYiwA2EBWb9Q8BEjuMafj6uMePrXulUrafxEY+uFGXYw1KBHxXxnHdXNtWpZD541azabsxg5YqTdmzZdWnniiSekbIWyds+qlSvl+PHjkiFDBkmdOrVkzpJJ0mdKLz169JBixYpZ75w2XTpZuWqVWQApU6S0eM4H5nXAa6++aunkzZ9XfvzpJ8mRM6ccCT8iefLmlVWrV5s1Ez9BAqlevbo0eKSB3HzLzVKyZElZunSpWS9YDePHjbNn+rPnn1L//vqSOFli+eGHH8ySIE9FixSVlStW2DPMmzdP7r//fqlzex358ssvpU/v3pInTx5Jr89GnrBysJiSJU0qO3fukBkzZkhTtW5Klykjjz35mFStGhgOJUyQ0D4Pr1u3rpQoUdLK6/CRw/a5uG99xB5irFBU+ZydR/ER69DSNSF/9913pYY2xl27dprZny59elMAy5YtkyFDBsv3338vn3XqJDm1IadMlcrqpESJElK6VCmLJ1WqlHLmzBk5ePCg7TPM4G3Its3bLP7GjRubItq3d68NGZi7OK3XXwg0bpQeQyWwYtkKefyxx6SN5nfYsL9k/bp1kjFjRpunSKqN280PQ4mTp06a0kmfIb307dvH5oyef/55myvauH6j7N+7X5577jl5SYdX43TowrMCFMaGjRslR44cts/QqFLVSjY/k1CV1pHwcEmUOJE9b/LkyW3yOIEqF/KBYmN+J2eOnKZoUDqZM2e24VKyFEklebJkqpRPB57dF+tYg2+hXCPQoYBUrlJFihQvIi+8+ILUurmWvPfee3aOBsqcBPMgPXv/KX3697H5LOYxTpw4IceOHrMGz+Ti0fCjNj9Bg0mQMIFNVJ46edLmLvbu2ysDBg6U9u+3N2XCcXpnrAUX0S0iYw6iYP6CNi9CQx00eLDs3rPb5is++PB9yaCNGCVIQyYvCRImDNyo0dFwsQ5OHD8h1apVl4GDB6pyHCJp06aT7779TubPX2CWyFdffSUffvSRKUviSJQ0kZQrV07WqbJy0a9Pf5u4RZGicHhLkzBRIjl69KhZY1mzZTVrCMuLuSDbPn3GJo1RHpQJ+afcCCggA499vuAjRvAVyjUAGvEZbRg0cISdNw//++YbGTNmjPz66y/2huWee+6xBte9S3dp9247KV++vDVCFAdKg4aeNFkSa8j03jRIFnOuWL5cJk2apA0tmw5JVtkEbod275mSmjx5sowcPtKGTzQuJmQDGcKqOGXHXWAB8OYpfoL4ll8a/ZYtW+R3HUa9+/a72sDPaF5/lRHDRkgibbw8jwsaMfGNnzDB3mT16P6HrNAhzYED+yVL1iySXodfBw8eMCXz3Xff2rBn4sSJ8vmnn8t9990n06dPl2//961889U38vHHH9uz8fx79uyRGdNnWLkxfOG5761/rym5fn37yscdP5G1a9fK0888Y6/PAUMfLBy3zPjlGxsfsYME2gsGusFQcDTz3j371FTta+PzTJnPvoXwETs4eeKk9bi1atWyty4gTdrUkidXHu31d0uNGjWk9q21be5k3LixalEclyZNmkidO+pYgzigw5tyZcuqKa/KJVGg1+atD/MlNL5lqlTuu/deVQK5ZOXKlZJfhy1vv/OODQGy58guObLnkCJFi9i8SHwdNjBEOnnyhBQvXkLy6TFwXK0LvoWpqgqBb1NyaVypU6eRadOmSikd3rRq1UqKFi1q8zEoL9IuWKigDSfC1WoqUby41LntVkmkDRoFsXjJYrmtzm32HLny5JLcOXPL7H9nS4rkKaRjx4+kaLGiklif7e6775aKFSvKBFUwx9WSeu3116RYiWL6vOVk965dsmfvHilRsqSkU6VUsWIlKVSwoM2xjBs/3uZVmjVrJrfffrsNh1CQvGJGMbqoWrWqpEp7dt/H5SHGr415/YbmL1ayWOCgj8sD0xaOfYhVwlyHfdDGtyEOmI9wq8c9zrXA/WiM7zwYGsQE3Gvfh7hw8sDwINJHZQrvtZzHAmHowgTqOdAsooTsGxgHFqfznQv5ZB/Y9yb6j+9hsMR4RjUULO1gmp6y8cK9x/31wuJxDkV6zijlzIQxeeCrWeZfQqXj49LhF+fVAo3IAcLPcMWrTEDgjUm8SMe51hoLh7SNunMVwY+2PHAbsfvhltvI3ONuHix+lYRgHNoImXOwj9IUKBusE1eZ0KBJ2xuPV5lYw/U+i17GvqtMgKsQ7D5Nmzzal7YAqXSi9sK9x74aVlj6KAyFN/2gMgEeCee45Uv/mRKOJh0flw5Pcfu4qvC0v0iI7jjQc27D9TYoF+45Pkf3ItjYo8QdjAOp0BC0fLjOIynWsPVYMJ4oiNSgucS9LPTlBsujVxrPc617naXvvedScL50fFw0Lrc6fFwqridB9hudjxgixgqFGXEfPnz4OB8uykLxlYoPHz7OB99C8eHDR6zh4udQ/FlxHz58RIOLslB8K8WHDx/nw8VbKD58+PARDWL8pSxLyDOkT28LsPicmxWecQmylYjFX6dO2eKvcIeS0IeP2MCJkyclVcqUtsaIr4BBxCV65YsJomtm/zXEWKGwjue5556N5JsnLiuAiv78s88sXbg2oCP04SO2APUBPLQNGza0hY4ssoxL+AolhEIZOGCAFCh8ZZx98Vk1K1Oh6ytctFDwE2sfPmIDZ7QzrFypkhFbG61pHMvXDaJPYj6HwjCHJe62juMKYP++fTbc4ddATv3gh1gKYWFhZjXsP3BAD5w9HleBZQ03QuBxY4TEiRLZQrRIXuTRuhpYDGbbXrj7zq8t5NJ/7i/3sBjN3Y8KI89xCHGC8PQikRSb3u8uWPMi1IK5qDjfNcFzIfJnz+zAu6guFGAk27Nzj7N3HoS4312gFwlcp8HS9dxj++Q1RH59XBiU39pVa89hyz8H0dSzj4tQKCHBkEgLnvmOFs1ayEMPPiwP3PuANGvaTN5+6x1jZAebN26RV1u0kAP7DwaId/Q++FVeaNJEtm/bFojnAjhy6Ig8/PAj8nCDR6ThQw2lUaNH5cH7HpR777lPPvn408B8jsYTXIHKrquLHOEINnzAMb0ueI0XzvWcs5W6Gm/Ue20BnP6SHm4k7LyWpqvodm7fJQf3H7Ljn3z8iXTt2jW0IDppWb6pDWffoNezQG9A3wHS7bduFtfihYvlqSefsrJ46KEG0q5tO3O1YfcDyjIG5enjXGxYv146vPee7NuvVrFThsF6d+tFfzdv3mJ16+NcXJ5CUTA2PBoeLiNGjjSO0Mcff9yoDCFVvvfee61ioA/ErQFmJg2x1x+9pOPHH8udd94pmTLFjLAJljDifuaZp21iGHcSsJg1fuopc/fgrnBlBaqNVx0lgCKCx+Mc5YHAhHp6z70AWgHAvUePHAsoDM950mP1rRu3rcTVtCCcnjPnXzuOGwzcUbjpEQdxWRzkQ2ErZ0lbAxZN4GDAEoJ4efKUyRYX/nMWLFggjz32qLnL2KtDwhdfeEFaNG/u+56+DFAX+Qrmk19++dloJF0w7I5kDWs1ff3VVzb34spAyI7iRgWTsiHhcR2AG43SJUrbLy4evGB/x7ad5ioBlw4ucONQuEBhc5OAy4TcOXJHHNp/yNwh4B6i95+9z+uegGtxFYHLA2Dpcr0G3EfgNmH/3gPmOgFoDx7R6eNO5iahT6++5o5BraaIW2vdGqGWU0SXX7rYdQf2HYx4p/U7EX+P+ttcT9Svd2/EkEFD7dymDZsjWr7e0q5v/ETjiN+79Yg4fPBwRPjho+aeosEDD0U81ujxiLbvtI04dSKQ8L49+yw+7uEaHdpE/Pn7nxF5c+eNqF6luj0/riA4BhbOWxjR/OXm5jaizdttIpYuWmrHueajDz4yNxePNHgk4qUXmlpeeT5caOBCAuAyAhcSLjiPexPSszROc9AJPqIFZVu+TPmI6VNnOEcizNVI+7YdTHYnT5gc8fUXX5vLkkcbPhrx9FNPm0zhTgRZRjZdufFxFpdtobjA+oCn1MWcf/81FrLsOXJoL59UkqdIIT179rS3RR917CgNGzUK9s4xgfXgXK8BImbIhe3rXSwD7dUnT5kin33+ublswFUCNINMJHft1lXq169vfKwMveAx7datmwwfMdyY1nFwBYs84DU1PK24XWjQoIH8/fffkihRIlm6dIls2rjR+EyxBrrq/S4ze8OGjWTv3r3SvFkz426FURMXEokSJpKXmjY1q43jkCVjJuMWI2XKlGq1tDdmeigQmSeZOXOmdP68s5rb+6Vtu7by7+zZ5jaC5zvfF8qchy6xZMlSaiWOCFpBF1O2PgKgPuCyxaKmviDMhjf3/fc/UIt7kfz0889G0wlxdr2775ZbtW7NqvQRRKwpFLhNaUzMn6iVoEOTZ+T+++4zFw807GPHjhpB8smTgTc3pghiEdolq+K4R1566SVJmz6NDbeYX1i/foNxp+LKYdOmjeZ1DyXxctOXpUKl8tLgwQdlzZo15isXHlRIjQcPGmQ+cP788w9JnDSxNVaE6YA2duJhmDZr1mzZt3ufDe3eeust8z+D5zuY6XHjwKQyHwGmdNxaUD6kg89gvN1VqFDRWOu3bt1qZMuq3M1dxEMPPSTFihYzRbRQhzYA8uVz4DWztRYpZxStwVcmlw06wEoVK9qwsmDBgvZhp7H6a1mHHz0qufPkllSpfS7aqIg1hcLXrKXUOqhZs6bcoxbBcG1cn3fubI2BOYwTJ06aldBLrZT3P3hf/vj9z1gde+IqAbJll6YQn7633X67ManPnjVLLajD5i4Cqwl/NkZUrL1LlqxZzfkUiq5ps4DLzt59+lhP1OyVZub0G5cVZcuWseeZP3++HDkcYFjn4yicbGGZYWVkz5Vd8hfKbxaFjjiCH0vxpgrCZeaaihQuLCnwIaMlTz74aI95EfKTTK/HZwzzQcwT2atNHaejkKMiyFCvcOdZ8OHDJHJwbO/jkgGTPq5L6Bjo/OhEsDqRB+qbjslaj6+8IyHWFAoFz1eHjR5vZP5i8S/DMAVSYHzpUgkML+657x55882W5iBq/br1zt2XCVUMWACkxdsOXvt11uHPbXXqyNfffGXDLBo5AgETOtaADSP0H43c5WVlSPLqG6+apYEfXIZomL7ddYhTpnQZ6T+wnzz55FN274EDB8yiQBHhN4a3Mdu3bLc3MvRgwE0jsFThtOTKnUtWrFxh/nEAwy+ckmPJmI8YJx9MArLvCnMouNfy7CgTvAVilUGlSLI+Lg9uHbqT5dQFZY6yZ6KWjskf7pyLy1YoNBqUBRqdhkPvyPDBBQTHuMSkEbuN4M1Wb5gJic8VnHBfLOiJSdccVQGtc8a/7FPZWCk0dsbDP373o3zz7bdmUWB94A8Gr3m86rZb48c3SwDr5ZNPPpHnnnneHG8vXrTITF0sBX55s9L5s87SUcfVKC+sLeZRnm7cWFq1bm3OvvH0N236dPOjU6xYUbNsVq9ao2Wg1sxh3HXmkQcfeFBat2otw4cNN8V65513Sbbs2e15XG9/WDSUFVbO4YOHbciEMy+2Wd/075w55roTXzUPNXjYFGaz5s3knnr1AtZJrHUTNxaQY5Z44HDettXqNqh8HVar1F1PhvdEvDjOmzvf9n2cRYz98vTXxoHgpqcx43LBgfWGqqmPHg2XKlWqSsrUKbTxJgrcyn/OpSibypWrBF/D4kEOF5tUGn5WogLnS926d9det775jvEiQoc3NCyb/MSdhIJhVaHChcw3DGu9qlevZr08X0I++eST8tyzz0oKHRcXKVLEhjgMacjLKbUGyAPWTIUKFczX7YyZM8z3zZstW0q+/PnNL0wSFbDt23fYBO+zGldGNYGxuG7V+7KqaTxp0kSpVKmiPP/c85I2Q1rJnze/DY/wY1RYhzn5NZ5CRQpJ5UqVzbPf3Llz5ZbateXtt97SfCQzxYbiqlylspVZ2KFDkiVzFqles7r5ysmVO7eULlPavrdBAW7cuFE2bdqkQ7Gy8vLLL5ubUXpP73eHPqLHca3f33//3XxI58qdMzD8VjmmHvCHjIJnLqx4ieJ2PZ/q01GUKlNKChUqrB3FKpubY9svcw941RMSnteO53ttDHh1eRKv/Q6i7turTIIHvJoDdl2UcyDqa2MvQqVH0KFOcB+P/oD8sk8a7vmosOPOYxGvXe9Cj7uviINw8svxYPxAryVd9t3X3N7yihSvgtfRXnjPR5cmIE6L13Msatw+zo9zXhtTTVqewfrixw0OrIw9ZQ4iybmP2HltzDjf/bAMsM98RnDSFSvFkxJmuWup2H0xzYUzZo2aHkMdjrluH9h2J2cZA5sVpSHoFiIKzGG2Y0nhQIv7g9Djrj8YA3nQYzwDQxmGdMHrScOZ9yDdM6cdZ1cOOG4fSTnlkizZ2dfswPLpgLi9wLugC5ubIl5PuQXzQP6ccvJxkdDypFxt2EhduMGBlXEUWQ3OZfkwRN+UPQV5KTCnTm7sUeKyirnM+L2ITlEEQT7Ok14kvzUXyhfnNfAMoQQs2LAVXmXiwpSTe0/U0vfse+MBF3xGF07+fFwkPGUWtezPh4u59kZAVJGOPfhC7cPHDYe4Uyg+fPi44eArFB8+fMQafIXiw4ePWIOvUHz48BFr8BWKDx8+Yg2+Qrka8L8T8fEfxVmFElXIL0boL3StnrePhRx4t2MKlyktJNwP6C4Wel8kNq6o4LkuNW4QTbmwNCDIScs1Fyo/H1cUIeXzcuTgBkJQocydM0/WrV53SY0dRFo2H7WBqCLwfgDk3Y5pevZBmDde7/Yl2lmsz0jAF72hGrQKkPl/Iu5LESbu0ecO9XzmvMzzpa//zc41BJWFkB+rRZUxj8x4CctvdMSPiIiwlcBLliyR9Rs2aGkG9qMGEOq4G2AY+/bbb+Sn73+SH7//Uf735f+ke9fusm3zNlmzco1MnzrDqAW49vTJMzL277EybPAwW0kboQ07anyESGmejpBDBw5J39795OsvvpZff/lNevboKYsXLjG6Au99MQ0Izvx586XlGy3POTd50mR5/vnnA3mOpkzOF9auWSu9/+xNCdv+4IFDbOXzD9/+IEOHDrUyOY4SjubZ/RD3IZJ8aYBY/LVXX5dDkIt7jkcKKodHwo4IfDTusQSJE0S+5gYOQYXiLt3WvXMuIkQt/KgBh1y/d/9dFi5aZKts4RFZvWq1HDlyRKbPmCE///RT8Fr4RliVy2pgVmp64/GGSGlqo4ZC4I033pCVq1bJ4sWLjELg0UaNNP7pke6LSXCVG1wmI0eNOuc87G1PPfXkOcdjGlatXm2e6SCj3r/3gLz77rsybvx4WayKu1fv3sZo93nnz+Vw2OGQ9/sh7kMk+dKQNEkSadDgQUmRMmWk48Ggyp81VRBUjx833jrGkNfdwCFoyMHR6sLMdI8ZbkRBMUDjpxvL9z9+Jz/9+pOFDz/+UHLnzh0kpMEi6Nenv7Rs2VK+/+F7uf+BBy7K3CcOlox//8N38vU3X8vo0aNNKQ0aNMiGGMyHrNae/7NPPpMvO38ly5csd+5UqPyMHjlGOn7QUQYPGCw7d+6w50ybLp0pUqwcMHzocIsDfpTw8KOWZ+7j2JhRf1vc06ZMs2sBrkJ6dO8hfXr2MYKmvr36hhzmsIDxvQ4drHwgaurYsaP89utvxmvi4+qDOqNTDT8SbnUFT8+CuQuMh5g6H9R/kJw8ftIoQrv81sXqberUKSZXPs4iaKHQWN3t06fVnPOY4jYscbajC3CKYAZCkRd++KhRIhKYK0iWPLkRHNHo2rRpI5926iR33FHXGmuouLwB8GtxaRyQ3IQdDJPdO3bLlKlTLd+QIGHB0Gs88fjjRoYD/2vjxo1NKFAWb7V6y1jYUqdJLT//8ot0aN9BThw/HlCkqjBZfMdw7YMPPjACpdn/zjZWOdL9onNnI6der9YMhNRPP/2MbFFBQ5k0eOghGT1qtOzX9F568UV5s+Wbsmf37tDP4bH+qteoYXwrg4cMMVPbe60frlyweuFXh6YQhL///vtGvgVp+APa4UFZCr9sq9atzDJhzu24dmJQQqbTzkhjOSfOGznENw2rIVGihMGl2OatL1DWhgiW958PamXQiCdPnmza+ycd3vzeo4cMGDDAND+Nljmap9XMh4zo7rvuirwSNwZWSkLNH9i5c6dUrVZNbrrpJmn60ktGStSoYSObGOv+e3epULGivP/h+/L+R+9L+fLl5Ztvv5FDhw7JmDFjpF27tvLKK82kX9++8s8//8g8HZq5+OXHX6RXr17Gkg/bGwQ8yVURmmUVP57xi+Jb59PPP5UsaiVxP8Ml+GU/++wzO1ehYgVVegkDdJSOVef+RgVDvRrVq6vimmV0kj6uPrBM4EaGDAz6DazXpxo/pTLzssrs3TaML1AwwOCHbDEsNnjayo2O+Ht37xXCwQMHjYKQMT+Tn2GHwmzyiRB2+KwDqVBaiQDn5rbt22X5ihXGJLZAGytKhAZHBdGo+/TpY+PTV197TRWN3kc4z6Rk1PTCw8OtZ/jyiy+kvyqrP7X3yJs3j7R+u7Wdg4i6cpVKOsQKWFRVqlSxeRxY2BCOvHnyWk+UMk1KEwZY5eFCWb9+vbmuqFy5shQvWdwsJ5QJcWB5oSAQICSHY65zsi1btxqjG4xyKAiY7DGbXRZ7wK8bEDzvPmxyWbNklfT0dJ7jfrgyIWr9HD161JQKnStDaTwJZEgfoC+Fzc8oTtUSxoMDCie+dpR2ryMXflAL5edffxXCpCmTZeiwofLdd9/JF199Jd9896189nln3f9eFUFfGxZQBdGFeAni2xDji6++sPA/tQw+6PihJE+dws5Xr1lD6t9fX37r8ptMUkvmvfc/EOidIrQDjxqXGyKlqdee0sYPe/xtd9wuxUsVl1q31pJmzZrLmNF/yzGt7EKFCsnWrds1L4H7du7aJYdV0dDoOX9EBYbjZ9RqWr5yhaRKnVoVXAozYdu1by8DBg6UiRMma8GIHXPThg7yDAXm7J9QoQs7ctgoJXfp8OY0SlGf40j4ETmpFg1s9uQdOkGuh6SbYV/wedTg43oUIhYV+XDj9sOVC1FlmvpKqB1jwoSJTM7Spk2rsqRDnOMn5JB2qtCAch3K5DRTBMiv534/aNm8/c5bQqh3dz15tNGj8mbrN6XD++3lnTbv2G+rt1vJa6+/ppeeH1gakdirtMHAWAbQ7OYOVJEtRzYdInSSP3RI9OP3PwVyEUOgAeFjXbd2naxavkrmzJojX3z5hfGqUvmlSpeSYUOHyqoVq2TJoiU25Kpatar5T8mYIYP83r27zXv0VUuJIQ2mK75scuXMKa80f0VeffVVeU3D5k1bLD2UCIxspGusbkDzyz5uQcpXKG/WT+/evWXjuo3y888/2wQ01zKRjXsMwBBy34H9snbdWtmxbYdMmzpNnnqisYwbO1ZatWodc/IkH3EHrVeGt1jpuEdhro4OgqE57H94TAjWZ/wERhQeJGO/wIzAjQRsNlqIHNPem0lKQQk4xwhnTp6R/fv2B6Y5PMejhpw5ckga7WlPm78YPaYBLutTx07aORq9tlCL/47bb5e3335LLYtRsnrl6kjxeIM3zRPhxyWzDjXy5M4lL7zwgjb+FubxL7FW9Ecffqg9SwJ57NFH5fHHHjPHW61atpT77r3X3GnQyPFHi7BwfvDgQfL9999LxUoVBPcWFXQ4c/LoCWnxWnO56aaaMmzIEMmWLZsUK1rUnqNUqVKmkFCa7BfX4VIOPZ8ufVqbsB0yaJAM6N9fnn6qsXkFTKK9HEOmaqrMEidOJCmSJZdSxUvIt//7Rp584gnLN97p+us91apXCT6jH65siCTTWq9p06SWqlUqaz2ftvouWKCAnTt94pQRVJcoXtz28fa4bu1alZOhgXt1GBSM5wYP8U4cP6Fbog1ioGTOnElurn0zu5HAF7Qw3uMAizcqoagN7UtZjRBHVfYKV7W9y8UadiAwB5MqrQ4FABpdzcWd23eqeZlQMmTKEDjuAffUue02+fHHH6SCNnzABC/zE8zX4E8nc5Yswbzwypj0yAcWUUodythXsG5WnWfev3+fpM+YPng9b4AO6/CFY4B93uQwT8KrY+ZbcF7OjD5vsXhrtW/PPlUYKWzClVfWzK8ULlZY/uzR0yZrf/+ju8W1acMm8zAHdu7YafmmjNKl0/RVyYFIX8z6uGLgFX/dO+6Qr//3P6mKUgcql9u2bjO3JsylmBxp/QMm/XnbibXCmz9kBA8QeJYMypgPbdYUhgYEHVOOhhcVmP4XAryspkyAKgtXmQAUSVCZAD0PsmTLElKZRAcmSzNlyShp0qWWrDmyRlJsbnrkg/O2TzrO87HN/a7icK9HQNxjgP1sObNZQ3eFKV2GdHa/2/i5nnR4I7Bw4UJp/VZrafJcExvytGjR3K4BufOqMnHS51mJh3vJB3H5yuQag9Yx3h+pH4ahbv0D6solPucc8mf7Z0XQh8Jp2trDa4954uQJ+47EPsy6sA654cE8Cd/VvPjCi1KzRk0b/pQvX8Ff2+HjhkXww7bCRYqYM6pAz372NZAbQNRjcR0sTf5CnLsWAh8ApkidQu6sd6c89fRTUqlqJSs7f23H9RFchDrnh0sLQYVStnwZyZUnV7QN+IoXvPNn/0KdvwZC/ITxgwsT+SzbvqvRbXedkB+u4eD+hTrnh0sOgQ8lfFwy3Fe+Nh/iDCAZg/vwcSOCwU1ITXMtBJRdqON+8MPlBv3Pl684CMFJWR8+fPi4XATnUM4bguOiKMfjOFiKIY77wQ+XH0y8zu6fZ02ZH2IeolcoHuXh6hPbdM9fbjh9/snLs2kG9nmdfU1OdrqC6BFIn3jn+ggmX46cuwtK/XB54eoMeahLTfliJi9ZDxPt9Y7yuSpwPmyydUtOPkJ9Sezj2saZ06cD9Xc1Zek/gLhTKNFVjFNpfDxnH9DFFOdro1ez/TrPaUrE1yPXLewtHfXn1+Fl4aIVSnR0kKzL2bJpq6xdvU5WLltpK3b379lv32nw5agpD3dVpkYRHn7EWNUMMVytyTodSK9JY/GCxbJ+zXo5fPCwrcu5GoA75mj4MdtmbciOrTtkw7oNsnH9Rjvm4/oCsgSFJzLr49IQs0lZT4iOFf/LL7+S++67T5q98ooRST/z9NPStGlTWblypfz99992/PRpHafq37o16+SuO++S7t27h4zLDUC3gvvz5s6V2267TeN9SVq3bi0tXm0hd9StK591+syEwXuv+5GZO7fBgq5hQ4YZPWWka5y5nOC8h3dyzjkf3I8S3nvvPaN9ZHv4iOG2SLDZK82kWbNmUqd2HenQtoNsWLvB0o56rx+ufnAELLCv9Xzy1EkjFzcipSjX2pIUZ3vc3+Nk7py555WNGzWoQqFALxwwK2ybOvAcdwMkRA0bNpIuXbrK77/3kEGDBstXX38thQoVlgMHD9n9cKJA+vtU48Zyc63a8urrr2kD1vvVYgkVp0FPuvsnTp6SpMmSS9eu3aRb99/l559+kQ8/+NDSmz5jZuA6je/okeMyefJUmTNrro6NA/dOmTZVvvnft8acf+LoSdm+ZYdAcULa+OfZum2b3XdALY2D+8Nk1449snnLVtm3d78cORQux8NPyML5i2Tf7v3B/BDcctmze6/xwXTr1l2+/+FH+fTTTrJpyxZ5+OFHZIvG473HD9dIQLzcbZWDlClTyastXtXha0IJV+uTekeeFqk1vG27ysspVsEfln79+8uAfgNl587ddixSnDd4iLU5lAgt+XRp09oqzPSZ0kvKVClthS0rMnFPwFBpizawZ55+RqpXryEffPS+DX0sxBBndNwEP232nNklc9ZMltYtt91ia5A24lNIH2jixInS6NFG0rVLF3nnnXfkzTffVME4IkMGD7HeZ7D+blPlAbvcpMkTLd6dO3bIIw89LMuWLpV/1JrC0nqoQQOZMG680RM899xzxp/yv2++kVq1a8vM6TPtPi9Sp04tSZMmkwyZM0jGDBmlQuUKxmrP8REjRjhX+bhWgZW6VRX/Qw8/ZK4yhg4ZKk8++aR2Qt8Ywz0W9YTx42XN2rUyZcoUmTtvrsyePdv/KjoKAl/KxuCPhu/dj/p3RhXK5q2bbf6AIQ0EzmwfP3pcGOisXb9WHn3sUTlyLFw+/uTj4H1w1toru5B/kdMEp7RLYJ4CvtrlS5fLZ59+JmvWrZHKEOPocOyLzl/InXfWla49usqfvXrK5CmTZdbsWdJYh2AoorZt20ja9OmMQS1ePFYe4PArnhw8dFCOn1RTV/8WL1lsRNePPfG4EVSPnzheat96i/ygSuWOO243YiTLj6dMTp48YWRNbCdOktiGTpIgQmreVFOmTZ/mXOX/XUt/wN2OB5OEdq+Y7QkTJbA6XLZimdSoUUO+/e5bHc6Wk4naARUpVsT4ZeEHqnfv3cH7/b/AXyxaKBHmTuL111+3uQ1oIz/86CMj8qWCVq5YKRUrVhQY3Xr2/NO5SyR5quQxfs1KIz129JjF2/mzzvLsc88aRy2ctyXLlJTdO/cYTd/UadOk9Zut5csvv5TVa1bJv//+a753jh4Jt/xgMUHXgFVFzwRQHFgYR48dlbx588pNN90s8eGm1ecqU7qMLZ6ETCdnzpyyAWsoCk6dPmXuF5hgtl6LR9JtCK737ttr1/i4fgDB0s0qA+UrlbcV+DAOQriF7ODhAbIlH+ci5pOy/IU67gZt7Pc/cL9NtPbo0UP+/ONP+d//vral/FgpNWvWlC+/+lI6dOgg77/3vowaftZbn3fCyxtA1GOwZP3yyy/StXtXad++ve0nTBigC9inDVev0l6lupSrUF6qVK4s/fr2tyEQjObxEwRYypl0Q4HAE0rjP3P6jCqaBKZkIE1KkyZNpDSj5iO4r3/uNhoEIQy6LeVPt2fOmiXVqlYL3uuHaye4dRcp8BdiOxXE4871wJUlC96J/Bs8BDllLxSgzQx13A1o7IzpM0jK1Ckkbbo09psseVI7d+JEwMdNgoTx5c6765qfEzhf8ewXoRYCx6PGRzC7xbOfWBs7mY6nAzU9IHXvvENq16otLZq3kKOHw80lBRZQfP1r+PAjZpoePXJEUqdKLcmSJZVDBw8G83Lm1GnZsWOHcd6OGjXSruONeCIUiyqGqGkHg6ZrQbcpE/c6fpMlTWrxwZ27Yc166dCmvSxZtEgaNnwkcK8frqlAnakNGvmY/gTPOdsW9Lp4XK11iyzt27svyL/M257gdTd4iLUhTwptpGht+6bEDQ6wBJhM5XuUY+HHjF2+9i23SNu2bWXH9u1aIc6FF0D40XD7otEdpgCGVvj+4e1S6rSpzBvfwAEDzHfwo48+Kj179bR7MmXKLLly5bbXumtWr5Z777tXfvrpR3OLyutsyKWxUkCixJfGQg83Lek2avioPP744zYZ26VrV8mfL79zhY/rFaccRkMsWj4P6N6tmwwcONBk0Z+YPYt4Bw4cONs6o8HaNeuk8ZNPye89fpcChQo4RyMDNxLJkiczMudESbRBEqt132IfuDHMyJo9a/AYymWR9t6wy8PhGhV8V1Lvnnvk6/99JeXKlzMFtWP7DmOuL1K8iH3MxtiWCt27d48c2H9AChUpZPGHh4XLnHlzJX3adObpLVmKZBYnedy0ebNUqVLZ5kNWr1htxwsVLSTLliyTbFkD+di+Y7sUL17chkm7d+0W3CoUK1HU8oAHgLCwMMmePXtwLoU5F5yF7du/z9xyMG+SL18+M5NhdPNx7eHQgTDzivDZ559LpSoV7ZgrS5myZJID+w6Ys6/MWTObrFLnzJNlyJBRlctJmTJlqrlfgZzcOs9Y65qvb8SaQjkHrkJxfqksm3yl8PlRMxEKRVM+IXCOQokOGj9zMOaqlEp1n4a0L4SLudYL55lcy8rvoa4/hFIoIeHKiFdWkF+VZ97sJUmWxOTAl4EA4k6vuo3U+TVlQqWQom7iQCs6ZXJR0Li8bGmWnpNmEI4wRCKPdhTbOdfGBM497kSUgfiA7tpSAFcAfVw3QEkE4W66MoJ8aeBDN4A8o0y4zlcmZxGjtzxu4dpmlHMXFfjzbJsvn/N8vhxINEqaUa8/c5YGAUuFT+jZd3/tGidd3jgF3yjFc85dRkCQCLbvxqd/cM3aludaP1yDwVNHyEqwLqOc8wb7csuzf+J4gFPYD4EQdxbKhaBaPwl+TS43BxqP20Mwp0LPwb77GxWuPx4fPrwIJSsxQaxY2f8hxPg7FBDqeJyGaHoJP/ghNsJVken/eLh6Fsqlwpm/8OHDx7WH2PtSNg6CJhnyuB/8EBvB5OsqyPV/OcTcQqHwbb2/sx/HwJ+yZfJMlAR9C8WHj2sWMeZD0X+hj8dhQHvwE+qcH/xwucF6Jw/fjh8uP8R8Utb+nXs8LoPBMhr6vB/8cDnBxCvEcT9cerj+JmX/63D0aJwhruO/URHb5Xot1lMM8nT9KZQzYo7JI8H9ShU4Dx1ccOg9B2JQKPalq/e+qHGAKMeOHjnqbCmipuHsW7xRofFEPc5HVnyAFyO4aenvrh27bL0S8a1ZtUYOHoB6M0p5xeD5b2hcRPl4640vaKkz+3BSD/PR5gXj0vNcv3rlauMdpt5Dytp54F1Yy/bCBYuC9Q7IY1T5Yt/SCgHyw7IX4N63YtlKI2CPSdlcVwplwdwFxlv7aKNH5eknn5Znn35Wvvvfd3I4LFAABmfSlg+VrCHxhN5KYtgcuXyDcI/bx296X/A6t5S8BeotOT3uLkA0ONdt2bRFDuw9YPszps2Qp558Sp584il54rEnpOXrLeXvUX/L6dOBRY7k0U2Pj/ISJoZCTKH38hwoiuBzOMJr8ExSDx8+Qr6GgyZBAvnkk09l88ZNdjwRtA/RPLOPKNDypGyDjdBb5x5QnviK4teuP33K6oyA7CVNniRQN9Hc7+LQwUPSqdNnsn37dqv3qHIVXcN3QVrH8SyheYC+9KsvvtRkA0IBVWmjRo2MqhK4cY0fN95W4j9w3wPyVqu3TQHxvPx+9OFH0vSVl+WRhxpK37597frly5ZJ23btdEijO8jgebIUMwrIIPEHcV2hPydNzxGjaVy3fp288OIL8vQzT0u9evXk73/+lpatWwavgU4y/Ei47NuzT+Jrw+KY940Rf1AzRqWdhIryYNjBwJ5ee+yo9jCez+n54zNr4j1xLPC5NQsc7Y/r9A8uUttySrVL1y4yfOQIOX3mjOzavVvWrlsrTz/dWF5q2lRy5cktn3z6ibRq1cryyz3ki7hwzUFcFr/uw1/a8eOOckCfn3RZRs8ygu3btls6dp0ef6rxk9Lps072vMeOH5XwY0cD53Xf4tZfyyu/N/of5eDUm/05ZXLq5Ckr2/iJ4p+tT/48ZWZO3bQ8kQd+6RCoE2TIlbHgn5OGK29euYPYnTo6FHbIFBHHTBb4c/JHG0AeCOfErX/IInQbh8OPyDfffiMNH20kKVKmkF5/9pIvvvzCGAzhUOa5oLlcs2attO/QXgoUyK9t6BlVNrOkXfu29rxdVV7HTxgvDz30kFSuUsmYEadMnir17qknBw7sl969e51tS9H8JeTkBeFcYxHF5PpYQCCdQHq2rZoxXvz4kip1Krmt7m2BixSFixSW+vfUl03rN0matGnk888/l9WrV0vCBAmNcvLV116TP3r0kM1btkibtu+qHSdGNfD1V19rw35Jev7Z0+gGcPcBi1vjpxrb76+//SYlS5SUFi2aS+o0qW0IARvdUtXWcLu89fZbUq5cORk5bJRs3rTJaBh69+4tGTJkkPfef09WrVplBNfs58+XT9NILJmzZJZb6txiFkf1mtWkVq1a8sTjj0ud2+rIXfXuksULl0j/Af1lnVY6eXjxxZeM0xSi5Hnz58uXX3whHTq8J2NGj5GBgwaaQKdIkUKf8VUpXrK4DB061J7j7XfflpMnT2oZBNYuYa1s1eenHKFU+ODDDyJbVDcgXDm2ZuBs79q+S37+6We58+67pHev3rJjx3ZrXLfecqs1ziefeDJAV6BWxNdf/k8yZ85sK+KxCjZs3CBhh8KkYqWK1klAE9nlty6qKBLJzBkzjI4U3p327dsZGRkkX5988okkTpzYcjFv7jyZ+r+pRp0BSfr9D95v5Orct2TpElMm5SuUNy4h6u6rzl8ZJeUKre82774r48aPMz6iunfdYc9StGhR+e677+ULlRmoQziHLPTq2ctoRj765CO7Lrlud/68s+zdtddYFl9743Wpf989ZnltWL9Bpk2bJtWqVTPXMJ2/6Cx317tbUqdNTZZDwmtgXdvQnNJAYFrzAv8o+VXbpkmX1ljt9+3bZz6CYLv/888/ZfHixVKqVCkZNXqk7Nq5y+6ZPn26bNy0UQoWLGiUDHCkvNvmXSNhaq4KZM/uPdJeTbzx48bJHI0fa6VJkyamNCDVafBQA2nbpq1q7YOyRe+lcjJmzGgFvm37NhkyZKjUrHmTZNBjTZ5vYkJGD2E8pFoRtv5DN0uXLSV169aVkSNHWgVCoJ0uTVr5+eefVZAftjyEHQ4zsxV+ldatWhsXx4QJE1To7pfvf/jelGG3rt3subBY4JixIZGmR0OZPmO6jBwxQnuh9tKmTRsT4NWr19j1PjygzFS2Bg0ZLH/2+EPe0IZ10003ybfffKsdShqToyGqsOkM4NsZOHCQKRQU9Zq1a+TTTz+1QCfCkCJVqtQyZswYGTJosDR9uamxBr7VurUULFDQXHVs2LBROnb8WOsjkXHs4NepRYsWUveOupYmw5jde3Yb2fv7739gRNkTxk+Q0aNHW3YhUu/Tp48quSekYKFClj+mAlyULVdWMmXOqJZNuJxmgkctHYZoO3fukCJFijhXiRQqWMh4X7Zs3arWxxkpXLiwPSNDqew5sstutXDwWFG9RnVZv269LFu67Jw5GS9i+No4cHHoc3EYoqSJlt26bau8/NIr0uQ5HfY89bR89/13xsKGpi1TqrS80uwVWbFihew/cECyZstqDaxshbKSNXNWGT58uJmREydOkgYNGpiZCW3kww8/JMVKFJN769eXqlWqyoMPPiiFtJJy5s6lPcByHd9uk+MnjlvvjtMy8rF8xXIVivU2rCpVvJTRTebOm9vIrWfOnGEVkjhRYmvANtbW/EcqQ0xa7XVgV9+sSmmrVijjaRTjlKlTTXlybPzYceaKA9Y55kLIMxYJpE5Lliw1Cwihs/hV6TJ+xs8QPoJIO03qtCYwv/36q4SrcMHmX6pUybP5uIGDI2CBfa0PFD4kW4899pjkyJVDbr/tdnMHs2vnTlPwc+fOlYRarngxoGwhsc6dK7e88+47ZpFSXxCVsw2/MJYAsoTnA9xvrF6zRq3OF6VM+TJG1N68eXMjDCN95jQyqgKoXbu2KbD9+/dJnnx55F21PnDzAsn7qTOnjXCdlfTkvbEOn2+++Wa1VI7Kbh1S586d22QKz4fBZzSh03/OcIlhFvLknk+aLJnlec+ePZIqZSqzemz4pefSp0sve/futU6MfQjaUXK2mt65P2q4fiwUxQmtpLRp05k7jse10lu+2VLGqRVR/957tYePkMFDhshDDR62ngGaRwqP4QkFCiXj1ClTjccWq+LWW+voePa0DS0oSJAgUUIjqYZfhULVErKKwOrBXIVwevSY0TJn9hx55OFHtLGm0ThOSS5VPMlTJrc4UDo2tlYkUMVjtJjO/JMXpI3ls2vXbilfrrwOw9bJER0Hz/l3jqVhVsj990nuPLnl2HGtZM0byuvg/oPy3LPPmfVCr7RTe5DTuO/QTiO+ajHSw3+RNg+buylVpqT8/MvP5jYEc7nJc00CfKg+zgENJ7k2sFKlS5nFQgOhd95/8IDUufVWWblqpWzcuFFmTJ9hwwDkBFl7/PEnpF/fftrJrLC6P4XyV8sjQfwEUkCtYMA8CfMQyBjAgsmRK7ukTJFSkiRNYo2VjodOgwlehrLTp86wjq9Xr16yZt1a2auNPrkeZ/IWRYDcJEqayDqMTZs2By0Rjp0jc85+apXP9TqUMejlW7ZsNuWYP38+Ux7BFxx6bqcq0ixZswTIy7QNQZN65PCRwPloEHOSaq4OcTyuQjwLlmjgmDbshKockujD16xZ3czRosWKaIVoAas1APP9P//8LdWrVVVT8kNpoD0DfLWHdchAHNVrVLN9uEDLlyun2jedKZuUyVMEhiL06io8R7VRW3qqoCCdJj3ykVAbavu2bXW8+Zl89lkn7V2aScHCBYJ5O3NK49B7VD8ZDSbHsSogzeY8ebDn4XoNKJspkybpkOpfefCBByR7tuySNElSeV0bPWl82ukTHRu3kXLly9r9J1VQiXu6jmn327DuS1Usz6hgplTzmAm7M/o88fQarVLNS7IkyVRpnZQ9O/dI0cJF5KuvvpB+/fpab8eckpuPGzWYfDni5R6Lr/VPfR/cf0Dr7oyd5y3c6RMnJWv2LFL39ttl0ICBMmnSRGn48MNW31gaZdUy/t///idPN24sx5kI13voiHC5kS5tGou7jA67ixQqLFs2bpJTOqRYsWyZ/Nn9D7MabSiv6UHYjs9v5JL97t27SVEdnnz37bfyxKOPmRyEYdHodbDFncBlqm4nT5pMChUoYOm6zxIMbvthIllD8eLF5IDKD6TuCOQqtXxSpUwhaVTB0XmRL64/rp3xiuXLpXjRYhYHnLr79++3ZzJ59qbhCdf24kBg+dR9fQg0Mf51eP3FMWs8Wih2Xn9z5chpngN//vFn+eCDD8wEZJ5hzuy5Op7MZJOfgwYPMjORSiNOpIbK0RisciGqZgxJfMzyM7lWqkwp807YqnUr6fpbV7nrrrukXbv2WrlhxjeLLx+GONzPZOjRo+GWp8LakHFbyes70uLV4I8//ig//vCjPNboMZvTeKHJC1K8VHHJlSunVK9e3SZ0u3XpZpbEU08+aU7Ymczl3l69eksO7clOnj4pP+hzvf/B+7J+7TpZuGShuRY5qooF8xcTll/mBOhB6eUG9R8kf/013HhvmdyzMrvBg4mXs41M0YiZwEyWPLlaJioaKiNYoAw1GGbg8fK7776zeRCGxNR15UqVzZEck5+vtmhh83LM3f3772w7T+dC/ClSpbAJdt6w9PjjD/mo40c23EEOsRBQKlyHVUM+qL8qGjcvAXDp27ZdWylTtqxNvE+ePEk7QbWuyaTKLZYSlvGihYuCzzLirxHy68+/ypLFS7Te/zLvh2tWr5H77r3Phu94Rez40cc2t3bHHXV1qJ1GXnnlFfnp55/k/fbvy7PaWTGvcnOtm836P3TooFkzNqxyyixUSNCyZcv3rGTPAwighw0bJvXr15f0GdKfa07FATAd+/XrJ3dor8BcCD0F41dIgpkDsMKMMmArXqKEjYH37N0j99//gI0xIRLmGHMNTITt2LFTTf8WNr61oYLKVcWKFexNTuJESSSN/hZVrcxQCMulaJGikitPLrn7rnpm8i1TrV2jZk159plnJFPWTMbonytXLptVZ5t5k0wZM0kx7QmKFytmQxkmc/PkzaNmcGI1W/dqBZ2xORd8PN97f30briRIFF8qVawsWVR5LFq0WO8vLs2bNbPyzpYjm2TMkEnH6FukXJmyZm7vVvO3QP4C8tqrr6lA3GEmdGHmfVQxlSxZUksjnhTT9FFSjJnJBz6WefbSpUvb3M2NDOQLD5C31qkj2bV8tW+y73cYSpRUOaJxYPUmVSu1bJkyNgTJlDGjNdxb69wq+bSDoc4Kq9XBfNamzZtU5u6Xxo2ftrd6nGeivoBaDilTp7Q0q1WtbhO5y5cHPBI++GADG8LwxqeMppEwcQJNM5E5bWe/AnKp6e3XoVKVylXk+eeeM2WGvGXOnEVK6zXkh5HOwUOHZODAAfL4E4+bEpylw3NeGRcqXFiyaJp0dsg1HVfNGjVNtpmneeGFF8ya59V33jx5pYjK8fZt2yRvvrw2H1lA08Oz5nDtjOhcUUQM0aJDvG3btjmmQPRYv3aDNHn+eRuLwyJ/JRRK2MHD9srus06dbBIL0PCwBM4L92ncPOo+TPRo744ff2yTZE8/29hOMY8BECTeiti8CdAKAqZw1LIIzKcE3pwkSBC4xs1HME+kG6pcoubHBWmgED338VqP8SrfOaAwEfLzxun8ohTd/PBMjMW92/arPR/XmX9o5/yNDOSr4SOP2LcWFSqVd446oFwJWv7e8vTW1QWh15pMaSfodnxYDsx/uB+Y2YdsnrRCwpUT4Emft0DGeKjHkBeUCI2dzuXZ55+1Y9601G4JWe8mc67ch4LejgeAJ596Slq3aiU1b7rpvG0wuse4JmEN7EKgwL2Vrtt8GPZRx47mSRAn6S4oYLeQacgUroF0NHDOBAJoPBQ8hekWqFtZBifNSMdCAAVEsOsdxeXCrVhcoJo168A+4/bCOYfCI5/eCmZi1gX555nsGfUeTrnP6yMygnVPnVC+ThlHKi9PnQSh11PnfDofCXqt1afnHlMgzq+77U0LuJ1cEMiipuHKjJtPvmty5Ye4+BThrbfekqE6kkABWPx63k3LniOEaHqViaXhgcmyRsP3VVjbN9V2lImTbihE30TP1y7O32biDp6Cvxjw2u6vEcOkTfs2kRpfJGjcITV19CVkFRVVyVlFesGu5xDpB/MQKm73es999hl3VOi5UMohan5CPpOPcxAsJ7f8nLK/IPR66tzerIRCTOLxXBNS4WsarsxEyifBc2/ZcuVs2MPwzOA+i4sL5CVq2zBZ1rb+wAMP2NxP0GtE1Hg9iDEfCrkJdTwuwxVLU1MKeTwm4VLvde+L7v7LyVOoENvx/RcCZfJfKRd9Dhq6ffqQGJe9Ia65lKDRZsmeVZKnTCEJVJmFvMYTzqNrfFyXiEmP6OO/jasoAzF7bRzQf6qC0EJRzsVlcP9CnfODHy4zIM+EUOeuy3A6xLErHHwLxYeP/wqugdYcIwtF/7OLQ52Ly3A10vTDjRN8+Yr9EOPFgfp/iONxG/5zJqkfrqngK5TYD/6Qx4cPH7GGmDG26R8zx979K/HnTZMv/+wPTej8BY/F5C/UfWecX/1jNbH3mvP92bXePzceT3zn/YvmOhZgefej/rHS07sf8i9E3JHKSZ/R8h/TvEb3p/efUw7XyF9M5cLki7VgV/oPOXPDf+zvurFQ+OiGrwjh+gCRvigMHDo/9Br3HvuAh3ucp+dL1OPHj5mAGc4X3xmxRYP2ZaRuI7x8sUrcfGp9IYQfDrfr+CqRe4PQTT5qOn0iyueKHrgUCdGCLxj1mewDJE/U7gdL7teWfIl72TWv91s81wr02Xk+6iXqB1rXAqhX90tUaCtYmxaUt/N8eXq94bpRKICFdb179ZIfvvtRfvn5VyPRnTF95tmKOQ+gApg/d/7ZhubcM+7vcdLhvQ6SOGFiWbxwsQwfNiJSY4wEPa6dinzy8ccyfvx4K71j4UdNEbBWpkOHDjL+Hz0ezf0IFAvSpk6baitUWZb+2y9dpMuvXeW3X7vIj9//JL91+U327Nrr3HEuzvkM34EpEac2/xo+3KgtwbDBw6y8vv/2e+natav8O/NfU2qRlNlloE+vvjKg7wBn7yrCqc/wo+GBjWsMsKv99dcwW0PUufPnRqYV7BSvIb18ubhuFAoNhqXYP/34kxw5ctio7VhR2aF9B+netbtzVfSAlInVtzR2b2M6FBZmy7ohJp49+18ZNHBg9KWiFc8am4ceeVhKlCxheaKR7ty+0+5p2LChFC9R3Ln4XNBzwne7b99+OQoZsWqngwcOGPnvhAnjZffuXRKm+YEr5RxolnG3gDCGAkvYXezYscOIgHjOXr17WzkxnFq5coW89/77xnAH7aBbDm7PeVHQXhUqRHhA3v/wAyN+uppgxe38BfNl8ODBzpFrC3DOQhZNncO0B/9s8DP7a02hXEZfk+C1114LTV/giRT6ghEjhhtBrZEHXQEcP3bC+FthyoI1Kn78+EaVOHPWTON2qFSxktx1z122NPurr76Su+682+j6Ro8YbWTSs2fONr6U7Fmza0OOZ/5KYOOC92HJosUycMAg2b1rty0NX7JksTR6tJEs1uOQPD/4wIOmZJZqxbPMvVuXbrJx0ybJnDGTrZOYP3eeMaNB4ItCQQkUK1bcKP6gEUibPq2sXL7SeqV/xvxji7Vy5shpLF5YNqlSppT7HrxPqlStItVqVJOpU6ZJ9WrV5dXXX5MaNasbZ+fQIUNl2BDt0VTwcuXMbTwdnTt3NoLqtKnT2rL5ZUuXS9/efcx9xh59liJFiwi0C7jsgAKyWvWq8tewv+Suu+6U55o8J7dqWd5Su7YRGg8dOkQeuO9+iwMqy+zZcphg/zvrXyMnZok8vem4sePUKuwj89S6Yyl9+rTprTxZpEY5R2hLLl68uPGNVqpU2RTuhnUbZeb0GbJ29Vrj79iwboOULF1Sxo8drxbgcEmePIVkzpLJeuhVK1eppdlPZs+YZY0Nqk7iHzp4qLGZQUqO4v579N+SJHESu2bK5ClGT/inWmGTJk6SHJp3iLTgKoEPJ3XK1FYW54PJ16CBVh7QYwCGJbic6N2zt8ybM08V/B7jXMWiG/vPWNm6ZZv07dPPVq6XKVXG6Bi70ZlpnnLnymP1tnDhQhnQb4DRfaBk4U2hTqZpHafQ5y5RsqSMHDlCbrv9Ntm4IcD+hqwNHjRE9qkFnj9ffqsz5AYe2oyZMlpbxLqGYHrmzFmSNk1ao0Ygv/DcJk+aXKZMmmJlBPug3aPYunmrPcuIESNk+9btWk8l9NgWmTljpuRWmYLKkVXLPTXeJIkSS4b0eh/K7TIUSowJlkgk1PG4DCRqf+zrH/MncKbiagCLgtWQ6dOntzkJ2LaWLFpqBEbwTiBwLVu1MkXA/bCsbdUeAvb65i1amBKAAAcCZ+gLgmk6zwk5dYvmLYx/tlDhQvLH7z3kn3/+sUm8br93t/MZMmawhg53BOxu8LZiDezfu9+YzyHKgdOiS5cuMnnKZIuXoVFip2G4AZId+FlY2MezQGo8duxYKVqsqA6BukinTp8KLP48E/wopAd5NUMviIXhc4Fsu78KMvElTZbUKpdtK0P9ZW4BJZg9Z3Z59513jdsCou5pOvyCd4bpedKmQdFImXDtoXH20WFl7Vq1jATo5VdeCfaypE8escruvvtumT5zhja8I6okzsi6dWulbft25uIELhjq5OWXXjaKQVyhwNKOkkDJw6a+Z/duI/T+ovMX0rdfX5vwHa714nLlEihDKAlpJJACffvtd5I5UyZZMH++fPb5Z6bIc+bMpccyG/eMe9/5QqCMAuVE2L5zu3zw/geSI2cOq/MBOjyFoGrvvr3yaadONtzOq3EP/+svef6FJmZtZtD6YJXv1m1b5PjJ41onn8gBo4ysY2TjUEN60yQgY/DmzJs3z/zdTFYFmVoVZzvdfv2N102mIL7G+ub6cf+Mk9atW9vKd5RMy5Yt7Ri0kl9qmUHulDxFciP6euP1N0z+sJrZpp5qVK+hirCvfPZpJ5NJOqbVa1Zb3DD4Uf/GWuiSlV1GuG6GPACym6PHj6lWHqIN/E/54fvvpW3btkYqg+WUv0A+Fa7P5ZZba8udd94pBQsUMOsDQPwLy9UM1c4cp1KwuCCbicQV4IBrYeqCNKf+vfXlsccf04qfbBodWke4PytUqGis8zffXEuSpQy4pUimjZleopMK4HPPP2eVWbJUSevpESSbjAsB9/joUWPk8JEj8sFHH8h9D9xnAjN/3nxrTJA2EXf5ChXMCvpYFcozzzxrz4DLEOghmfA7HIL3Mzgk0jzkyp3bFAQ9MKRRBI5jgiO0WHqQQNF7Qk8JYRPlkDZ1Ghk5aqQpp5VqWRzRfN50800WDuzfL5O0fJiohTMGWkJY+hs91kjy5MkjR48e1aHiQ+YFAMBAxxxYiRIlpF2HdtLw0UesjCGCxnqAahCyIQA3LgrXBXHfeustUv+++vL8c8/L5k2b7RmKFClsBFMQSF0seKYjaokwwU4ZoBCwPmH5oxGmSJbc6vPhhg/L7XfcYUTUjz/5uDlvy5I5i1mklClDQJjPSpUqbc82Qq1HL4wYTIHSgGYRhftmyzfsObg+Y4aM8mCDB+U53Yc4+ujho/Jrl9+kSpUq5pHh2eefkTp1brMOCjIo5BCGe9yzwG2L0oanGLcc1CeET3DPNmzUyOQXFxiw3sPFDCZOmiRZVAnbdIDbDM5tDjFGzDhlVdpIQxXYuefiMkRJE87UCDWTN6h5vUs1K5ytrd5sKU9qQaJh161ZJ59rQ36n9dvS888/jR4RvlXuPX5Mf/U5jmojyJk9h1o3kCXFl6xZshhnaCA9h2dUfzHHYe5Kiw8S3U+l5rcxgquZyLDntFo33ONeD7cnFgb5PaaN59dfflULp7n8or3U2rVrA9fp9QmhmDxxwrbdgDIx9yC6HRZ2UC2RtGp+ZrD9tLoN89Ym5kT0GY30Sa89dOCQxf2aWlvdVPAXLVho55ImSWz6kaGIxW8IpGO8t7p9UBs/CiOF9mrwgya2hhs4H1/LmPysV+sAou8/evwhrVT5vqUWF2XI8yGogwcPklOnT2kefpE/uveQBPrwM1Shkc6xY+GSL38+G9a4/KPWyPWXZ4d7JuzQIdm2ZYu5DbF8asiRI7tx7O7du0cFE1uUbAV6PfJL2aFoGI6VL18+cE4fFh7YMO2tyRvcu7bhxHm+4JWtRKpwCxYsIM88/Yz00qEU/LDt2rWV4+HHzApMlzatFCtS1DoTuFvhJea+JEkT6xAjg+UBLl8m2mHF+1XrhuGFPQNzVaSnm/AW88v1J0+dkKzamDOpEoH9LY3KWt58eaws06dPZ89JmVPfeXLltnlD4smdM6cpm7ADAcZ8hkkcRzbTpE5tMrRwwQJVcivknXfelldfayF91LoiTYZvUIJOGDdejoaFy1wdtt19111mFRIHcszvpYboLRQriWhwvnNxCOYz0mrFvqWF9Mabb0rzV5vLrbffKmnSp7GK7dK1i+zYtVPatGtjDO9ptVKgvmPSkUqKpyFT5sxm7sdTZYLZvWvP7kAPrW0tSZKkWiZaMPp8eF9DqBkOAYZHNFL24eQ09nGEQ+NJpD0yyuQ4rwO10eM7Ze68OdKmTVt5veXrRgB8hLcPTrmhCF2guBjynDoTeOVcrEgxy58pQgWKhuFUGn1ue7WtYLg3WYcl9C5NmzaVN1q94XB9qsLRuMkPDRCwnTB+gAWO85TFsOHDrIfMnzef8fQeOHTA8oF1sXH9RitnaCPp/d548w0bsvz8688ycsxIafJSE9m9c5fMnjXbuHXTqcLDcmR7kuZnz+69kjJ5Smv8WBrkJ74qIHpeQHqcQynT6+4/uN+Og716LxSf5JnrwlX5U0fUoXm/0zLiuD6JFmWgMKk7en0aOnWUDCV5ieD5Gzz0oAwYNFBav91ah9BL5Pc/elh+XDlAmfJMrqeEk5ruqZOnJVOWzDY8ZBjY/JXmNuTFrYoNJVQ2kCssH8qC50BOmPsweXNaIfLpvkKmrvD+yFxYXhjpddiVTC0zcACiaq3fk6rQYeBLiCtbBRYS6VHfyCX8tv/76mvp8msXfaYB0rN3T62HDOagjvJnAhv5v+2O24Myebmv3GM+h6IIdTwuQ6BjPbt/mLc79JKBnJtgBc+rhmXSjgaIS4E//vxDhXCrjBg5wjz7mQtFLWwoLKdOnSoTx0+wMSxvdXjVyPwMZjuNmfh4+wLLt30ApvtU0GFcTeofDc4cKGl8vK1ZtHiRHD502CrTnQ/Zs2uPvWn55++xsnzlcmuAi+YvsgYB+bF9GIZFoPHSuOOpVJEOnJ44Xu/+++/myQ6CYiYN8+XNa1YLk6/MIxAHecDEZTyNCT554mRZMH+Bud0gn8QHiTZ8pyuWBfJAr4spjztXhmkMZ5jLWLp4qfZWc2XKlClGsg3PKWTW3bt1l7Xr15np/kzjZ+2VNt4NGWK+0vRlafhIQ3mkYUN5udnL9uaLuSYrP7VAmKdiohJicfLK8WRqpvOLIsBzAY12zMgx9gaL+ZMa1atLugzpbCJ+2F/DTOAhFt+tVgtzTyg5LECsHOKhUTFPwPCUuaPVWg47t+20cxcKJtNOORF45f/mG2/a3AjzVcxVkW+Ga5QpDZbr6FDsXuLQf1i6KDSsO4aByCkT3wyDNqgMzJk1x2SFOOikTkCCrn+uPLsyhsztQ+Z0m3JDDk6r8ql7+x02XHFliNfPhXXYkhZGfcsIHdMZ69B4a4k81dZhOLIxfsIEWbNmjVqZrbUufzeFlip1SqlcpbL8oB0FvqzYxxUp6V5uSNCixasXJKlmtnrEyJHaC92tJvgVesujjXbQoMHmBjKzChc4fOiIfVRW8+aath8JqmXQ4PRkvH3Jn6+ANGz4qDVqJm4ZB1QoV8EceqHB/+z5pyqCJRY/Y37cm+7fd0BN38RG7Lx3zz5jj8fxEhXGNzDHtKIqV6piCgryYV4RJ9VeBlZxZt25rmSpUlKxQkVrxLzRQSm98867ZqLSK9CzZdFhForNxtPaI63URkBvgg8XlqCjVP6d/a8M1OfPoHlnTJ5Jx+mksXz5clm6dKncW/9ejfuA/P3PP3JABfH111+3SdVjWm7En0aHEsy5oCiY7/hn7D+mQJNpfp9/voncefedljZ+jvDTM3DQII0/kzH8Q7JdrmJ5KVu6nOWbb2dw3wpRMuP8sTr+hikd96cGp4elYWzbus0mNPFlVLNmTUmiCoSJcBonhMk0pk061Lnp5pttgpg3CyNHjlJFNlWqVasuzzz7rJF9p9N88cZkzKgxFg9kzHiATKZluHPHTnujRP6PqSWH3+jqVatLthw5ZIHe8++cOVKnTp1ApqIB8jVk8BC5uVatwFserbvcefLKCh0m4B2AOmVu5IUXX7S3TVv1uZinYl5nsw5lkqqsMeEOUBwo03LlK5izr7+1E0EJ4cMayy8x7jRUQUGUnk+HJ5s2bjIZw0sBb35o3IB486nVWLhYEb0nqb1Q4LnwuIC/qAH9B5hL2rvvrmcuc7X9yto1a6WilkWmjJlNaTGRXbtWbSlRuoSRmI8cNcoc3GEdofxxJoaVSocwdOgwefGlFyVb1sAbvthAvLVr12m2zg/MYIQaF4n5CuSLtcTPhzDt8Z94/An56MMPpVTZUnaMiTMmZVOnCZibXvAKjaEAk6Z4bUuR2qHBc0DFMkdgVH36xIcOhdlEm5mj2ojdScvdO3Ybmz3x7dThEyY4ZMDscy0mL99foOmTJkti/mdRDNZzas/F7L2RBysO7D1gcyDcZ/lT0xSH2rwCdydxAcMEhg5mVmvZ2jBIt3ndnDZDWhMAM0W1ATGTz0d4PCs4uO+gDfmsl9JejePkyU3j0MHA26yk2rszgcwrWZ4hKngmzpNHtbaD6VneNT/0fslTJbehE1Ycwxb2DUiQ5pt8Uvak55YPYGIR682tE+Z/mBy059L4qQssFoaQrnKyODXQ8DHpsezM5NfzPB9xuffvUWWfMWMGyzemOw7RLmS6I1+Nn3xK2nVob76PeC73y1/KNIlaO27+GXYdDDskGTJqx6RAxsiryZKmyTc9DLXc663etd6C0OdAwSRKkMgsK95SumXNGxksMsqPTswcf6n88GzMC7nlFIgGKyBANm3Prs9IWaKwksJEr3Fs37bDvGEGn1/TRo5SqzXjPh/t6Meff5J5c+bKt99/p8pah/yBU5eNeGvWrKXqzouN6zdJs2avmNPuK6lQcE794YcfWK/pw0dswhTKU09J+/YdpKzjVeGSQOu5Au3hHERNN4b5QDlize7avcvcnJYuXeaCyvdi4PYHPnz4+C8CRUPA2tTAfOFjTzwmn37yqZQpG7vKBPgKxYeP/zKwWgi0dA04tKtapZrkKxg3I42Le8vDX4hzcRUsxRDH/eCH2Agm0yGOX1S4WjIaNd2Y5kP/7A3pab47CvyGvO4Sg2+h+PBxI0Jbvg13YlkDxJxgSeHdvyJ/jknmOeL/+X+x9ufLVuz/+RaKDx8+Yg3X9peyVyFNP9w4weSLvxDn/HBpIWYKRf+c0g99Pg6C/hfj9ALrVK5MIK0Tx07Y+3wCH5MR3M+nYzXwXHH9bHGR7+sg6H+OTIc+HxchKKdXUF6vdPhPDHn4WvJKgbTwdM8XqQRIagixApVxlFQQRPufqCEfANnha97/cp3GeMhjf6GOx2EAuhXy3BUPF+pV3HzS47sh6jXnCxo/CxRRUiz0CnlNbAb3ea6V8r0awZ4dI8VzLI6Ca53AmXDe+r3OLcbrVlfu2LbT1kHYGpsrgMGDBtuaiPVr1suq5atkxbIVkcLe3ftsvUvwQ6KLhdYElJcsroO6gF9W4BLYjm3s2rnL1hX5uDKALnLBvIW2noyV2/v2nKVtiBM4I7orjegVyvkydDUy60lz8YLF0qhRQ2nTpo0tW4+KwCKxwA1sb9u8TXr+EWCBB3YO09MFu1rRLtx7XZw8ftK4VjZu3CQ//PiDdP7iC1sHAQ9tu3btpfPnnY0uEZpGM2m53aNUZs2cLcuWLHf2zsKutQ0xAevxew9VlDtk1erVRqsIneCXX3wpr7/2urzx2puycP6iyEMiB8H86k8wzmjAtSP/Gim333G7pRc4eO4zR4qHU86+9zjlYvd5b/Vscz4SPPHw68Y1YtgIW7F7NXGhcjsHznNah+bc65WhqJg6eYrMmwcb3XHtnAbJ/v37nDMO3HLzlqWLUNF6r3O2g7LB9aHiUYTMYzTXXgp0yKPxXSAEEowX8lxchkhpkg1nG1LmcuXKy969+4x3hGOnT2JGilotB8wdBqTJJ48FJk1HjR4tgwYOVutigxw6cNjoB/nGheuPHjkmGzdsEvhO2N+1Y7f8/fc/qrSWyIljkCqJHFMhgMqApesffviRcXg2a9ZCcmTLKd9/971888238trrr8vJ06eNWwRW82NGFXnG0sSFBZQKp46fDuZx4rhJMn/+fMsjxwje502YIJF0VIXyhSqUzp2/kNJlykjrt1rLokWL1WSOsHySBqtOERIWcB4ND/gW4vzqlWvln9FjZdOGzcE4CVz7z7hxcs899Y3LFEoIygIi5f17DshuLU8IqfEAYOdU/haoIlu1arWVB/ETz8H9h/T+qbYSXXctH5BabzcuEt3X++Cl3bAOTl9WxR6WgwcOyZ49+2TalOlGFUFclAXcLxMmTLRtN59XInjL230u8rlo/mKVoSUqW/vsGM9NuYSHHZXZs+bIqhXwsUIItd+oEqDc5HkDpF2ntfNYIRPHT5Kd23YFZYgkKGhLSxNLkjip1eH2rTuN/HrypCnBstq8cYssWbz07L1O3qxeNH1cqRANaSJfDKF2bd8ty5evMHk6cUIVPfdpIK/ImisHrOzeummbdgSB84Qtm7bas7ryeTkhwSvNmkXPh6IPAg4eOGgsZHXr1g0sxwfOubgCJEYwpteuXUsyZ8nsHA0sDe/8ZWfjKz148KAR2FSqVMkoBOCZgFMWomgY55cuXSawn//000+ye/duyZw1symTjh99JPW1QSVOkthIa+ABvfe+e2WJClHTl5oaUQ6cH5BS31LrFou7X//+Uk+thizZshjRzoED+43DA65VlpjDUfL5Z5/L1KlTZMGCBaqU/payZcrK2nXrZNSoURJ+9KgULFRIK2+LPN8kwKsKzyzcnjfVvNmW99vz1qpl1APDhg6T5557VlKmSWnrL8qWLWNs9Nu37zBOUKj9MmXKbKxgkDR1aNfB2M459qUqPJjODx06KL/88osROBfIm1+VRnwjD8JnDz6EcDsBKVXBwgWtp/3uh++NuhJOD4iqef6du3bJv7NnG8N99uw5jC0d1vn27dvL3n17ZPCQIXp+jnFwLFy00DwQwCSfOGliWbd2neUF/o6BgwbI76o48Eczftx46dqtq/GrwLMCy/uJkyeNMwUaSKweFFxcAvmCmf6mm26WrFqnNM4AuXhLI6tat36dlV3uXAHWNQjL52l5rVyx0ig3d+/ZI2tUySInfXr3MQ7jRIkSG1Pg5EmTjQenW9duUqx4ceNbgZ8X+gUIrUaOHCm1b6kto0eNlg8/+MA6v2XLl0m37l2NZnS+yk+/vv1l4cIFcmudW1UZbJIW2oEtW7bMwugxY6REsRJGXPXcc88ZP8yWLVuMkArGONjzYLvDwp0wcaK132+/+9Y8FsD9Aw9ztapVTa4Y9r7S7BUpofmknYWitrgYxIxTVv8Fqjfq8bgMpBmZ9/OMWhuwrRXMV0BKlS5pggtrO3MOTAgNGjhIjocfVYvhG/mk48da4AmMqOe2OrcZu9Vjjz0qKVOkMG5Nex69h/hRTMx/JE6cSN55+21p36GdvPdeB+1tt+nwY5VdB9NW0iRJA/Mk3Kd/iRIk0PjgBImQv0eN0d7/tHyraf/v66/NZQdK+BZViBAeNWz4iBRRhcK97du0tTTa6u82bbzLli5x4rRMWYBvFIY5jjOBym+F8uVljo7F4cSAdyShKhL3PHyyCNg+FfT58+ZJu7ZtpF37trZUvU/v3nI4LEwVY4Q23mHakCtJ9qzZpGqVKjJmzGizWuA0PXTggOW706efSvt2bWXpkiWSVoWuw3vtrTOZNm2KccF279ZN7qt/r3z0wYfytVpQWzZvlrVr1mh+Elgcp9WaI09wphw7dtR4fOFmhRyq/j33yJdffiG5c+dSK2CRVKpYUfLlyycNH3lYO4YK9jw2DtffuA2RZRqeWBjgd2zbLi+88IINp6nHnDlyGG8OXLiwoH3a6WNT+oP6D7A67dC2nT0jzxJP46l7R135qONHVmZw1Pb4vbtaDScCcuzULYG6hfMG4qMmTZ43qzdd6rTmouXlpk3l1RYtjGWPe+EO5lrqhbJLliSJjFalRL6p81Na3k8/21iaN2tmnQTPsHrlKlV+K+TD99+Xt999S556/Enp2aun5MMjgKZNp0u94+UgQ7r0xs5HXJHL6OLDdTMpy8PzenbAgP7mvmLunLlGn4e/Xxour+R27dppDGsQyZQsU9KY4+GGpSdlfiMgO9pYtTFidRj0B8GHkxZm/C1bt8hXnb+SgSowgDEv10Koc/r0KVNGBo0HKkAY6sG6DevNzw5kN+STnmi0WiaapJEcwwHKGxyIh7EAPu/U2egpMUFhKU+eHGpEOGHPqJDhifCs4y7LqTOECFBUntFeXA+4x0+qmXv8uFEgTp8xw1xV/Prrr9L23bamQGCY26djdpj3Zs2cZWRGC7T3g4gINrfl2jsSD+RQMImRIEQ/MIzBGAby5smj5RDf/BjhK+j222+31+eZs2WWrFmzyqTJAdcbLk0ieYZlzIiekic3HtU7VSnBGIZFVbBAIYuLOKBC3K+KCCvB4FTNlQR1VqxYUalSraq8+NIL8lmnTuacK1eeXGo9nTA2u+o1qpslh8sKGNrSpEsjGdQqhLke6kUsGTheIUj/+YefzUoxly9azjwzZeEGZIp6hLmvcJHCJr+Ud7Xq1UwWs6lVg/cBZHX9hg1So0aNgCtaLZtbbrnFLCjaMCBfgHqApJp0URSw5uEyA+t1wsQJ5l8Loioc1U2eNMnaCX6MiuuzWHOIBW0Q8y9lncZ4RYNm0N2GaQwHRZu3bDb2K0z6KWpa4rYCcmTGkfi8ocAxmbkHTk7jcNXaovFzjEhxAHZKrQnuoYHSsNjG/OzXr5/UUquiRs0aRtHnVTxuXtwA3G1cTJCOu28sZ3CP0jVxKfdrvn786Ufp1buX3HRzTeNPhY8Uti3GvZAfYyVB5ZgoUUJjgQu+YtR4pk2fJjffdJPtI+Sc5/jJUzrWtgri7c1OI4S+u149G47hRuGH73+QXDlzyVQdou3Zu8d4T/E3g8WA8oJmEWpN8oiycZ/B+3w0AvhzoSxkrgCuWjung3WKiLwD12QmX1gulCHmN5FT7uSTvyQ63CS/VleqiGCUwwqwOPlz0o3LQPq6cfaY5vmdd96xSXZYz2iIE8dPtHLmGbFSA//iBcpJn928KWg8+OtBPj/v9LnRfNKxQXqOrCJDyAMBa4KysvS4kX9u+lH2UUTIKc7sTmkdw7SGPDAsgrYTjloY7VwHaAQre/2FYY5O4Z7696giv9P8H3319ZfG6VtVh5qwEU6ZPNWGS/V0SGqpO3FcTriuLBS85lUoX8F83uDLpf377eXTTzvJnDlzzNUEcwtwgR5UTcxcS8s3W9qwBYGApxRhyJE9u7nqpFdE+8MrSuPE8xzkvqVLlZZy5cvZfAzuHJYuW2ICEFQsQDcpPC9IG4sEUmPGpXB/QmBjllX8eMb7yh1b1DpB2CqWr2jzGdAXbtAe6PiJYyZApEUgL64lxbzPV198JbNUYOveqb289opYUwsXLLQGyZwEbloBvKyUBWY67OY0ZpQI8TB2f+7Z53Qo1E7e1obz/vvvybtt3pUZatWgZAINJ3qRoDFkypJJh26FVfHikEtk/dr1Zi1mz5ZdsmfPZpy+B3DvoOf69e9n98HcjhWIInKB8kcRkhxWHc+KtXI1sXLZSvlbFW3Z8mWl8TONbZ6DzgorGGXIvI5ZF/rrdl78uh4LFi9ZbHNHjzzyiKTPmN5cy+L7CHnj2aNaKOcDSoLyRuFjDZo7WbWQVfDMqsiTN+BcDqsZxRIVDI+x4OGorVqjqs0h7ty5y+o4e67sUqZ0Gfnhu+9tOO56TowNXPtreRzNSYGgOKgs9xghm5p5sKdPmTxZ7n/gfnO3SCPhjQik0Di1qqe9NaBRZlXztGrVqoLXvd9++VWVR3lJrT2KS4LM25gXmrwgi1Q4mGgbMmSozJ+/gIxYcNMlePfr3VPPyIRxn0BgaPTiCy+a8EGY3L9ff5vjubX2LSYQTV58QZYsWWLzOngn3LJ5q/UehPgqpAwdiIdJYpySYV107NjRHDKRHkOTUWNGS3sdwyM4KDRcOpQuW8q8+X33/ffWKzEXwMQnZN2YzhAtm1WhDVlzLqVKljL+1LXr1pqwYTlEej7+dJshVsrUqWz/gQcfMJetLd980ybBefZbbr1VMmXKZK423+vQQb7+6itzF8vclc0FafuhCblxozRpWGxXrlzJlA8uVIMf3F2BAPhx91Pp82Ghtmj2qrypndGypcvkgQceMGWAhWwdiVoxTG5j1XIPny0kV+V9Sp/n9ttutzm7V7TcP3j/Q3v1j96YMGFCoFPzBEs/kIVg+rbtlDchiVqukHBXrFTJrM7Wrd9SuX7LCMjvu+9eG2JBwM5wPBiH/QvIx2233SZt3m0jrzR9RTp+1NFY9c2iVUsHV6gMm8pr55lYFbl7/+WGeIsXL3EeKwo4igQoNm3cLC3feFM+V+HJky9P4KBzLq7AK8vnn3/e3D6UKFVCIAbes2e3aVQmsry21cZ1G+03T/5A3nDDiLAi4FxHLw4bOL558F+DgGxWCyRVmtRmxmIe5sGHiloT9Cb0SIWKFrK4joUfs96bBsAcBa4giZNvLGCEx/UlZMOUh3v/wYOHhLdLLikwWL1itTVcmNQxN5kAs3sTJ7ChGc9EfGnU8mAuYvv2baYocGyFLyLY6fGN7I0TUmMAeTLEylgCzMUwH0C+USKkx5s5TONI5QecMuS1ORZEUr03RfIA8TTXYA5n1DIkXeYC8AuUIVOGAOG25puP/CA/xuexa12wzmmHDrtQJDQ0XDkwN0CZkj+Gd/weUivGu8+bJN6CpYew+QoA+XrhhSby9tvvmBJ2wbPNX7gg6FCMeRLkZ/++ffbsAP9BDDuyqbVLY8YiRDZ4i8Nz0vnhzpS5I3PqpjgaftRkhPrFCySyiX8dzlMnuHmhTABligXD8JWyM6tG6zSqnCNvxIU3BCt/1dvsc4/VsabHZxU7du6wzs7mYBxMGDdBfvzhR/npl58lPZ4sPO3pcnDdKBTyQy9JwYaEJ792rfbCbuNDINh2f0MBE92s0Cin3YlCOxzlvDe+88XtwtI4X8U5z3DB61xwPYiarB5X+dTxNiZzQLDAecvvQtA8IfTeZ4wunzbMc9Oh/NxboubTg8DQUO+5xOxdLKJTKDGC+0zneZ5g2XCt+wt0OyayAs4pX08cQbjxR4UjS5Ggx5gr6/HHHzJm9Ghp1KiRuT0933NcLK79tTzuvv5hdnrPRwr8qRJxt6kI9xzlZb+eY5FMa93WjcD9bnDO2aSqBkxF+3Pv0eCNL1Jeo8ThBosnyjE3IGT2p9saU+Tz3rx6g3sd573X6B9pmUsMN9/6Fyw/b/6i/kYJfH3p5o3nZVLQ9vX66J4nUj15/zzXWCBNjYv47J5Q18RhsDq7UJqe8uHZbZJc/+iwbNtz3ntfsGz45Ry/zrFIcniecE75ss8f8RGoB+81Th7c1e9WT+45J0BSzWcWTzVuLPfrcE6PnnPN5QR9tP8Q0ByuFleg4Q2hntJ7jG03EEcojY38BWQwJBCSIKKLw5O3qDjnfnCe/NOjG/RaxtLnXBMirWB56D0Inbsd6TcKGNpY3jhPMtrw2adBuWCYwLAt5PORP2t4uh31PHFqXMFnjyYPVwWesnJ/Gd4Q2CbP7rZ7Plqc7xyITq5cmXPy4q0/C9SDKo0g9BjXmHXoKdfgNXqeIXvTZk2l3j13B47FMphCOJvB/0LgraWzbZyZ3nOXE6gcQqhzMQ0Xm5/zXI/ryFDbwRDiXm95JEiiO55zMQqe++Mn1P+cbeIyx2XR5Jf8WdrRnL8mQ6i8Rn2G2Hqe6OTKlTknnSAHrOcabz0QQsl8pGs852O1fTjhGn/Lo4F/Ic75wQ+XG66GTP/XA/rOhw8fPmIFMbJQ9D+7WPfOORengTRDHfeDH2IhOAJ2znE/XHrwLRQfPnzEGmI4h6JXotDPOR6HwboPkvUc84MfYiu48nWl5fo/HlShuIV6/sAUbqjjcRkk4sqn6YcbKAQVih9iK/hDHh8+fMQarvHXxpHT5MvEUydOWeBLQPaNDk/P8fGOfSHobHvv8341yBoc94tC9+vSsEOHZfjQ4bJnN3SSERIeFh7kSyVOS0+3Wadi97n3uvF4gvuV4vmuOV+AQW7dGrgunGfSZ/Smy/bSxUtl4fyFgWMxjf8i83EjBJOvGAyp7YvYEMfdEKyfKGVssuZsL10UqDPimjB2gq3tsXPICL/cS3D3nXPnpO29xkkvVP4iySGBezSYLLvXcF+odC8jXDcWCiTO7777jrz11lvyaotX5ZnGz0jTl17S/dby2y+/2RoFd/1I8MtLBZynu3fuDh5LmPjs2paASIktevv1t1+NNxSW+ZdfftlWmxI/K3bfevttmThpoi3YQkgMxOdG4AF5cL8iNSqCU6dNMUSC58tH95z7C20iDHJu3HyZ6i684xq2Dx06JGtWr7FjWofnBQJk6TnPDOyYj/OCMnLrJLjuhvrSRuhuuwjSLnjKGJisOXX81/C/jGs4PDzcqDB3bN8RiEPlyGSKpPR+++rZqVPoC6Ku+aG+oXpwrweh1gVZW3AO2xe2ussttpDVgd3HNQSnfVwuYmahOH/2L9T5OAqBBANppkuXVh577HF5SRt5zZo1bYUny/RfbvqyLRuHkAitb5pfK9CNo3///kYGzbaryQ8dOGTb3rUSSZImtWdkhe3KVSvliScel+bNmstLTZtKjWrVjSh6GYREKiRuPHCchB0Ms22EhnQ5h/JCAVKpAe4LyI8PBa4hPSdd406BgU0VEPdw7OFHHpEy5cpYXsgf8bHSGkvMvaZKlSpGIUB8Z1RpcT9WFoxsFj/BSQvuVEim2HbTtzU+7nU3cAChjnsti0hB6wPCpPDD4YE61HKnXqP27pzfvnW7KaXTqiCo/5QpA9QPiRMlMsY3SJo4x722sljlmXtZ00TnSH1GrSd4dqDgRAaJKyhPGpARzgctEOccx3c7cZu8O8eRK++1ts05rBWOXWLgo9wLwlVibrgSCJVm6VIlrfc/fChMMmfKJGXKlJY0qdPYsa5dusiKlSvtoSDcffzxJ2TylMkyaeJEIxPOnDmTcZe+9957VoFo//Lly8vTTz9tS/dR44kTJjQ+EKgFypcrZ4RHLPsvXbKk/P3P32qyzpdSur11yxYZOGCA9TJwuZYpU0aeePJJ41UdOGCgkTcdO37cGvNTjZ+SmTNnyupVq6R06dLSuHFjgdXs8886G40BwpMuXTpbVY0A4doCLlJ4Xbp37yaVK1WWf8aONVJs+C3uufce41Mxpq3698ivv/xiz7F48WIjVy6lacBRSqENHjBYxk8Yr3EVt7B40WJp+nLTSL3UjYpQ8sV6pB49ehjxFZwlcNNAAg2vzi+//mqUBpu17ukIkK81a1ZbZ5U9e3Z5s2VLbaSnpFevXka/mFTv5frmLVpIlqyQrKuy4H+VVW3X1gFC5gQVI8xu+/btleTJk0ujho1MbiHduvXWW42TB/n+848/ZPnKFZbPYkWKmrxBDPbZZ53smrn/zjX+Yzqbxx5/3NYZjf1nnDHzwXUMmVWr1q3lmCpEZLRZ82aSMnVKi+8jSNvr17eOzICudQvlIhFLhs4Vgj4k7GcUZPixcKsItPVvv/1mzFqvv/aaBVjHRwwfLrfdXscWQ9Gbly1bVhYuWiSFChU2ljeoEWCcR0BUB52DPXv3yv79B4yAeObMWcZM7pIbQdKMsvngww9NQVBpEApz7K8Rf0lRrXBY5Q8ePCBfffmlCsYtal09ZkQ7cMjiQmLP7t3y+quvScePOxr3yQCHwxalBKcGAjdo0GAjMnrjjddNacCKD/bv2y+bNm82fpcpU6YYQz7WGn6CeG7inzdvvvTu09ues94998gvP/9ihE4QA/kIDThzcKHy4osvmt8lOETgZYU1HlY8SMrbtmlj/DQffPC+sQe+oNcie9QTHRWsaNwPoTRD1wHa8YQCcgT367x58+Tmm28yMvGly5bJ9z98Lw0ebCA317rZPDfAFdOrV0/jCn726WfktVdftW0Y7iHxWrF8hUwYP0EeevghU349e/aULZs2G+Pg7927y/PPPS9ffPmFFCpYyLw7wDs7f+F8YxQEK5avNKa5wtougrhEZQKu6UlZUg15XEPypMlNC6PxIZVBS2fLkc16C9ioKHRMuATaMKFLxEStqAJwizZuKA8hHyKe5VqJGk3g+fjTY6DTJ5/K119/bVSJH3/8sXFnoFAYomxTBQCn6IgRw83NBGxds/6dbffmyJZD6mj6KVIml7x58xpZNZVVskRJrah4KrRrJW26NNLkxSbWC82YNt14WlGQmLBGZqwWDPMv2R12uRSaVrWq1YxEGu+FCfWZCJBfw9jFs0P+XL5cBSOQ2rFju6xSASft0mVLS67cOU1A6T5siOSU4Y0eHAGzbYY5ufPkkUwZM8ovv/wqCxcutF67ZOmS1oHly59P7qh7h7lMyZEjh+TImVOKFCsqRYoWljx637YtW61+GzZqaORLU6ZOMet52ZKlgfQY3miAxNpNmw4hf4ECVsd58+eVYkWLSiW1SKFoLFemnGO57JOp06ZJ0aJFpLAGSJ3uuP12WaNWFOnAd4MbGRRFzlw5zTVGuHaC/87519LYsGG9uXTRHJilzpDttjq3y+TJky0fE7WTK1e2nCRNoUN+pywuJ1w/ForZi85vCBiTGtAnoiK2bdMK1m24ZJl0ZWKKHvtdVRArViy3IYkxoiVNGpxE9aJlq5ZqrjYzpnYUV3WHdXz7tu3GE4rFsnHTJlNIN9WsKcVV2QB8m0ADyJiUysaMRUnABwqzGexcWA/Mz4wbP06OhB+R3Xv3BExhfTaUBPnFkkifMYMxfDF5xribZyevxGfM91qBKBaXE9SInxVM/MEaRgUb9Id4YP6H9NjHuaAccbGC+Q/h9OAhg204vHbNWhv6JIgfXxttNitLhsHw51IvvE3BMoXNbe3qNfLyS02ld6/exjC/a/cuOa7KCFmICqhBGS5DJJ0sRTI7Bo9sypQpbJthMex7kGAjf8iNpafDKvxL7d6zW8LCmL8L1C2yHj9eguAcCZ4VDhw6aMNghsPkGyuGZ4GXGFcrWzdvNasVXpTYwsVZKPyFOBdXIbo0KRx6dCwDzmfOnNnMOLcw0crwg7JtjPDco9cx3q1z223SpIlaG9obMOwwVnxLSa9w41ekT5/BlFTdundKyVIlzd8OvVimzJkklQrBbdpLNG/eXF555RVp1OhRKV26jAracVMEMJQzT+Fyh6Is0BZYGHghhO4Q1wtt27eVe++/16we2OGhfoT02IiPT5xUYT37is/iUMCKT54hTTYiaybwzLVGhCrIo9ab4r6Cnm+v9m4c500TpjUTxLxFCMZ5gwfAD9soasqRMmUivlOnz6REiRLmh5jJU3uzwvX6h+JmUtWNB4WSLEkyGTV6lMnde++/Z47j4AWmHu0+ruXP80vngX8l9xUy+1gdbKNccA6XLl164zrGpYdZ3JrW/HkLNG5VPtpBYfEwH8g9yDHyhxWaQS0tSKzxMfT6m69L46cbmyJJkSqFWb5FdFj+5x9/6rMkkXxqSVu+YiHESKHof2cL5QqGSGnyp5XONr52An6EA40D1xLwyH733Xfy0w8/yZo1a+Ql7Sk4x7CDSah/Z/1rw4Hx48ZJt27dpH//ATaEYRstTXw0VBocPUfY4TDtReJLoiQJTWng7HqijpUxefHmhu8VHDC1adNWXn65qfn+wZzE2RUVzCw67ksRRqwh8kqDZ24EJvK1a9fK/77+Rj7u+IlV7tChQ2wCGUvG3gCocJmPG0f4UJ64QkWwT2mvyC/HsbBQXPSUeK5LnTK19WIVK1SwNwIdP+xob7pI27hJtWfkPj9ocP90mzJjGIFl2uW3LtK/Xz/ZvmOHTaQzuco1zInxS/1Cp8k28oLVhzUQePu4Wz7v/LkOmTtJuvTpzFJgLoT6wqMAE/XcR+uHVJwODzJqjh2no9DOBNmhvpiTOXo0XB566CHzGvnll1+aF8wlS5dI3TvusHtoE+5bPKyeMyq77N+lHSFzQHiI+OXHXyyOP1SBuNcxr8erbEjL7a0RccVCSNCkyQsXdEWK+0gmMJl1TpNWzSvgdutxBPzU4Pahpg41sAoM6BhNl/kFTMCCBQuaaQiRchUdh+7bu9dm5B95pKEUKlLQvhkoqb1MuPYAOE6CHR9rhgLFt++dd91lnuGy58xhFkPxYsXNJEyTKo1UrVbVTE3Sg3y4YKGC5vSrgPb8+fMXsHEr7iJy6r1PPPGEjV+5LoNaNgUKFbA08DVDHnHdQUSptffCcihcuLApM4SYeB5++GG7DuWXU8fmCAIkxgyZihQuYhYLE3AIdtHixSS5ppNNTW5cKTCkKqLWFsMx0uRaelZY/IkbMEanx8MHUa1batmxGx3IFy5iq1WvbsNUhpFMtuJ6ZNv27WYd4AUQ/0yAObOCBQoaYXdSLf/8+fMZETWKBd9QdBLUX+kypbWm45nzrIe1EZcuW0by5MltblxzqYxk02ETdcFbN97u5cmdx5yJgUTaqTEnQ90zr8ZQBnlLlSaVOVxDySDfTz75lBQvUdysVPKM7NAusUSZb0O20mVIb65wcbeLf6h76teXu+6801FezKWdMYudlwrBNh0LiDdr9uyAKRAVTuMF+OOFjv/Djz6U3Fo4hjhWKLxTb9asubRu3UqKlQjMT7jQzlsbj7PjfLQDgsc9eQeByc7QGTZ6QjRrlFepDG/4YMnmQvhAyQXpaVRewudgup68RAV5oCbde4CNv1UhBuZFoifRJv7Ar6apgu+d86EXs1/3P05pEnwfg29eXiOifH/88Sd58MEHpObNNbnyhgfy1aJFC3n9jTd0SFvCORpAJPnywql7r2xZeXt/o6n/IBwZMflS5WTgXjded9tF1H0vXHlz0kahmBy7xxWuTHl/Fy9aJL1795GsWbPIa2+8FrgwlnChx78mEamy2aYAFe5xPO+hCNyvGq2RUuhOwXtBA6cSgl9AOrCvH/X6SMpEYV8yanQMh1wE8+PJS1TQ8EnLVQ7AKl/jcpVIKGUCOEoapoyc67Ge+HXPWdrs8KvAcqEXY7iDqcy3LUwsg6jP6kNBkTjy4dbCOeXklnFUuOXulP154dwf/LoWeOONGr9n3ys71kG56ek1dDLBTtGTD7Oy+XVk64Ra2X379jWrhPmV2Ea8mbNmhWhmCo46D7Nl01Zp0+Zd+fDDK2uhNG/eQlq3aiVFSxR1jvrwETtAvl599VX7/sPctPiIFcREp/rw4cNHjOArFB8+fMQa4jPje8Fgl+oYJ+LKEh4BfkKd84MfLjcg0xFXWKb/68G3UHz48BFruG7X8vjBD5cbEDDdCnnOD5cWfAvFhw8fsYZreC2PJRniuB/8EBvBt07iIlzTQ55Aok66rOMheM7zpSm/7teukYLn2pDnQ4Uo8bvHIjF4hbrGezzUb3T3xHaIYTpuuV3VELWcrkIIyFfoc7EenOfkg7Rzzv2HwvU55EEWNPAZOoA2LxTcLx2jO29w4go7EGbrO7jnhCoQU0J8jai3RvpalpddHI8KNwn93bd3nxyBJtC5P3juEhB2KMwUQIzgpHM47IiF6OD9/P+qwVNeNwIOHz5icsUKcurU+9VrjOv3OkCCZ559NvTiQE+bCTt4SCZOmCi1atcyApcrAQp/zOgxUq1aNeOagLvzs06fyQTNB4xsEMTAVDVq5CjjKGFRVlSwWG7v7r22OpRFUpHgPp/+sugPYupCBQvaqlBWLbOyeIqmAbXeosWLJVXKVJIhQ3rnphBw4hs2ZJj06tVbihUvJmlSpw6utbkkaJzffvOtfe4f/EL5fCAPGgYPGmQrqEuV0jIheT02c9pM6dHjD6PHZBHjlQYKmvoALIvYsnmLcYFcVvlcBpCvv/8eY2udgotP4xBdf+siG9atNyKl9zq8J2W0blKmSmmKJbolF9cjrhsLhZW3t9apI3Vvv0OyZssmCxYsMCVy9913B1fVngNtSP369ZNFixY7B85CrbPgL8vPEexkyZIbcc3UqVOlevXqtrq6aLGixjH7ySefyNrVawM3RYMjYeGBVdm33GIrT23dD3DSuhjQ6MgbZEk8e0yAYmSBGKYnaQbXGKm8Dhoy2Mrs7zF/OwevLFhM6QKlzTL8rbCc3SCw4UCCBEb+RQcHHYVbR15r5XpHgueefe499GPIoP/xi4mGhVK7dm1bUu09F1cB4iC4WqurhZIxU0ZjXsuTO5fRDcBdAhFwyzfetEVv6dKkNWuiW5euMknzCe9Evnx5ZdLESUb0vH3rNimQP7+kSpHK2LQGDRxkxNGQ9+bTHuP40WMyevQoufmmm3XYc1zGjR0n773XQXLlyi2FixSyJe2QCbNcHFpFLLahg4dYXFhL0CMULlxIfv31V5k1Y6aEHw23JehTJ09RqyaDke4wD9NHr8+RLbvs2rlLJowbb4TBf/zeQ6ZNnSbZ9Xj69Olkx9btthIUbtgIbYRLliyWIoULS+7ceWTdmrVG+NNHzy9csFBSqwWUJUtm8yM0bOhQW/RFue3cscMYyMqVK2tluXTxEpk5faY89mgjtfpGyx131FUllUBOHz8lf/zxh2xYv14G9BtgFl9eTWfl8pXyB2TNK1ZJmdJlTPA3rt8g/fv2VwtsqCxV6ydnjgDd4ISx42XVipVm3SET06dON55T6mVQ/4FGGPTvrNm2SDH8yFEpVKCgldP0adOM3rBE8RJmMWG9eOs/rgPlhIVSVS0UCMzd43+PGmP8OevXrpclWm5QVZw4flzruo+s0nLp06evzJo5SwoXKCSzZ80yUnHIrQsXKmT3T9QyRC7G/TNW1mh9QT8BIdOcf+cYJUHRokXln7//lpo1a8jy5ctljKYHH22P7r/LVrXaMmfMrBbmYOMJhkIS2g0WLiLLvf7sqWnPlkMHD5o8nDx+QnrqseRJksnIESNlkOZbzkRI7py5TFYXqYzASzxQ6wGuYsoeqsoRf42Qgpr/xEkSWZ67/tpFUiRLYe3MLYdLDTGelLW/UMfjMCDJ9ufZtlwr4AYxAiNVCkOHDTWiJNxp1K1b15jHZ0ybYTycmTNnkRo1akgW/YVbEw6I559vYjwrv3XpYj57zCWCk4JtKCCKJl1MdYZUmzdtlowZM9pK5u7duxszOgTQtWvfIsOH/WVuE2Clh1uj1s03a4Xnknnz58mRI0482iMtmL/Aemd4W/DNsnHDRrnrrrvsmuGqQLBK+qpFBR8sdH0HDx2UddrYUaZwp3zzzTeSQJUpq0Th0kDxoKimTJlsz9agQQNJmzaNzJg+I1iGBAiWixYrokPW2kbgM2P6dDsOmROEU+Tr/vvvN4uqQ/sOsn3HdrX86sl0vW7ZsmVGHIWFduz4MXn8iceNwOc3NeGZaFy6dKmsXrXayo79Hdu3a2MMOCobq42qV89exv9SuXJl6de/n3kKKFumjCRNljTIl2tl78nvlQqAH9vXvOPDaeDAgVKjZk2peVPAVQuKD0U4etQoWbt+nXGcUH9t2rQxqxYrtlvXrrJNOy3mrUaOGmkdEDwjK1RhDFHLMJgWf842DX6lKmJIrFkZDocPdfhbl9+kdKlSRgb24w8/mEz8pcqlV8+exhJ45111ZYwqQjoGMEU7rd59+xhRUsUKFeX77783edq3Z6/JSx6Np2nTl2THzp3WRujo/hn7j6xdu8bysm3LNuOshbTMyuEyw3Uz5HEVCb8JEsQ3KjyYyphgxIGSCcHNNaVa9WpSSQt39JjRkiVrFkmdMpVVTjKtNBpvy5Yt5fDhMOuhkiRKLGvXrTWLBsQncrpZxfvvfyCffPyxtGvf3lakQrhEQPDgGcWi2KuCBdcrxDdTpk1VrV/AGNQgSEqfIb0puyA0Xi1yyzMFT/7vuOMOKVW6lCqgWkZYjQKBNaxRo0ZStHBRqa1Dp9y5csnJ0ydluzbEQ2FhqhgzW8+eU49jeSxWa2Hu3LnGFlauQjmbEwiQ7+hzqOwe2HfQ5pvuuvMuG7rdpA0FpnybsNZryO8tmg49J/NV5I9yKlOutBRSq2vhooXmfgPiJjhWCxctLE1eaCKbN2+SLZsDQ5ZjatUBfSxTUtBQAjhxcTECAVTdO++0OaXtO3dY75pch5dl1YJKkjSxW+RXF5oH5jRQqrPUek2u1gRcIbfXvd04flHgjRo2tGE2ZQWw2Cn3/AXym0xATP7uO22MshEyK4bQ8+fND5R1FCRRhUpZY6HVY9hepaIRrGfLktXq8aYaNU1+oKQcP3G8lCpZyly7QEdavXoN69BQaCh52PmYs7tJOzJY/WDTnzl7lqUDcdg+3c+VM6cpf9JEkU+ZMtXkY4wqsUJqXcGZExuIoYUSuDj0uTgK9hc6TUBh0+sfd9xAMqThDnghsmljZ9KPxg/FHoUI9SJuLDq8954xdW3aslnCjhxWc/aE+VkB3K+R2TY90b333mumLG+TcFEAmfDK1auMq5WGMUuHXTNnzLBGg58gKt8FaaNsyBsCBXcoFIz0HoyfceuBiwTSZMLYdddwRPPCsBJuC6yNtOnSSoJ4CWTZ8mV27yIdAsHaT+/HJDkMXtxLzxOYd4kwFi8IrPmjceBp8NvvvpPXXnvNBAjLA08B0FXCUIfQQfTEGJ/hmav04BuFgQ46TJ4lUeLEZhGhDBBaeE7JayqsDJ5Tnyth/ITB+wFlQ8nijIZnIb8MCWkMR46E23VXJZAn+3f2GErjlWbNrIPo2PEjea3Fa0bdARESZQozINfTGeQrkM+UEPMhPEsKVUYQU3/44QfmLQHKUPheKQubjCYtVVakAxhm06kxNKWuOU5ZYgVbXrRDIk1zBqayROdo1+l2Wh3iIyv4f8K6yaWdC/cwhE6WPJlZlFhXzL8xPIPZnvqiw4C7uLwqoAULF1h+V65YIbeoYnTzcLnh+rFQPICej0ZOA2YcCAO5OfniNa0+1MZNGwONVXcxz+F0pfJHjxpt1HvW8+jwBNJoiJLopRGKwCg+gBIlSxiVHvSM0PbhAIrJMywT2NHvrV9fmr78kjRv0dyGIEziUqBUJnER1Z49e6zSeG29Xi0QWMoRRuOd1aETFgNg0hWfLwgTBMLbddgA9qrZunsXblTjmeuG5Nr4Gz/VWF5u9rJ5UHz22WeN/g9aSa5DKHgehiyA8vhrxHCpV6+e3HlnXXML0bDhI2r15LbJY8oQhYJQk1+Y3b0NgN4aJYNSoAwRUJ4NywxKRPLD9TDsA6xFhnkujoUftYli4kbZMdzjtSnuI7BiUPKkc60ANnsoQ/HJg+sUhgFw/cLhi4cEEyigZcBzM9FMgwcoyn/GjpUtW7fKm2+8KU8/84xdc1g7ARBg5guQXVPfECxR/igkF8iHF3Q0KCEs7M2bN9sxssCwEiVHXOQhwFOr1ydNYvVDR8AQmeHxiy+/aPKOosQ3VJo0qY0iNKtaJL169zY61bJq+cQW4qteufAfrs5UKIDnaJz/kaZ33/3DnIch3Pgx9a9UmVIyZ84cGfrXMAtsP/bYo/Z02XNkl1mzZlojyJwts6xcuUL+0bF9t+7dtIJPm2uNjWq+Hz9xLDiXcirilGn/eAnjWaW+0uwVmTp9mg4t5kiadKltKMD9zFV8++238mbLN224Ym9jNM+YocSUJ18eGTFqhL16njZ1qhw6fMgY6ck7wxhcLHAdVhT7KVKnMPO5q8aNcP78y882bkdRMR8Ey/nvPX63Cb5Wb7WSrjomPq1DjFJqBv8z7h8Z/tdwHSd3tTkRhoXTZ86w4R3WFab7rbffar8PPfKQzKBM9u21fCPo5INGjntVKwcNJrBaRgxdcOmAg7OFixfaWBwhL6J5Yni1fOVym5zmNf/69etVgeLmQ+/XZ6LLIm72D6qldFp77bQZ0tmQYNasWYFzVu5X4S9KuuvXrdMhbjuZr+XHUJgJZfzv8FoXsmjqjefA9QmdGfKBUrROSzsSJjVxezHmnzHm0RGLEg8MeHo8oXUM8Tgk4QwRUQJwvVJGxMkf5X/k6BHbBgfDDlkHdNfdd6llukhGjhxlzPqTpkzSoU8pm3+y8uU56O0U5A0Lq/699SVzlkzSvfvvmv4kHba/pgqklz1D8pTJpIoO3/ErxbATWQnk4PL/Eui4+ILfoeDtDu9oOIvizcKVAB+ZMUlVrUpVyaAC7YU7N8FYFS2fPVsOKVAwvyxauNBmwPGgV7FSResVGe8y3mQSjJ6WSt62bZsNF+rdU0/2791nTpLoYYoUKRKwWvSvQsWKNhlKDwHhc5pUqWXfgf32NoMxKFYNb4roherUqWNkwlhFxA/ZNaZo/rz5zTPhIW20vN6mV6chMmSg92OYhgYyS0B/mU/hrQruD3iWvHnySg21fHLlzmXmMG8GwlTIGPLkzZtP7rzrTjWN05nJmytnrqALTMi48+i9DLF4NhSuwanTjBkzmesOrC16s6JqifE8sP3zxgXrjGvJF5PMvAWpWrWaPQemPEzwjR591PKJozGeCzcdjO9v1nE8hNp58+U1K6xwkcI2N0FeTmrDoz7SZ0yvQ0RV7qtW2YQtE7RXGsjXP//8Y5PFKAJkhV9t21q+001msGbr31PfyoKiw3oJPMdJK1fqAPlAQdAR8AaQHn/Hjh1WLlgplCH+mHJox8YciQ1NVVGjjJGdjBkySqEihSwBFLjNZ+jwhmuwNvLkzWOfSeCNcsH8+TrM3CgNGjxowxRcqvB9Fo7kkAPyRnq4iMmkygTPhij4JYsXa/soKA88+KDVDR/SIZ/TtJN85OFH7NrYQryJkyZRVueCo45VsnXLNvng/felXbt2xu5ucM7FFfjSlAlU3HUWLhZwk4gJz/Dh+NHjZg1g4nvhfsFqX8Z68m+Iuu+FnkNJBeNz99VMNTj3URF2jTeuKPGStyTJkjh7gQ+oGNpE/VqX52MSj47F5oRDxam/CLgXKmOR0gtCr/MSZxu8cXrhOU6Z0UO695FfhpGnjp+ShElCfP/izU+UuK183DJT0GhDPTuwctEGxQOGOh/XoPyhF22mQwFI0KPWQ7CuOaRldEIbOBPIgQMayLJTFsxr2DBR/7nx2C/XEICnzL1w5QWFBiJ9le29R7dR0HRaILq4vemyHSQ298jGrh27pE/fvrJ/3z7p8H4HOxZbiI/AxiSQw1DH4zKoLWdlFdzXSuOXsSLuOt3j3vPuNexGOh913xu41Rufu889nvuC13jj8m5rIG/efWM2d/PkCYEJW72ZiudYqDj11wTFE4LnogZO21Aj8rFI+27wHCdv3vvIL78JzFfL2euCgXvd4B5zQqQy0xDdsxPsHM8UzfkrEciAS7BkZctx3eTXKw/k0eYznH0OBX812DM4x9x4zqkr77YnuPKCy1xCpPNR7ue8ldl54vaeY9vqlk2njg/uPyRduna1b8sCvqvO3hsbwdOd+fDh4z8NbfA4qnv2mWfN+uclgK0j0uOxhZivNjYNFPpcXAUSDXXcD36IjQB0K+S5/1zQYRm/vPZn7RIWIsM0hkF65tzrLzH4FooPHzcKdAhkczTOsMlCLMNXKD583AiIA+URCjEa8uh/V8U0BKGO+8EPsRF8+Yr94FsoPnz4iDXEfFJWEep4nIarkaYfbpig/1kIdc4PlxZ8C+VKIaCTDV6yoejAh19eBD5ScnZ8XBk4deZ+MBnbOH3iv0P96CJmFopzMRshz8dRiJSm89or+HuNh3PIiPnj1/mq8kLPkcg+LDu7z2pdgu1fJ2VwzQfEK9RxJ7BynXqk2w113g/nhosb8riN4goE/S9Smray81QUtnYa1jXauGj8plTc/Ll5dcvQ/Y163t33BOgPgtfw697rh0sO+p8jX2xGc03gbMhzsRHiJ+LrVUdOopy7XsN1M+Rh4RSrWUePHm00BBPGTTDaOwLb1xr4ApEl5Lyu69enn4zQfAZf3QVkOQD3GL9u8IB44LnlmXn2f2f9a/SEPuIYWkdwiPz6629y4liAMCo2MWrEKJkyOUByZGuI/iM4u4jjAsHkPMTxuAxY+e42jXPTxo2yft1642r939dfG1UiAWVj41yu1V7cvSe4rwH+WPYjYM/ynvcG51qCxce257zF4R5zfoPpukGPcx28tatXrbJ9mLYqwDnh3osUudshAlyv7naChPFl5PARRjMJadS//842mr9PPvxYNm/YFDl9b5xsa1g4d4EM7Dfg7HE/BENImXbKELKoo+FHjYDoyJHDwfOhynvU8JEyY+r0YJm750zWnF8CHLvw9BJH0cJFpFCBAiYLVt963WkWCLppuPFEEyLJ8QWuvZIhwZNPPhWavgA4vWVY2GGZOmWK0d0F6Qui9KSxDZaIQwLE8nLoC6C2q1i5olSqVFEypMtgfJxt27Y17s8CBQuostlkZNTLly234RHsWwsXLjQCaPg+YSKDMoDhA3wXaVOnMRo8qPtYQm7cKlomLMNHSbESk+XjLM1nleeqVatl4oRJ+rtSUiZPKWnSprF8srITq2HBgoWmSDJmzmjkxv369pMDBw8Y6xaA14J1FKwqJY/wvGJ9kE9WTi9fulzT3G/PPX78eAk/Em5L/KFSgAcXsqeGDRtKlapVjOUfGgH4RNgm7xBfw0mydMlSciXp0qYzHtyu3boaYVOWLFmN0DrsYJjMnjlbpk/TBqDPy7Oz7D2u6/Nag1vOcLEabYE2Yua2jHJx7HhjPMOEh8AbqscE8RPK2tVrrN6WL1smKVKk1LaQStauXSd9+/QxBjwoJKhPFt5NVdmCL4e6zZw1s6zTjrBnz55GIJ4vX74AZYXKRPKkyY1mc/eePXbP1i1bJF+evEZaBb0CbH3EiSweO3pMZXqR5m+c8clk1TqNuiL+aiNmBEv6B7z7V+LPJiGj/DFRBkmPLXlnssyZqBwxcoR83vlzmTlrppEjwZv6m5qrsJEtXbZU/ve//5mi2bVnl5H//trlNxWCHUZWwzZxDx48SHr0+N2Ij6ZMnSJffvWlMW6tW79OvvlG79d0oVMknUMHD1m6gwcPkWHDh8mmzZvkg48+kP79B8jOXTvl6IljRjFJXKP/HiPjJ4w3wp6OH3eUP/78w8h0evzZQ/qoMCLcEDh92ulTIxCGoOm7778zvgoxtoQA+U6CxAnsedOmTystXnvVKBhJl7x0+uwz2bptq13bSeNZsXIFi7VN0KCcZNgE8XbnLzrLvAXzJGnyZPLLL7+Y0F41gqOr/EfZBLe1nLFIIOOmLnaYbEw2EirOr1cZ+OKrL4zQCt7cTp91Ml4dYjBFpPVzKOyQcQO379Betm3fZo2desSNyykIlvQ+4go/dlQmTZ6kHcU8lZEw6dO3jw6tftF4T8qIUSPlo48/krHjx9mQCxkkzuMQg6ucDhg4QOs/nQwZOlR+0Xss99dQ/Tld0/URIs4EfhOotYLFclItBzun2psJyxzZc0rz5i2MzapEyZLy9jvvyL333WeM4lhZK9XKSJgosbGmVapYSR5+6BF59NHHrCc5Fn5c9uzdq9ZQRqletbo12Ndff8NIlujd3377HXlELYR777tfrZZUah3M1h7juLmHePCBBvJS05fknbfflUwZMxmJMC47IOcJOCDTPCdIKFu2bJMF2sO88nIzebLxU/LKK81kwsRJRq+IJZIkaVK5/4EHpOGjjaRM2XIyVa2r0ye0J4ufQM/hnEufk5GblgOUkanUytqi1hdxs4L06cbPyG11bpfy5SuowE4x6sqChQobcdQtt95ieabMHn/8Cbmz7p1G/WdzO5ShH8ztxQa1dFu+2dLIiCC4goOVc1m1LN98s5U89PDDUr/+vZJCrdTpKje42ciXL795PyhdtozMnDFLcubKrfc3kPvuv18ty+LmnqSQDnEKFCho12FRoyAgR0+k8oilwvWQVtW7u57JyIMPPCjPPPusylNm2bFjp3GYrFYL6cUXXrS6a9iokVnNu3epwnPaxbUQrpvpIIYWTF7xC1AgXmASFihUMMj+xRAIFwU//fSz9NdfhhCwlEF3B0WeMawlSmANn2XczMPAXpU4cRJ5t827asX8ZJywiZMmNvNz8JAh8uOPP5l5u/+ADk30esihMX1huQdwdda6pZZZLgC+UExpSG7IOD5/YCzDxAbp0qc3JngY8WD6gskNdjNV9JInTx7rCeHlYEgC36uZ5WqZQfeHEIaptQQbGKktVTP8+x9/kEFqZW3Soc5BHW4xzCJtzGu+a4GXFNO6+++/G3XlmrVrjZEt6jcvNyo2bdpkw9tUaVJpfYkNM1HyyBpDjCk6pPxerVuGLgyJOUZ9uLyyfCf075x/ZYuW87fffmNWMextgLqHONygPzAIIiccYRuPjqRJZ1ekSGG1IFWOdR/vCQybsESxiEi78xdfyFi1LHEaBuXktTSpe02v5aGwQx7XwLCAIYy7T4Ok8eie/eGZjiHGg9rj333XXTb0oWGiQ+ndaeBcR6WhHE5rXDiuatWypVojb0u6tGnlq6++Moq9YcOGmaOk+vfcIw82aGANP6laDMyv4DAL8mY3H/v27LOCJU6bm9B/NGwUAvMaB1QZHTumwoVy0OsYs0ONiIKg4RMHwzpTIChNM2cDHgRRUMwBYWIvXLBAlV9iI6/+d/Zs6d2rl431H3jwAXMOxTAKwmruISHjPtU8ZcuaVZ5/7jl55plnpHWr1vLqq6/aOTf/N1KwgvXsZ9Gywdma+xoX7wamCLRe8Js0bcY0tQ7qyhNPPGF1QCfGddSjxaV1RV1DBfniiy9J06ZNjfAa9yMQNGHtGk2jyhrcrlzr8iNbFBoX8eCyxM0DfLWkTyeI3DV54QVp/NRT5jr3vfc6SObMmU1OuPZaCNeNhRKotbOAC5VKdUHlGqgTrR8qDl5PtDsTkFgTOK1CQLiWWXyudSfHeJvy17C/bCI4W45sUlGHRPC4Mhxh3gTlAUM8TrLoyRYtWmg9BAzyI0eONMWDg7Fff/vNeiKYuLZu3WpWBT1YmPZmxMfQZty4sWZdcB8Cg1CQLxNKBY/i5gsgdOSfiT84QocOHmpOnPDDAokyztlxn5AxQwabZGYSl97sgI7ByfPBgwdtfqC49rhMDhIPCnjQoIE2sRu1bG9UwPdLo4BUesumLTL8r7/MawHuUyiz9OnS20uJOXPnmo8keGcP7D9oCsHmrLSu8d20YsUKtfqOy779+8ybo8tYzzwYPLou5SWO6rBCgXU+Cq6B29cVZ6Nv1PjxU82czNw5c+zlAnLKZwSAzuNaQYLHn3jiws7SmbWeOtU88PG25ErAnYWvXKmSmX1BaL52aeWuUYsBQmQUBsD9JY2neMmA6YiWnzR5sjnC4k0Lb4tmaU+eL38+GxLg9oLhEW4v6O15NjB06FBjlYfhnnvKVyxvxNW8/Vm8eLGR++JjefrUaTbEgrD6X61k8gpjPP58MukQCgFBMCF/xkrA4mEuAxLiadOmWUBR4X0wS7Ys9tYKiwoicMDrcYZolatUlnVr15kzL9KHoBpXDTiHIsBvgbtThBsPcLhYeECtMjwOYo9RRnyrg+l9p1pqXMv3PFOnTrG3P3i+Q/HeaDD5mjBeKlSoGCRBxy1IKlUY48aONedxuBCFVLpqlaqSLXs2eyuIrBw6cFAt1QflX5WT/PnymSsThiAoo5o1appMIke8iWPYjOUICTqWCS5tcQCG+9oUKkv4wJ47d575ysGzwM7tO2TP7j1SvUZ16xhJL1v27OYSN0e2HEZEjiN//DLxhoqhsZfH92oj3shRoz2qwwOOOloSN5udOnWSVq1aaY+YI3Awjnu18MPh0rZdO3lZzcaChQs6Ry8O5xD/Ok+q9R4SjEWpRKwHhjQMBYK9yfGTVnFuTxIJesnhsMM2lIpEMhwdNH0sEGDxuWUZTb5C5dd6sCh1gA8ce/2tPeWFgCLFyotK9H2jAPlq3769DSGKFA2QoBu06A6owmB44a3/6OrGhRFIq0VpVjO3nO/6KPV2MaBuGSZHstAvI77YxvUz5LkE0LgjNXAKXoNN7oYIdomex21G4qSJzgqTAsq8c5SJEx9gMjVGysQBcbkuUE34ziOA5OmcvJ7NWhBMKNvELeP7CwQEkjygQC/UWG4oaLmmTZfmnPoP1nU0gbq369kH7q8XzrWXA7fugmldZnyxjWt4caCT5DnH4zjwkNpgg/tMeEWd9HL/vMcuJjh/NuEa6nzUwF+o497gmcDl/wv9mUsFFJN7JFSc/+nAs8exfEX9C3XNxQb9M/kMJZfXQDCR+q+C3td64IuEDRkCLfNsL+ANsYkLxRfT9JzrXKMnxojt5/FxReAOma81XLOrjfnTjXOPX0Sgx46xFeAJ1gO4fyHOx3o431+o6/1w+UH/AkId5fh1Ehj66FbIc1cz/KctFB8+fFxZ+ArFhw8fsYaYD3n4F+J4XAYQ6rgf/BAbwZev2A++heLDh49YQ4wtFPsLdTwug5PJkOf84IfYCL58xWrwLZQbHa7W9hEz+OV1XsR4tTEIdS4uw9VI8z8RrsEPnq7FcF3Jl7dOr+H6jbGFElzNewURNc0jh8ONaCb4sZrTW+zeuVuOHjka2IkhNm3YJOPGjnf2HDjxRcIFjrmfrrPwyz2+Z/deGT5suOV34/qNsmbVGtmza49s27JNNm/aYitZ9zo0ByHj94LzUa4Jfnjnhfc6LbaoZQTdZCS4x+HJdeD9EHD4XyNk3dr1tobpvHDT9KavoJ64n+dlJXYwPxdA1Hx74wwi1LFLwHllWtOg/qZCJB0NqAeCW7bnlLHC6sqBt96MbHzdhsCOwp7bvZRfDe5atFA4p5yuEVw3Qx4qg5Wan376afBrUFWIVqDTpk+X6TNmxFhowcaNG2X0qFGmiIgbheA2Lm9lzZ0zVw7sO+AccOCRQ/LCfSwzd4+zipil5fCRduveTQYOHChffvmlfPDBB9Llt9+kS9euMnnyJIvfCyM6co85v8FPrDVPbr7cdRxeYbW0o+QrsBH4YWGje78pP8+1gMYAbebhsDC7bs9uKCMPS6IkiQIXaFKhGowbD3lk2/Kp+fqz55/y26+/Sjd91p9//lk+69RJJo6fGMxDSBCF5htFxErekOCRo+Q9VuApSoBsHTxwQEapjLDoMhK4lrxqPRBYib529VpbaHks/FikuKyunP2Zs2bJxg0bbZ8FfizQBJQrzx38+lVvQaZYH0R5WX15oeej1u+1ghiu5TlbQiHPx1HQ/85uawGymnPvXijvnGPxAsRKVLw1BD22Wy0BKuPg/oOyc/tOIyRy4yBs3bzVeh5W5bLM3DhHtFLgW125cqVZD+7XtbC+DRo0yATG7nfS3aA9C1YH+/QiKBPS3L5tu/FjJE6UyGgLsufILm3ebWNkOHVuu83Ihl955RVp3aqV3FPvHuMxgRoCC4t4cO61d89eWbpkmVELkBbPDbkSDZx80fPzXKb89BzXQG6NxcVzuXnkF2W5csUqeyY9EnwuvrKECIpnOHnqpB3btXuXKVi4PCB8qnfPPZK/QIFAXBrc8vH6kCEO0qCMV61eLUfCjthxynP3rt1yc61a0qZtG6NoqFa9ujHoDdTg3s8zLNNnJR92r/7xCw/JfC1z4rdr9Vko2yWLlxpRc9Q6vdTgCHTk405aEGEhH/DgqNqwvOJOY+XKVbJKw4njJ+x66nvy5MlGHYElliRZEnuOTRs3G/E493Ad5OB0IjNnzjSmt1KlSkmhggWt3qG9QBHBZbNj2w67HpkyCxGqSL6KdfJHPAvnLzSZcev6WvLrE/PlsdcAMFFZCRwgHwqslOUX5jJ4Sk6dPGk9IpSMEOJs00ZZvHhxadDgQeMk6arnaLA5c+U0wiHigxkNbk4Im+G2gO0c/okXX3xB5qpQ07DHjh0rhQsXtuv/+OMPU0JUNPyzsJ/RgPDfsmXLFmNE4zrSg84AJQgXRkr4MDTfkCy5vf5fw4cbE1wiVUBwlYB+fftKVo3jyJEjUkAF7tFHH5X1G9arZdNFbr/9duM92aXK5ZbataWWNlj4MUapNVRAnxnOE+556KGHjJ3/jz/+NHrLY9oTUm4vvfSS9aKzZswyFjors9On5KmnGuv1q4wQCo4QFF+XLl0sT/C90MDXrF1jHDPch6Lg+KDBg638oLScN3eeKfcXXnhBcuTKYWWUTJUq9UPaNWvUMN6V7779Vmrfcoud+/a7bwW+XJVEa2TNmjWTtWvXGodNKm3IKHIUEbSb1AOrbA8cPCgvNGkiufLksvKKNTg9/aiRo8zizZsnjyTXOoOjBoKjQ/vD5OeffrK6xLLguZ599jlz7ULZQaKUO3cuqVC+gvTq3ds6AMqDPD/55JMmiygMOhE4cSA+z5w5i1SvVk16qEwZ65/Kx35VLrUcnh84cJClJvq8UHXifwo+HPh9qOs6derITTffdO4q+KuIGL42Dlwc+lzcBRe2r9oYWkUYztDYNr7UHpfeyr0GE5GecpNW7osvvSgtmjc3RjIIipYtWy4b1NxsrseefOJJi4vKgh0LZjPoHZu+0tR605UrV+hwZYNaEfXMXQY0idlzZpfeKii5VGhefbWFtNCAAoHEiZ4Ilx3PPfusPKcKBuuE/EDbZ4LqqW99kuDzkC4Nj0ZYvnx5s7SgF3z9zdflsccek0WLFhl36YkTJ2X7zu3GFtb81eYmcCNGjLBhzJgxYyRXzpzS+JnG8rwKHkROCCY8tberVUQZcBxlsUItjL2790r37t3lkUcekbfeekty5swl69atk4oVKpgieezRx9QyyW+E3eHhR7S33mZp3Vv/Xnnt9de0gVeTv1SpUPawks2ZM0eqVKlilgj8qwybjN5Sy9aeU4O7srkgfmi0PLAyGRYWKlhI3nzzTWnZqqVRJFpc1apo711SKlSsILfWudUaEJ3DW2+/JW+8+YY2wkwyWBWZG/flhEB9nJVr5rvwAvDM008bbSNMeRAkQd14VBt82bJlrd5btmxpHRINvlyFclJBy+7++++XWrVr2TNQr5Rtuw7trAOZMGGCXlNeSpUuLQ8//LBZJ3CuoEQI1Dtseu+2fVfq3HqrsbwhD5Q3zPcwBGKFUteQZ9ExNGjQwCw+LFy4WLzPdTXDtaPaYgC0NvSKjCmNGEilgTEqPQaB4zSoUiVLmtbOpMJH74gbgt1qeRQrVtTY3xDeipUq2jhWozPiaCyJEX+NkMlTJtuYGQuBAiJOeinmN6BhZBg0eNBgGTJ4iAkOPROVnkOHN7m1VyNumN4uBNIlzyVLlLCemzFxuXLlrCEPHjjYGPIYxhE3lgRAEEFOVSDkD2C1LF++XH775TfrLWFgA6VVeGm8KAOGMia42rtjCUAXCfM6ZQi3bG1tCFFBWaP0tqpCIT2YxSjTokWKBuI5dNiuy5Q5s1lBnMPSgkzZHs5RnF5gtTFUwGkbdUNPPVLzB/UmQyqsIOZfsDix7rgd9xWUe8+evaSXhn3asCDajgvwrFB+5i+Y38oGBYISp/OBWCxXrlzy95i/jbAcCkgUIzKIJQJ/L9sw8XE9ZNI9uvewa7AmAp1hgKiaTgRlRTDor8mM3g+9Y3a1kGGKwxrKq1Yzcrpch6Jw3GK1/alxY5mStzDNx7XE2Hb9KBQt+7Tag0Kbh1C6CNcxPON+LAkaAD0jFoJB70molQcQdkx2sxg04E4CwaU3hwuWiVNIqosULmJmKsLPEAVBoHEh3WznzpPbGPNhRMeUpUehgUI/6U6URTJBHZkJBeKlV0d4oST86uuvbeKZxluseDEVlIQmVOQFIGwAJYmSQfHVuKmGWVBZsmSxIQh+dwBDiwH9B2i5pDULAuAbhnKwoZgNNTR7mtUg0ZMHMOsDys/ymSyJPQt54flQUJQH80VumQLiRcmjiI3lnX/OnCL+irif/NPwOnfubHFRnjYUTJQ4MJzV/EBCTpmjdDNq4ypapIhRaNa94w4jaY4LMHwLNvIoGPvPWPlGy1TVpA2jkRsejrkVytT29VZ4ZHk+lD8d1V06bLynfv2g/BF/oMz1VwPPzzEIvALle9rq1iZz9R9lz71MkFN2yB0M+VgwWCkoHrfsrwVc81/KevfLliljnJ+YfkxiMRTAxMQpEw2KXoLek3kGeg0myRBIGijzEpj8TGodP3bCyJ5xgMUQaqdaLxUrVZIaNWpaOsxR0JMTBwJ+VC0UKj6xKhqUWZmyZaxiYdJnPEsD3bp1m7kKhbGe4Q/w5t2CHQscZ8iAQsOUZp949+zZbcTTZcuXlV27dlvemdNhboiJQcxbrmWYhqCRJ+ZDGKrcc+89aqY3Ni+JDMXo1VEkNVXhEA8WDc/KJCNYvmK51enkSVNs/siFm1cEm/KkV96uPaxNQutxrAgEm96RnhYmfcoTZU6eKCN3kvCM5pPyoLExwcg8EPyqDB+Zt4Kxn8lqFDl5xuIjTUi9TeFpw0ubJq0qrhNmUVLuuB5Bebv5jM1AfugcGPowjFgAf6wOzXiu+bqdW8vijrp3SHotbywD5uPIK2TTOPniubHgkBnqsFLlStY5BVydBOoNfzw2JNRhu6tUCDZs0bJibo7nc8sQNxlYz1i/zCtR1wyzsBrpOFFEUZ/jaoYEDRs1uqAr0sNqjs6cOcMm4tC+hjjWilgQzJ5XUE2cLn06O8ZEWBLtxSB/ZqzOjDkTpoxfca5Fr8qcCQ0NEuvhak5jVsNEjtZH0XDf9OnTbdyKwmBii3kC4mIiEx88aP1/NF5MXsxNCJ3z5M5jcWFq4g6SiUosI4YWVC4+cJnpZ1zNmJfCpUG7VgVDJRpxnVvr2HNg2pNXhjtFihZRAdJGp+Y9Ju2a1WtsIhVBYh9W/PkL5utzPmACxAw/Q7Pbb7vdGO4ZSyPcM2fOsjdLN990sw0LJmk5MRcEYTUT0ZQbxMa4sBw+fIS51oRFHSVWqFBBe6VJ+ZCnpUuXSp68eUx4qWwY+lcuX2FE2fXq1bOJb+Y39EHl5to3mzzM1H2USLXqVXV7pnlsXLxosdXRiOHDrdfGDUnSpGrtqE6dpNbY+nX6zPoM+VTpz5s/z4ZPuOqEWBslW6NmTZsDmzRxkskD8RQvUVyyZstq5XqpQL6maHw4O8vgkKBDwI7SZo6GYSSTrViQ1COTyMyFQIZOmRfVDgWvk8WLl7CmMG7sOGsb5SuUN39HkyZNNteikFUjI1myZrE5vAnjx0tm7fxQ/ClUQUAyTZlXrVZNlU9im+vauGmjtrVqoiaepQWxOENjFBds93hvwOMkyruwyiQd27WCeAMHDabjPBccdZTGju075euvvjLTOlv2bIGDcaxQGMp89NFH9haFMa0XWBn03Mz4Z9XKcYmzGQK8/8EH8tBDDaxnQ2FYr2PDkUCGly1dZmNO/NAyZoaxHJcam7WHxITH0kmqFcV3KjROeFpRNNmzZbfhB24OUFa40GAyNGXqlDZBTKXyWpWhCxYRFgJjYZdnFlLkPXv3WLqYs3x7gPAwp+NaDbwSZYIUCwCBxTLh7QYChYIoVJi86lBCA64uiQvriZ4d5YbQ4sUueYpkZsExd4S5TOMj73iey5M7t70qZs5iy9Yt5jqCZ0ydJpV9b8Pr4wwZMprC5S1WmrSpTRZQkrg85Q0YceLXF492TMzmzpvb8s+HewALZL1aJFhGPAvOq9LqkAbFiDJliIXi2bplq1kAPB9p7WUCVBVmhvQZrFGirFxWd6y/I2rN8RaNZ8EB2+UA+fq4Y0dp/PTTVq6AoRnzO+u13HCQbnNVWk5MxJNvXr9juQbym8E8E2CpYTUwl4ac4duHfFOPDNvwJMk8E8Mc5uHW6XNh1XItFnK6dGnNLzVKnGdCtplHy5c/r5W7+eVWRWXeJlSEeR1PuSE3yZIms+FgiBHrVUO8AQMHxUih/E/H9y1atLiiCqWjVjhvTqIqlEjQfGINoDCosPc6dJCHH3lYrYtyZwva8yw2z+IoF/c4gmTXuiVhxwLX0fBtAvgCOOl8R8KY2ibJ3DQ9aYcCysHMXjdPLpz7iBdnYjwjQh2M33ONq9CC6XjSjPS8F4Lep8lYWZAv0otTuPnUX5s7cdNz8+FmO4bZvxggX598/LE0btw45l4V3PwCtkE0+0GZ8kKvYe6JoUqosrW6Zc5P46BOmUOLGofVJwVDOt78XCOIY4mJXVCYwYrzVKDbYLA0GPPzms+E0XONC6sMF85m8FpnPzCJGNhxlQkNzPsbBPdpYJwNgo3dkwxAMYUCghWywTuHUFKc5zryhcBRDgife42lqdvBvHmic+O2svPAu29xOaCHBl6BD5THpSFqui4sTjef+mvpuZfqfrAheZ7Fm884QZSs8lFaJDh5sXJ28+XJswVnP5h/b5x6nqF3KGUCGKq78RqLvu5GfWZXmZwjh9cIYrw4kBl7tpkIjXo+LoL+p9mLckwLUrcC+1HOEXgT8dLLL0mJUiUC50NcY3+hjrnH9Y8JU/erUjfQML2/weD8Rb0+0nn95VuMc85dZLA0LK1AAzx7nOIKkTdPcK8JtR+MS/9QoO5xN0T7bDEIUdM9e/zcY/Z3nn3vM19u0P+sAeje2eNR0uMDRO++G4Ll7P55z1/svidYfqIcO+eZnfstD+eJ62qF0KoyBOz1oIIeEyHx4cNHLOM/0K5i/NqYCUtCqHNxFVQBG0Kd84MfLjcEZMuXr9gMMV4cyAQRbwDYd9+Rx3nwlYkf4jAwHxHquB8uPrg6IV7ffv0dO+D8GDl8pDl/xqk4C+V4Bx6X4HUjS/355oFXu1hHPnzEFpAnFkDefffd9n0R3xv5uDw4CmVAjBTK8aPHZeiwYbYa1D4jjmamOjbBAqxEiRNLEg2XC/sM3IcPB3zuzteuyVMkt69yffm4PPCGlTedMVYo7nwGq1hZms0n13ENMsinyLzXtW81nOOXAl9cfHhBb8oHjHwXwhKCSJ8T+LhosLyCzj9enxgOefiegFdVwP2IKy5h6VHJfj37iAsg9ciWI/0BAyUwD+Dj4mGvt/k8p0/ffn4J+vDhI1YQ9xMhPnz4uGEQr3efvr6F4sOHj1iBb6H48OEj1hCvV+8+voXiw4ePWIFvofjw4SPWEK9nr96+heLDh49YgMj/ATT8rVyD4l3BAAAAAElFTkSuQmCC;" vertex="1" parent="1">
          <mxGeometry x="402" y="411" width="276" height="250" as="geometry" />
        </mxCell>
        <mxCell id="3gbF3Js7RYyQ2YKZnJj0-6" value="" style="shape=image;verticalLabelPosition=bottom;labelBackgroundColor=default;verticalAlign=top;aspect=fixed;imageAspect=0;image=data:image/png,iVBORw0KGgoAAAANSUhEUgAAAQEAAADLCAYAAABu6CabAAAAAXNSR0IArs4c6QAAAARnQU1BAACxjwv8YQUAAAAJcEhZcwAADsMAAA7DAcdvqGQAAIZcSURBVHhe7Z0HYBVFE8cnISGh9xJ671VABQF7RRRQsYNgRQV7A7HSPnsDC0gVEBGV3nuX3nuHQEJCDwn9m9+8u8dLeAGUBAO8uUze3d7e1tnZ2b3b/wbFxcWdkrPQ/r0HZMrkyTL4999l29atkj4svRw9ctS5G6AABehSpOB06SQ0NERuvulmOasSOBp/VL76+isZN3ac3H7HHVKsaFFJFxIiIRpAgAIUoEuXQrQdR+/eLXPmzJagQ4cOJasE9u3ZJ42bNJGHH3pYnmjeXNJnSO/cCVCALowSDh+R9OnTS3BIkOPikCuN7m+w8xugVKH4uAQJPqWF7ZdPisyd+7eEBIdIvbr1JDQ8vdf91AnnF076XIADfB4cliFMgtIFnXlPBdNYdYNxQMZShU8cO2W/4RnDk9ezx48el31790nefHklT5481vATaWcUeBIlHqAApSi58hagFKdgVcAnj5+S40eOqyWgJe3vOHbyuJxQNcxEICzp1DXI4cBxZR3aZVy0g7hc5gjIW+ocWq5B6bRZp0+XvCUQHhZmFREUFBiUpSU6lnBMRE3kRMS19ppodu/1+dK5/Lr3CTpJz2zDQixEpRPHnBMlbzr+DbkWZsDSTH2imrSMgxNp3iTs1rq/ewG+AD6plpY2Zt6+8Ou68RsfF29DMfc6Ka9Zs0Z2Ru5M7K5aPXZ3rEybNlUOHzrs6T197zu8cd1GY7vW8GmsSf2eOHbSXgsfiT9iaeF1sKXFPdSPPadu2JFmS6pbcLpgbxj0MO55inEy5RHgC2dqjhpLhk0DBDiFeeXyFXLnXXfKnthYCVFzzHXfEx0rje9tJMOGDvMoYJ9nXB70668yc8YMzzUN0XGP2b1bpk6Z4rk+4bjz654rD+jf39iuNfwgGjH3fcJZtnSpXH11TalaparUvra23NOwob0dGvjLAFVaR8xPkEcwvM8Y6/UJVV4jhg6XY6rcfMO8IKbxq9I5cey4nFQF5ddPgC+IA7b+xSYt9/LlK0j60PQyceJEjxuyrbxkyRLZvGWL1KpVy5zjDsQZ+9LOXbvk+AmP6X3owCH7xRQvXaaMvPP2O3bt0uG4w8YuxcTEGEOu+b57d4zEHXTi0LQdP67DDaWffvpJfh04UD786CNp1KiRfPLJpzID5QOp1DAM4BXy3pi93rAOHjwoX37xpSxavNiuz0Y8z3NJ2awMT3Ae0jSdPKnuJ04q+94IUErRWYcDMOTPPcD/kpFq7YEbNrxb+vbtq4Kvwk2vqe5fffWVNG7cSPLlzSt9e/eTZ599Vpo3by71614vkdsi7fmwsPSyWBvZN19+I4899pi8+vJrcuzYMW14C+XxZs3kuPaYUVFR8l6796TOdddJjZo1pX+//jbEyJQ5k2TImMHCmTFzprR6ppW8/NJLctPNN0uvHr0sbUHBQZI1SzYpXry4lClfRmpdU1OaPvSA5M6dWyZNmmTDhOVLlssrL78szzz9jNzf9AH54vMvLPyOHTrKmrVrpVPnjjJt6nS5pta15pc8Htp/SJo0uk82rd8kc2f/bRZG40aNpe07bTXcyWZt/KpWTnPNQ4MGd8n8ufMtnYN/Gyw33HCjvP/B+/L8Cy/IyOGjPIrCLc8AXzAHLIH/iO68407Zv3+/bFi/XhvxUdm6Zavs2btXmjRuIsuWLZNvv/tG3n33Xen3yy9SpWoV6fK/LvYcjXz+/PlS//rr5b333rMhwOrVa+SYNsLdMbvl0KFDMmzYcFm+YoX0UyXz1ltvykfam29Yv0GCg4IlffowC+d/XbrIjTfeKD/3/Fk+eP996dW7t0TvipbwsAymVAhr145dNi8wZeIU2bt3j9S9rq69KcJv1qxZNW39pOu338kff/why5YvlyZNmkiZMqWlfbv2UqhQQTl69KgpFfeDILcn53fO3DlSr149ad2mjaQLDjbFxri/U+fOkjtPHunXr59ZBB9//LG0bNFCOqpiadmyhezbt9drrQQoZeisSuAUNmqAUoWKFC8i1apVs96Pxjl06FDJlTOn1Li6hkyYOEFyZs8pU6ZOsTF8cFCQTJs23Sb/QtKHyr333itVq1eRqvp8+fLlZdOmTdaQwtKnl/iEeBkxfLg0vPtuqVS1kjRv0dw++ipUqJAkJCRIhgzhsmHdBtm+bbtERkZKnz59ZOmypTY/MX/+Ajlx/Ljs3Bkpr7/+urR6oZXUrFlLWrduLa2eayU3q8WwN3avrSUJ0vj69u0n48aN02H7KZk/b75kypTJ8la4aBHJEJ5BFdYxzwSiEj3OUVV2QZqXYxpHzRo15elnnpH8+fNJXHycVKxcSa2gxlKwYEH7nh1lxgQjee32Qzf5odsPZo00faCphIaFWpgBShk6x9sBsUrzdy/AF8aYtI3U9J81a5YciouT8RPGm3nPvV27oiRUG3tYWJit1ahdu478Ty0Bel960Tx5clvj4u1t9hw5zJJgniAhPsEUSqw26Bzq7saVNXsWyZBJhwF6oAjWrVtnPX14eLg2+hPaECPkfbUGKlWqaN+UZ8mSRbp06iy9evZW9/e00R6TG2+60d4pR6qC2Llrp33yGxKSTjJmyiivv/aa3KT3T9rnfXxodkwSjiRItmzZbAhCGk6cPGlxkQbG+Lk1D6QrOCRYFVg6HYJklQyZM9hQCUUVnsEzbGn3bjt58/U3ZeHCRfLoo49J125dA28KUpiTtwR83tGi6QOUskQvd8MNN1gldOnS2Xq+OnXqmHLIlSuXhIaml6ZNm5piKFu2jJQsWUqtgBA5knBEG/IRGxbw+m7PnlibZMREphFmzpJZHnr4YZk1e5ZNODIW/+KzL2TJ4qXmj2cjIiKkWNFics2118qzzz0nDz/8kBQrVkx78MKWjpw5c9lXotlyZLXeuaGO3xmaEBbPwjVqXCXNmjWXRx55VAoVLmSWRnx8vDXyI0ePmAJAmWzetNny+/fff9vrTfeV44H9B8wdOqEKjElFiPyfVIXBkIR5hlkzZ8l9Te+TH374QdqoRYLFdGC/x2+AUobOagkwI+vPPcApw/S6DzzwgPTs2VOuvvpqyaemMcrhkUceln1790qbl9rI22+9Jc21sc3VMTSNJ1v27NbQ0mkvjFmcI0dO+7IzU6bMZoLTeOrVrSszZ8yU1157Xd7S5ydOmihFihQ2ZU7vzRDi1ttuk5dffkk+/PBDueuuBjYWJ01Qgg4pMmTMaNd8LPbySy/rmH2JNcDsObPLU08+JR07dfKkrXkzeVN/9+3bb8MblFSXzl1saFCxYkVp27attHvnXRk5coTmL78tYUVZcN8tByyBPGrqW3zaLYWHqYVy8rhdd+vWTZ584knp3auXjBo1Sm684UbJ6ExuBjhlOJ0KyQdW835o+bLlhiFwy623Sli4Z0IpQClDTHrR4PPnzS9VKleRB+5/QDJny2yvybJnz2G9M40jKjpK2rdvr+b4TdZA0mkjKl+2nOTOm9vCCQ0JldKlSlvPXaBAhFSoUNF66vvuu0+ionapW0H54L33Jav26uk0wquuqiERBSPkhhuvl6trXSNbNm+W69UiQSHw5iAsfZjkyZvHrA+UCot8smTNYmk8oWZ88WLFpWatWnKbKpGtKhuVK1W2NwwoMJRSzRq15ID26vi/+ZZbJHPmzBJRoIC0atVKSpYoIeXKlpW8+fKZtVO6TCnLQ4bwjDYfUrJ0SbNAw0LDpHTp0lKkWBFt9DeZG5OlDe5uII+qZYTyZMIxQBdI6HwtxiAdP/q39dX11wG/yvTp06VzFx2P6vgtQClIzLkmNxjzd89xQ0kc17E1Y3KUyJH4oxLmu8Qbf5D6xbR2Z+Z5Ll2oPgA5le8qIvfXpUTX+IU1PMxzhiQuEWawKqpEfp22eezIMZvXcJ9NSr5pg7zXmv7jx4+rsqOh6+NOfpJNX4D+PTky5ad6AnRR6Gwl7++e40ZDptG7jSCRAoDw5/j1bWReBQA5zm4YSRtUomv8OuH5KgCIMM/w65DN4Ps8m5R80wZ5r9U/8Vi46sTvWdMXoAum5PEEXFZPft0DHOAAXxZ89i8GUQHmMYl7gAMc4MuGkzHWAhSgAF0pFFACAQrQFU4BJRCgAF3hBCREsodRkAQgngJH4LiMj3MuJbbDn3uAAxzgy4KDoqKjnS7/TPr9tyEyatRIuffeRrZ4JTUpNDRU4g8f9m5uwoITf8SKOpdY3BSgK4MQVvvsOTSdJBxOcFwDdCFEW2P1adCuqCi/SoAvuFAA337zrX0v7otQk1pEo447FGffl/NFnD/ybfgBHXDlEMArrGnIktnz5ar2YfYboAsjFmslqwSgEcNGGARW+3fbS46cOR3X1CE0/aG4Q9KrZ09b6/6/Tz5x7iSmgBK4MmnkiJEycOBA+WXgL4aVH6ALI6wALG8s8LMCjbIu/BRmuZ4DSpmaHJxOJGuWzPal6dlZ/TusCTvNQUl+k3KSvJ2T/0kY3Esu3uQY/wE+f9ZyPnrUA3QKOGuAL4xpcxkzZ5DQ9CESfOqEGlbJgDSAAGPgFdrl+rvvj1k4YmE61wwrzgsEQv2cOA6YpLKtGvG48/4CxmyxdxkqEF52jmMoK8LgSPJr6fk3B8/7MnlI7vC5f9K3PN17voeve4D/EWuxJboGuzA52aLe7b6PLAb4TEZegzdt2iyLFyaPDosC8Ldsk5Vc0J7de2T/3v0SvTParm2RifP1AQrg0KGDciThqMe/ViIMQu05SaN0F4qAzZ8QH2/x7IvdZ5tZsqINpBrIu7DFmUskXjIHhYQlXvTyr+nMIvCQJxrPr8ZPfllyi39QfPfE7JED+w7K4YPOnEpy4QToH9OMGdMNKs0fIRO2KCnwJcw5KRicOTDq/GkJDg+daQnQK69euUbqXFdH7rzzLnmixRPy8EOPyFuvvyV/z/3b/CxcuNAw4eIOHTL/TPo9+8xz8sEHH5wRni8zCWSHo+XHjx8vVatWlXvuuUduv/12Q6Rt06aNTJ0yLfGzeqAAoBMnPFbMwf0HZfLEKZ7w8EOY58NOeIkON56k/mC1THbsiJRG9zbSclltm4A8//zzcvMtN2u6G0rLli3l4w8/lkXzF51+JsDnz3pAvm7Tpk6TBYsWGMqSr7svA55q9e/nXoA9HMwrgmDl5AhPyRFjtOzZshvq7eeff25IM1Dbt9vaL3h4+w8ckPiEBLMEOnfqrA1lh7zzTmJ8/GSJXlOjj4s/LCVKlpRvv/3W0HFBoK1YoaLhz23bvM1rEWAdREdFGcot69x5duWKlfLTTz9aj5wQ74HlOh8mbhQKvTkWCJNRhG/s3I+LizN2CWBNYLK0aA3TD3rxhRelZ89e8vwLz9vM9gsvvihjRo2xewG6MHrzzTfl7gZ3G8oS1qLL7sQhcgGsGZPNWGOu9RqgxBRs5n665JWAu9GFP0J5cL98uXJSrkI5qVChgrTQHg/FwQw/4/jw8DCDqe7YsYMsWrxIun73neQrkM8J4fwJhVKubDmpWLmiYeI/3/p5g+BavWa1CQHaHusAlNzbbr1VBg0aZHMFXbt2ldlz5qj18aGBed7dsKFh4DFM2Lptm7Ro0cJeSf75558G9XXHHXdI/wEDJCY6Rj777FND2n2i+ROGjBO1O9oANJs1byY9uveQL7/80nAAv/nqG1MOlIdXoTpDk9JlSkvxksWk3vX15KVXXzLY7A/ed8CcXP2avJ4N0FmoQYMG8sP3P0hUZJRao3ca9PmHH30ot99xu/z5+5+yc8dOg0EDTfnbb7SOVEkH6EwKDraPc0K04dLrJ2bgrTyWAMOBM+8zVwcE1ZEj7Kl33MbhI0aMlMPxCZIta3Y5oZ7Annu//fvaKH+Tbl2/l8LFiqgZfWZYXrZkJY5PbW17pbFz5y5tnLEGXzXgl4GSJ3deVQzlTcN/p8oF3LyftHG+07adDBgwUKJjYuQ2HT5Uq1pNrYcOkiN7DuvF04ey2SqK5aRNfgJ0ye+iRYvllVdelUaNGsvYseNkxfKV8s0330r3Hj3koA5phg8bbnkGrBPMvSeeaCGvvvaa/P77ECsDN/3etJMVTbudaxrJd7269SVr1myqJCNPl4PvMwH2y1aOfspJR2RyXCtl8+Ytsl2HY9Rfy5ZPSrdu30uu3Hmk1bOtpEiRYtLmpZckJDT07LJ3hXLwkSNHDBwS08mXoRMAjVLK/kidM4SHy7Yd2+VF7S2bPthUmj/RXLXuEvm4w0eGV8cHP2x7hYmM4E+aPNnz7D+ZHHP8bt682Xr5F9WcZkeanj/3tGEISLczZ86UmN0xtoHHzz//LCtXrpCY2N2yQ62RLFmyGrQ2yLdYAAwV3K8RwcEHmJOJT5RDw3vukTu0R8maNYsqsxFaQKekd+8+8uuvg6wctmj45AkocOY6ChYuaAoGWO1DBz1bgkHgAJ5BGAgUuFpdwGknHI73uAfoXxOWJvsk8BobWHQsA4BXr61dW9auW6tyd0By5sxpwKSZs2b21ME/kb0rhILjVHjjDh+WgwcOJuL4uAT7mICGQLnxm4j1oPeMyB+hDeIB20nmnXfaymeffmYY9SePawVpwypSuIh06NBBOqtZ9tVXX8roEaO1V0wSlg/TUPTsDPfChQrLd2raMy/w/POt7CMHttnC7/bt200ZhWtlZ8uaVfLlyy/vq8ldpmxZiY8/bJYOpqAOfHSsnlGHCfTavEHwKLkglQ4UA+CXfIBEmOvWrbfGCsY//OCDDyo3NcHCcgDMkzBQMAgeypRriOc57M9Jv3HQKRuCMIzJlTuX191eY/r6C7BftrL1uQZlGUXAuZ5pT8+bIHZ2PmyfuaPwD8fHWyfnK3OB8k7MwZOnTJH58+bJgP4DEjFbTM39e64VJD2fP2JSkY0k0MD169U3iGkw6yHG3BqFKpg4yZEzh9S9vq68/fbb8m77d2XK1KnWQIzPg9D2bHJBA8+VJ5c01zE66MfvvdfeNHuZMmUke7ZstkPOo80elZtvusn80qMDWOnZzSZIlUM+VU4nZK82QsbsY8aOlV1RUWpSntBG7HyPrr0FJmPFihXUesgs99//gDzQ9AGzONgBJ4MqBnt7oYVHGLYPgAoaSsksCg0fgSNv+AnPEO4JV4lXsZ+rkqx1dS3JliOb1zpIit0XoPMj6hJyvyJNH6LmvpYn9UCdo/wh5nysrB0KlHdiCmZzibvuukuee+G5RPzU008axjv48GhTX81hrIJ+7MQx7Qkz2NZXKAuTaD7o0ft8+MNvhgwZbQadczagZFupLl26yKaNp19Lsk+/nTuH/Tn3YJQQG2e4vS1V3lbH/ZMnT5F5c+dJ2bLlLNw3XntdOnfsYpN9PXQcz9i9apUqtmvOl59/KcWLlzBobGaVO3fuYttw5WQHn6PH1cwPs4ZM+Hys9PTTz6hJuU7eeOMNeeWlV1R5tdcefJ8KXLAtYrIPqLRnxy8N/bBaHEwKonzc3omNNtq3f0+aP9bc+I3X3zC4bbD43bzZ4Z4HOHn2IxcMzXCn3EOCQ+TAgQMmf8gK99htqWKlivaKutPHney17RmvdgMs6Zre3/QDhgMlS5UwreAl7eXAeucbgltuvcUDH+1DwE3TaIoUKSKlSpWyOQAgol1COWcMz2gbTlSqVNlm8BkP17++vloQIZI3bx4zo/HnzqiToHlz/7aJv5tvusU7fmNrraJFi6p5X8a0PFtXRRSIkKJFiqmXICleqriFW6N6De3Zd9k5G2/weSSTgbxVYJxeqXJlufHGGywvvGLkbUCx4sWlmIbNPn4l9DxfRD5LEz3/gw88aOY/z7744gtSWuMPDQmRLNrQS5cuZdZIaLpQE7py5cubxYP1UUUVD4qLXXiwHnhDQBmxq26zJx5PZB0E6Pxo/dr1snTpUmlyfxPHRayMr6pRQ0qUKG4T1LXr1NE6Sa8WQKgOt3JLZa1v5m3Y1wANwv6HDAGxCgPkIazeoEEDB5/as2ePNGh4l+PskN78448/Zfr0aTamz5TFs9mkkWpkj1bWAPzMgSVLGiav7ULDfRQKYTmEmc0ut9t37JD/feLZhRdFwLtfZnaTi8v9OpANVFE2xOM1/3zOTxw9YfeZ+DR/PkrLJWbxicd+NW7y6Evcs08tfQUJP+6l619/iQdTlHCIyw07QP+cmEv65ZdfpP+v/R0Xpz5V0Rs5deCWcaJ7kE8dnVF/VzBRXsFsS2VbPiVzeHtp30PN4FNqdkk6r8vpwzEx/B76TEi4Z67AexCW78G1L+vBM37jcg4qHcZCMBeGJO7hE35wer2v99xff4cbj/3qs/x62XmGuDxnzuEThzfdysGhWnY84zznhh04/uXhW856WD26h3PPLeNE9zh8nj2j/q7wIzhYlQDj3BQjFGxKKVl6ca3XC6ILSUvSZwOdR4AuQwouwA61xYs5l2mIaPwpqVAuNgUURoAuEQrmnXqlyhWdSx9SIXZfvfxnAn2pNyTSf6nnIUCXPQW7r/T8snv4u5dKbBYAP37uBfgKZhOMgFykBp8Vbdgp94vbKC3SJG4BvuLZEQu/9wJ8YZyCM4IXQP5M5oAZHaAAXRQKVlWAek2Wg/THn3tqsSe+ixtngC8Ntn7Bj3uAL4zThiWQWsQrRvhfkvsRkj9yV1r+EzpbeP+aNH98GOOemwINkH/S8vk3dXAk/qinbC9TOufW5Hb4u5darAfk994/ZT4Qgf3dOw/m8wnvdZLvzfkE2nutguV7LzlOFF5KseaPj5JsrQZ5vdj1dbHYPfzdc1nrCPxJv/dgLZ9/Ugd8qcpv+rBQT9lepmsOVAlQKP5Zc27s715qscVnSsA/H43XilGt7O9eSvPhg/GyOzrWzsEOdd0AUPH1Z8Xke+2HTx737/6vWcsg7gBLvT3XgJqcOH5Kjh87kdjfZcJWyDog8HfP5b2x+wzk1d89Xz7furD4tN4PHDgkO7ZFyglT9iLHj1xeZXxJDQe2bdlmWH0TJ0xyXM5O8Yfijf8tbdy8ST7/7DMzBRcvXmQoNS+2flGea/WcdOrYWYYPHe5BTj4PU/HgoYMpumlGz597ySuvvmJpIi3z/p4nsbtjDA3qSqX277WX0aNGn9Xkpw6oi3OSBsGaGsBmVq9aJW3faasKwVPRidYkXAZ0zuEA5PdeajFx8ufnHqjD69auk98G/+Y11RKxmmvxcaeXPQ/6bZD07NXT/BoMuXIi/0k5ibkXGhIqOyN32pLgyJ07bRVbvXr15Prrr5d8efPK74N/l1bPtzJhsWeSDAsQOH4jt0fKG6+/bug3Sf34ywfPuUuxvefuc04awWvk/LrrrpM8uXLLoF9/NeW0ZMmS0/nkmSTxwT/98JP8Puh3O0fI+SUOlnT7Ldc0wknlAuBYfkl7/OEEQ7fesmWLmfxu+SXKj5bXlq1bpMNHH59282H3GX5nzZolX3z5pTX46ldVN/g677DL8U85U35W3pRzEvnxdbO0Jr2fRjhdmzYvOaiXZ9KaNWtk+7ZtcsMNnuW3qU2aHpk/f77Bkd18y02Oq4fQ7l06d5GWLVpor/e3Lc8tULCATYqRkUEDB0nXrt1k+ozpcm2ta2XVytUGMrpu3ToDAtl/cL+MGTNGrqpew4BQJk2cLH/P+VsqVKwoO7bvkJ97/Cz9+/WXmTNnWQPPmy+vIQBNmTpF7rv/Ptm8ZbMsXbJUOnXuZEtUa1xVQ+5scJf88MMPUrhwYSlZsqT2xLHyS79fpE+vPrZ9G8ufgTf77ptvZdKkybJVBRSYNa6vq3OdlWlUdLT07tlbatasIbNnzJZfB/4q48eN12HIbpk3b76sXLnSINAQSNJZtnRZCdUx6qwZs0whNX24qVxV8yqDYme5LSvtGjdpbOAmKKmePXvK2DFjZdeuXVKlSlWZNm2a9O7d25QFVkPlKpVl0YLF8sP338vw4SMsjVdddZV34VhaIfYXWL58uTRq0sjjoLJy+PBh6dmjp/T7pa/w+fuMGTMMW+KqatXNcvvyi68072Nkzeo1Urp0GTl44IB89OFHskSV+W4t96uqXSUH9h+Qvn36Sp8+fWwfg+pVqws7b3Xu0kWWLF5iUeEHxKy7725o5bRg/gIZO3asYVaEh4Ub4vZPP/1kEOgsUQ8Py2BhTJo4SbqpTA4ZPEQyZ8kkuXPmNtwKf/t4/Gek5XjJDAdGjxylBRgqt91xu1S7qpqM0msIpGQwACnwOtfWliOqcRvc3UBCQ0OkRo2aUkYrv2atWrJx4ybZuGmjLetlGfGBfftl1ZpV1sCwMHbt3CWvvvaq5M+fX9q1bWc737K0GSwDSgm4NPATeNZdhrxp40ZLA0qAIcF7H7wvu3fvlhdefEFy58ojH3z4oUGs5Y/IL7ly5ZQm991ncGfLVyz3gLDoM2ANzpo1U9NxXNO4Ufr07WPYh+XKl5M1q1ZrD9RVFmgP17Dh3dagx0+cYHGyQy+Lv1zTlzSBggwADLiOCPmo0aNs34MHH3pI+vbtK3Nmz5ZiRYsbUEy1atXk6quvkYXzF8pbb70pda+rKw82bSqjx4w2/MY0T1qPn/7vE5k4aaLcdWcD6zyoQ+qd1aT9VBlXrlRJWrdpLau1M+vRvbvkzpNbipcoITly5JD7tC72Hdgvb7z5ptZJvLR+sbX13O3efdc6lYIRBaRAgQi59ZZbbL+MuXPn2urD6dOnm6ItVaKUKu5aOhTrJJ/qkLFSlUqyfv166d+/v8nYDz/+KL/99pu0aNlCGmjd0YFhhdgS5vMYPl5MOscXg/rLkcQ9NRnNxL+k7mPGjpEqlauYRq1bt57MmDlDDh04ZBp3/NhxcrcW9ONPPC5d/tdFPlHhAEgkd65cUkIrvUjRwpIlc2Zr0MfZlETDAxGInjBYpQmY8edatTKLobw2PvAMorURHVfzHTwA/LOOgj0T2rz4ko7Dn5dmjzaTt995Rx599FG1SsrIBm3AkdpT16lTR0JCQtR6ul726jBh1epVhnVYsFBBVUY1Dbfw+PHj1hugZAAsYT8C4gCavVqVaqY8ACYBHYfG+vijj8l1ta9ToaspK7Q3dE1S+hPf2e6sanWAnLRl8xbJo9ZMh4872DMoIBTVsGHDDCyldKnStplLocIFZcL4CQbPVrRYUQNFwcoBuNUNM82wRzBOX2uDXbxksZX/HXfeLk8/84zlGbg3NEQrHRrddPNNtkK2hlo289Wq4hlAcPLmyWNysX3rNi2rzXKLNnTqAYDShQsWWDyUF5ZcRIECJivUP+UOUtbVV19twLoPP/yQ5FGLEdkjDDAvJ6gFSFqB5qtbt671/GVKl5bMmTLLZLUGLe0X8MYqNfiSsATWrVlv4735C+ZLu3felb/++NPG4ZjcAJRgqtuuySonoPZQSce0sQNESYOz1qKk+bXKxh+QZ4znwELERH7ssUfl22+/k3HjxknCkXi7j5XATkZ8E0APi2nfqNG98vTTTxtiUqZMGW2fhfAMYdqLbzBE5AkTJhriMYAsjNfBNSTiowlHrden0LEoMLfpMbAIDifEmx+UBwoFdBxqhjmECLUiMmTOYGPTUiVLGYKOC4iBErF5B+czAeC1tqlgFyhY0KyUl195WXv5t6xH2q4Kak/sHoNGI1zix3pguIHS6/9LfzNpEfbatet4AkzDBHQYyrNYseJWn5QJZZtey466+/GHH22vCMz8uXPmGjQdZQjysFlhWr6gUFFmv/76q3z//Q+m/O66q4FZWAw1CMcN1xqLlg0I20CW2VzAyZPmVrFCBZMx5CZqV5TEajnHqjWG1fZ9t24qDz2tI8C6837TkYYoGWgN9/CQr0uqH2hJLVAar8uYqPRUjzd7XK699hq5S819IM/GjR9nzzCu3bdvr8d8V1NwwqQJ+twxGz7Qu+KHXvVwfJwT/ilTKIytY2Ni5fsfvpfH1ZT+qMNH8lizx6xCgaDKmDGjwabRYNhEhUbPJiKVq1aSl15uYzDjf/31p0GzZ8uR3SaOXnv9VenYpaP877Mu8vKrr0j+AvmtJzl+8oSkz5BesmfPZuY+CgqwkXnz56mF4dmoJf5Ighw9ftRMfA4UGfn3XKki0XuwTTCpTUne0oWppaIHCLq/DOhv8wxFSxQx4UeJff3N1/J2u7clX0Reb5xhKsie/Rb0Wsuiivb+H3T4QD7/6nNp1/5dLYvHLcy0dJgcUnfOEap5B8QW/EgDbdEyOXI0wZT8xg0bZMasGdK+fXsdorWXa+tca3XKczR+FIWdqxv7WQBd/8ln/7M6e7H1C5I5ayaLy5Ud/NjzGk+cytD+/fut3LHmgDhDqVJnAJvmzZ/XQHGxKh9++GH55PNPpPP/OsmHH30gN910k/MKk1DTzpFmLQF37H047rCasUOtQBs0bKDj/bvl5ltvkieffFKWLVuu5ttCuffeRjbmnaiat2f3nqp9v7cxc6aMmWwst2HtBhvrMxk2cvhIHT6Mlw0qKJp/6/myZc8uy5YulRHDR9iONnnz5JUePX6WmD2xFj+llKA9CZWdEK+CpsOIAoUKyANqEtKDYFKW1R68lo4RO3fuLNOmTJOOH3WU11591eYSsmTNopZLrO2dWLJESRsSdP+pu0wcP0lWrFhhQoF1AIFXqEmycWOGsHAJUyvDHUPix/VHbwb0W9/efWXAwAHS9t12MmrUSPm4w8eWL8a9e/bukdmzZ0u377rJIR3XbtiwXnbu2GX3JkwYb/syPPjgQ7Jo0SKbFP3rz7+k5RMtbP4lrRM9NEOd7j26y6QJk+Xzz7+QQ3GHJEzN78xZMlsZrFm7RgYP/t3KYEdkpAz7a7jkzJHTLLbpU2dIxYqVDKWaScAxo8fKs08/a3MwEBOJ69etl+UqYwlYako0dMqdSVaIeRzqA0XAfAHyCl4llmGlSpXsjc34cRPMEnhMh3QbN23yQOtRv2mI0r3YurX/twMUor0d2C7169dPfZhmjY/GwMwrbwfYuwBav36DTdw89NBDEqQmgkF2KTF+jYneLXnz5pPrr68veXLnUcGeYCbvO23fUfe8tvHE6rWrzXRk4os9AqZOmSrl1XyrpQKUWRsnM+tMHjL5tnt3tIGP1qtX3yb4iui4kAaPsGFZAGNd+9raZkHQMCtXqaTm91aSLlWrVdGxZ03bk4D5C/ZC5E1GRKEIyZMzj1oq+2TTpo1qSdSXEsVLyPQZ02yeAph0ZpjprZi9RgFUrlrZBGWrhp03d17beg2KjdkjWbNllbLlykh0VLSsXbvWzE+soArly0ub1m3UVK1kzyKEWCrMYjOvQFpIA+VSrVpVWbpsmVkKjZrcqyZ1MRtuYQ5jYTHGvRhvg/4J2duBFcvlXh2OucT8BXD043UIB9w99ViiVEmpVr26WlzZbWiH1fPMM8/YsAqL674m99mbF5Rv4/saSU2tMyDox6lSpAGz2W3mLFmkSNEiKnvrZNu2bVZ+WB233X6bREbuNLmoUrWKdRAolGuuucZAZ3ftjLKh4zVqrTKkypUzl4wcOdKGBk9o+VPuaU0BaJOToNVr1iDDZ5K6Dh82QrXoLGn/bnsbl6YqaXyY8z/9+KNpbXYx8iXMXRPMNFaIAbo4NG7MOO1ZB8nPvX92XAKUEqQjxLQ7HEhKAQUQoAClDp39i0Fl10y/WGy2tb84OZK6BfiKYZMLRMPPvQBfGF8ylkCAAhSg1KGAEghQgK5wOutSYv3zsK9barMl6+xLRgN8hfLFlsUrhAOWQIACdIXTWTEGg/THMyF/5r3UYuLUkzPcA3yFs8qEyaK/ewG+IA5YAgEK0BVO5wYVMWWRxD01+b+IM8BpnpGJgFykDgcsgQAF6Aqnc34sZIc/91Ri0/gXOc4AXxpskuHHPcAXxucAFbFy93sv1dgO/3Hui91nUE2bN2z2utmyW/0FatoX/83YuXdWZlmu+nPxAH152+Zt0uOnHuaHxTt/DfnLVtuBzzdt8jTZtH7T6TD4dcNxrk8Y8q9zz8eP180fu/6U3bzx++uAQbJ50xbL49A/h9r1kN//kOVLlxtWgcXlhu0TRiJ23N1w/eU5ESfx/5+yeyR1d9I2cdxE+aTLJ+csX391snbVWmnfrr2VY3LPU1aA2Pi7d6nzJTMcoILAAPjkk0+kd98+XnAGkHWgsAzpPQAQPtBNU6ZOldEjRxtUmEuEAx0/6kH+ZdESpQDghPssQg8dOHjAVttBC+bPl85dOtuy1Gkzpsuw4cPlo48+kg4fdpD4w/G2ZNgNx6PF9DJEHQhT+aSDVMstS7sT1/Bhw21ps91Qcv1Bbt4Ox8XJ2LFjZP++/XLs6DED/wA6DDCUn7p3l2eefkb+/ONPwyQgbPJEHlh0ZUT8pC/I8+uG602rS77nPuT6T2s0d/Zc+fOvv6wuy5YrKzfedJOVgS9Zvn1+vXWiRDlR5+BJAh5LgzijRTh+KavhWucrl6/0OFxGlK5Vq1bJLiVeu26dgVsCkxQSenGWEi9auEgOHjwk199Q37nhoSA9OnfuInXr1ZVVK1bKVTWukuw5sntuakWBQjxpwiTZsH6DlClXRnbu2Ck//fiTLFm6RMqWKWvLPsEQAHWH5bpbN2+VHdt2GAgEDWb2zNkyY/p02bxli+TPm8+WhkbvipbZs2YZjkFkZKSF/dVXX8s9jRrKrbfcKtWqVpPvun4nFSpUkIj8EdaAWZLL8tGtW7ZKkcJFDORi586dsnHDRsmUKbMMHzrMlkoXLFTIyhY8AJCDI/IXMODU1avW2OrNNWvWSuaMmSVbjmyW92nTpkvValUlZ44ctuT3ow8+lAeaPiC33Xqb5MqVS7p262rr2ll2jKJbsWK5AV+uXrVa8uTJI5myZJKZM2YZwg6IPAClAIzKclvSSVmMGTvWltlSnoBnojRMMSSjHC4mUX6gILHMGYraGWXKcOWKFbY0G+AWsBWLlywuE8dPNFyBHdsjTXmCK8GycnAoj2jZ5M6by8KIjY4xRZola1ZDqgJybN68eYZQjLyAPcFy6/z58huIKTgVYDQUL1Lc6uVyIH96L83Scq3s/fv2GQgGuG8LHCw4ej7W1X/coYP10t1/7iHvvPWO7FaBYA04SLEASlK5NE4Xmgvl8Meff9jzI1TD9+jR3QBGpkyeLN9+9631uOALunRw/0EJDU0vmTNn8jhoydFogSOnYYEy0+37btJde2aEDmTjTz/9zExOIL/atmtrYJcHVAF88+03Fg84CUCjgfKDsO3YusMwEo/r+eZNmwwgZHfUboMdg1zce8hjynl6tuvqXid33nGnTFXLhy2zAC7t0uV/lsa//54nX339teWT8gENGTwE4LEAzRz611DDTvzo449kT0ysQW6RBnAkrPF7iivNESAvKFPqCcQksBItz0ooxE8++dTyC5BMx44dDS5syuQpqmCHmR9o2vRpHhTozVvk7XfeNpCQ33W4+U7btgZki/ImHDqAfXv3GaAIGIYonMuJwNn0VHQaZ/YQqFC5goGG3q0987ARw218F6SN4KfuP8m9995j8Fhff/2VAW8AIlG7Tm2DBa9d+1o5fuq4HDmmQwEnPBot8FHBoelMqbR7t5089NhD0qJFCxk5aqQBjbL9FDBj+E+nllBM7G7p3ae3DOw/UH75pb+8+uqrFkelKpUldk+szFKhYx8CQCjffOtNWbN2teyK3iXxR+IlZ66c0rRpU7m/6X1SvUZ1mTJlipQqXUoqV60it99+m9SpW9vieuXll+XpVk/LW2+/Zb0T0GqCLtI0AHlFug2kVM+PkR8lgFaqXVXdFAwoODlz55KOnToYyvDLr7wkf8+da4CnDRo0kIWLF8rhQ4dVwQUbBl6zFs0tjVhA9a+vr2l/0GDVM2bOaEqEMnbLLC1x0eJFpFSpUmr5VJKqWoaUXTpMfSVAZIoVLyqPPf6ofPrZp7Jz1y6tm1nyyGOPytTpUy3/hPGXDiXuanCnDiXDrWGHZUxv7hn0+slnnpJXXntFrYTMMmjQILn73rsNkOXuexqateGblkudzzExqL8cSdxTld3Dx41JuVWrVmpPHSwjR4y0vQR2qnZevnKF5YNNQUCS4bliJYqZVsf8o4emodDDA9AZlj69N0x6cCNtTMHaqL755hubHEKhYCoDVQVKEGMH86+9ANDToPUcjj8sI3QsD4TZ223fkRwaN3DTu6J2Sq9eveX1N16Xzz7/3J5HINWbKZoItRyAGitVsrQ1Qu5jAVia1GIAB3HIH0Ok1XOt5N1326s1s9uGGG6aYRvzangAXgJtRZ5xZ1cdhjmGb6f3vv/+e2mn1senn35qygHLqFz5slK4SBHbSyFazX52LAKdB0uifv16Zg288MLz2nsuVYsns4Vrey4ydvZJw3/B5Bn2dQO3MVyHQIY9yH28OCfAqoOG5bl3yrAIS5QoLgV1OLhsxTLZtGGTDflq166t9XhC0gWrXx0WptP8ggvJMye0rAmHZxkyHjl6REKCPZiObhouB/aozjROjG337dtvFYBZz65AuXWca3sPaA5A9KXCGAtTWZhxhw/HG8SXTfwp0WDYr8+ESWnt+nVmEu/fs9/mGkASfv2116V58+Z2n0ZPAQFfBSEcxPP8iy9IyydbGoTZ2jVrTBmRhnhw6LR9tm79orzbvr189eWXplBKlCyhJmSCpd2dYKORErarYFAUhPHll1/J4sWLNYw28t577U2xYe5jfZ7Sf/aMQ6Afu7VHnmfqmBU4KwQfJcj4+I3X39CwWhtIakiImhOqJG664UbbZwEoNhRAzlw5rEzYa+GLL76Q6+rUVRP4fzapakQcTjxpjdKpsqZhunXqS2A1ukTZhYWp0lTLDqi4YUOHy+jRo22jEANrVQUAAQ3G0KtQwUKmUBk6AvRKZ0LZM79DfO4k4+VC5/hOQH0o+7+XeuzGyew2DXvo0L+k2eOPyzvt3pH3PnhP2rZvK21UuBcuXCDr124wnL6xo8dYQ2TS8N1275p5h5Ds37/PKhFwz+3bt9n4nAm/RQsXmmJg3H/w4AHrJfapX4BJARRlEpHn0qULsUaGNcGeBUcdgaikDQhc+y+1sZNG4MCZqLRtwLSHZ8KJnW0Ys7qotW7+PBbKMVMKpBElQBxg3bGTEUCnkyZNsmuw9RJo8JBTLhBgl7sio2y2+vNPP7P5AMx/7jN/AegpimzmrFka/hGbU+HenXfdaUr014ED5ZbbbrVXjlOmTJV+v/STbFmzyf3336dlUdJ2X3LTmyaYzCt5r7W8QAHef2C/bfHlKZzT5eM2XJi6YxMY6gmg2pVqQWJR3nX3XRYu1iK7UqEkse7wj7sbFtYAFicTry4UvRv25cBpVMcrqbKlV9u0cZP20lmkXt161nO7xOYZebSxbNu21SbFihYrJm+98ZZ89fVXcs8999hY7tra18oi7VnBlWdrqoiICGnf/j2bDGMDE3p2euWWLZ+UP4b8IR9//LGF/fhjj9vGlkBLM7eANQD8eNEiRU1AkIhj2sBeeOFFEzxeHbGpx2tqSWCpvP/+B7YDDm8AmNnnWcxQI/WfKXMm67XJY+PGjWX2rNkybuxYefrpp7Th75MPPnjfJj7btWtnu9bM/ftvm+FnTwVMc8zgjz/8SJ7Wcetnn31mpj674NSodZUpk7ffftuUwhtvvKkK4YCFu3jhIjmw94BBqNeoWcPg2gBbZShUShXPypWr7PUrFgGw6DfddLMnvWmY7rjtdttohYlAysd2gtLypV4NcRjSMqbewzXfWAL5I/LZ24SSpUqa4oboCNhohO4/T+7ckiNHTs8rZH02R/YckjFDRoK1NzF9evfRTun05OLlQEHaSDzqLimp6yhtCEwqsYFFhkwXB2i0V8+eZs6/+9675swGo6D85smXx66NSLE2xH179tmuQllzZDVnXnOxQ0zO3GriYrGpiuM1GNouZ65c1oDZaw+hYNx/4MBBjzmsYfEBEho/T/481pAYL2fJlsXmAXLlyWUmIPMBblwQZjpvLOjteQ4ivWxemi1rVpuXwJwHppyZZxQTYTP7T09F+KST2XnG4Lx2Ik/MfLN7EkqQazNDcVMBJa28McBaIV/ApbMrkxHl4pRN5A4dpigBjQ7t3rXb0shbgueee862J3vokYfsHkS6Nq7fYBYUG6CktW8DeO03ZMgQ6fZDN8fFQ9u2bJeQ0HRaflmsHqh7UH9DtMxy59XyUtq5fadZaSAPa6HJU089JQ3vaWh7NkLsXB0TGyuFixYyRcnWdsgCw4GY6BgbWlDvlB0guCBdU5eXAyHDQQsXJa8E6A3/1l7ozTffvLhKQE3dd9u38yAMA+8NaWJt/z1m68+XfBoFzOszPipyCcFPFJ7rl7hO8lFN8Nkbg/o7L1vKDTcJWQWcZ2NDCaEI6MmtrLQsTmka6cUIw/KivXqieNz0OfGvWrFK+vbrZ28+unTqbIrVdmECTt4n72nRPpw0fpJNmnb93rMvgNE/SCtlzRBwwIABpuiwsnLl9nwvkJSsXtxy1HKhaKC0phhTgshrms5WiLPRhtWCptQaLOcuIwQOHU045nFzyMw5tyKdXxQAjcV9NlmFQlzag3sFITlKpvTcrxEpYF8yK8C5RxrOpWC8E1DmN9ijiEmTUxbptAd004gCsK2xnGcsbjd8x096HdM2uude6dSpk/aSarmoeyIFwO/Z0pTWyE1rknL2R5R1xoyZ5K4771LL9m2PAuA551lvvSjh1zv01HLh+pyycAnTOZYSK+k/v/dSiY2cOHl9l/R+osPnfmhYiMfNuaaBeP07bjAVam7+wv637PsKTc/duJOmn7iTS9cZrM/y7tvO9dCTxPdddsPRw5SC84y/sitRsrhcXftqycvQyve+Txhet7TGetifv3vnWZdly5eRG2+50fJvbjznPOutF4ft2rc8fM8vM1axvAToQrTwxdDgvnGkVnyXcU+UpukKKPc0t5TY+DLWugG+AA7IRaowU0mm7AKsrP/Oev1vWf+d4fZPWf+d4RbgAKcAXxrDgQAFKECpRmkOVMQlf/cCfOXyfyGLVwpfupbAaX1xbvonfqF/6j9AAbqE6RyvCD0a2O+9VGT9d4ZbgK9wdjSz33sBviA+x3BAfy+yIrCKTlrZJ3zOYee9vBdTkPvqxheG/PJRDotFkvo/J/v6c8LhnHgMmy7J/URxBDjVOZEcavm7eIF86ON1V3br7Yx7jjsLjpLWpd9zZZMpznnWJ9yzsuv3fP3/x5x2hwMefWC0bdt2mTBuguerQCgIYWC57xGZOGGS4Qng/88//5Tp02fIgf37pet3XQ0Y0gRCH+HXGyZfiek5X9cZaIb7xZl7X4nw+bgH4us8w6bjvutH08AnzYnCDdDFIy1/qxMlPuzxJbfe+GrS7rn1i7vWVVi4BzzES279qT+WE69ZtVbavNjGnu/dp4/MnD7TPtMGoWhPzB7Hsw+5z+tvQlyCfXJucTnpSOsUTBNJ/lCiwV3kA7IvuZxj7fq10rFTR/lt8CCrJLQ1Kafxf/75ZzJs+DA5pdcVKlawJcGkeeGihbYW3D731HtBKgtoPT4Hxa/dC9HGHRps1wY66fxS4TzDghTrGfRw7/umCzcLN3Ck+mFy6FP253N4pdv9pQ79hKH2pKdXVH/IAwhSy1cst+dBh1q/Yb3Ff+ONN0oowDQcjlzY4Yapv+MnjjfYOsflkjjStK5yv71nXXx4eLjhAhoiEA1b782ZM0eOghxkDmJ+wA0AYCRLtqy2/p8csrIPbd67d29Zs2aN+aWHwLKY//d8GThgoC0uAWCEXsRW+ampP3v2HFm7dp1p/w3rVRCc9LCKb9SIUTKw/wCJ2hXtSU+ALjqxOnPJoiUyfeoMWbt6nVl1mP8L5i2Q7Vu3y7gx46xuWUmK1TdixAit58VeFGb8cz3k999l/LjxEncwztzpyUNCPOtWMoZntGXXyAVLwMPC0lv9s0R9T+xeGT50hKWBsDau32go1JMnT5YtG7d440nrlKYmBvWfkyznGg2rvzTKa665xip99ZrVli6AIxctWqTu12oFsa/qKVtlxqpH2iRoMkBtRW6PlBdffNHcUSZgBiyYt9D8//Tjj9KjRw9zZ3XZ9z98b5UJ0my7tm1l4sQJWqGT5NvvvjPUHeKdN3eevPnmW7J161Zb7fjGa69bhRNegFOXTTJ8rqmTn3v8LDt3Rsr333eTLl26mHIHY+HV116T5cuXy8L5C+Xtt96Wfn37WZ199umnBjjK833U1O+mw0bq/6+hfxkkHO6AhuDGOZ1MuuB0BljbsWMnk4358+fLB++9L8OGDpVdO3dK586d5e9588y6jNq5y1Z7rt+wwZarEwarV/lNq3yJjFrEoLbq1KljyD8QoBmAQ5QoXtxj8ieh405jnjZ9ugF6PPzII/J4s8elZs1aBjBJj1Fbw/vww4+kWfNmcs+99xr6LkAis+bMll1RUfL2O+/IM88+Y6AiYBpA4PNVqVJZWrRoKc8996zh0Y0bP87uBejiEhDwJUuXkiZNmsiHH30ojz76qHNHpE7t2gYUSv3tjNplQ8XnWrUymPhJqtiha6+9Vt7/4H2577775cmWTxpq9d49+wxBKCmlTx/mWamp1uVxHZKC+dDkviYGNXf11VcbdHvpMqUlW7ZsUr16dbnhhuu9cxbpw53VsGmULgklABgIJtpVV10lK1asMDML2Kwq1aoaOCfzBEkJUAkQYQBF2bBxo00UdurYWTZu2iBZAfNQAgasd+9e0vWbrra/ABoc7U0cRQoX9k4gVatWzbD6mU9YvHiJrFq9Wnudzp6Jolg/E0UBuijUpk0bWb1qlQGzAuUGFBxDSHo3EIEggF2KFi5iyE+Y9MWKFzOIMDoBcBV+++03Q6gG/RkL4OCBAyZvSSlY3RhmIofgTZYtU8ZAY2noxbUjAkcSWWF+AQh5VwEYuQZuGiUdDlBo/pnE24+P20VhLU3fazkVZGO0IkWKGULQmDFjzTwDcixehwhHzHTz+LM0K4NFcPS4ju31XskSJeXZZ5+VVtoTtG//vjz7TCt97oh00EYM2sz9TZvK9dffoFr+hF5nMIy//SoM8Yc8SMGAnB5VAaGWY3R8Wfe6uhrW8wYv1qlTZ2ncuIk3rQFOPab8fa+Ba2dvh+dfeEG2bd+hVt2H1iEgE8e0Lu0Zbfn8eJQDcOIZJUNGkJiCpFu3H/R/sFqIzbWDqeFMOjMnYA96nleZ4hfL0tPZBEloSHqVr/TaGbHlnKhyOCXpQ8M8/vU+YR4/6onfmGDc8zTIadcS0MTZD6/gtG3TmDGrwAZkc5By5cvbJh8hqv3Nn9MDMJbDL70CVOfaOrJlyxYLDy3O5NAa7cnB52fzikKFCku4mnoAgzL2Yw6AnX5iY2IN2nzN6rVqPk62sLASrr32Gu8rSeYlBg8ebD1KgC4uUd+/9P1Ftm3bZvV16623Wp3QyzNBDIArxC8y4W4k43nj40FpAmA2okCE9fwMBdk7grcCXJ84qWa/NnIz/wFr0QiZdAZuDkDb0NAQz65cKpsMF13UY3aI4jrpa8u0TGefGNRMQf7vpQ57Ijwdp6kpLejMmTJp5Z0y05yGe91111lBM/mXy7D31ARU04+NRxgKAMMVHhYujXXchoB8/fXX8uknn8rCBQskd57chizz0IMP2f4BHTt3NPjphg0byvChww10snnzJ+SHH36QFcuXy4033OARIk3Hs889J8WKFpNPPv3EgDmjo6Ilb758ljbffAQ4ZTmpXNCIaezsrgR4bP/+/aXB3Q0MtxEsRrYWM38JRwx49NgRtRa1jthoBOBa6vOuu+6SYUOHSccOHaRM6TJy990N7S0B6M8FCxS0/Qeza6NGpvDP/hLIG0NQhhn22ljjAIMwT+48mrxTNi+xeu0a2zTWTWta56BZs+c4JZyE1HXc2PGyYMF8eeXlVyQ8U7hzI5WICtZC7devn+zaFSVvvvWGNTrc3U06GWfxqocZWwQAOuq8hsFKYJwHXJa9KjLT/jSeIB9xsI+cC7zpxndAzX422GB8B6H9Xchx4L+B9Or5cy8b8wHQaTsSKQFICXmBRylFz60ApQJNnTzVUKK/+PoLx0XlQmWBN0ObN222yV93Ag53e80HdJoSr/54vUf98FqYuSB6ce7vjd1rk3nuGB7ZwRLASsyWPZspBKxN/PKsvS4kHJU774Sf1j2bxQIUC7lyiLViHy6lYdkgjed8RZjo92KxE5/naz8tQS11Gh/X7NrDzjGOL4MVY2MN/GMZ8EuFsoWYPe+EGZYxzLaRopLdcDHzsmbPavDUrj/CYD+CYcOGyZdffCndf+hur5QaNWpkVokbZpbsWYzd5+xwzwOcOpykjE0hqwVYrERRD7ycj7srCzBbqumZneMPWUjnyEz2nNnNv+uXDoFr5IJneFNAWMgNzxIfcwO+8XGYf+fa4tYOxvyavCXeRSqt8TnXDpi2SOKemuySnTvfCaBK3UL1rVyXaZxJ3czded5llIMrOFzbduQ+9431wN+zzz4nNWvVtA0uXnvtVcO1537SMAN88diVixRhDn/uSdnx56sofM+TZZ/nkpPPtMIeGygtk6fuLzrl0B6i/vXXyxMtmkvlKpWthwjQFUBp1GxPTTrHcEBJ//m9l4qs/7ya9D9jPZgBds/tSOonwBeNXfJ3L8AXxpdW93axrQJ6hSuwZwjQlUUBoNEAB/gK53N8J6B8kc1giP/+7gX4ymYEw597gC+M0/5wAFUVoAAFKNXoHK8IPZ783UtNDmj8APtlDn/uAb4gvnQmBpNYBLamwCWf00uSNP185eZSorwp8VWXPzIMO+5d6vlPK+SvHJO4Ja2by4Fc4CX/R5Anwz4uqX7Q2JOFkfJxl3Sez4ntKjn/l8qh6QfqzL0mb+657Y7r1hKa2z30HH9271LP/3kc7iyWr1uqHb7l7By28Ejdjxw76uN6eRzn/GLQjiTuqc2mePy4w4cPHpbIbZGeLwjVjvHn5z9nTZtf9yTMJ8gzps6QbVu323V01G7Zv3e/nbufN/P1IlBnhl6kx9bNW2XMqDF2zrOrVqw67/gudT6bXKQIc+jvxo0b5ffBQ+x80sRJnjLW8+HDhtsqRa9/f6x1ATCJ33tplC+Z4QAF2+6ddvLe++/J519+IW+8/ob07dPPGsslSSrTLDmdPGWKbFKh4/r7bt3kxx9/tDzR+FnoAvXu1UvavdtO4g4dNuSjyMhIcx87fpxBXbkLrAL078l3yAUk3cCBA+x84sSJnjLWxkK5s0KVuvJL6r50yVJbqn4pkVoCmvZk2WOD+b+XOuzYfNoQWHThcQPM873270muXLnlkUcfk44dOsoDTR80uPERI0d5/Gkl8gyAk4cPxXufBfjhkFoP3N+6eZvERMV678Hbt+6QPTF7PfGpH/xH7Yy235PHVVOqG9dHEo4ZVtz+PQfk4IE47R1WS0y0huU8s2nDZvNvz6kbYe+KjJLVK9dIwuEjdu3miWt6/6CgYFuxli4k1OQqOhoAyyWydRuWgVZOSDrN+25TFDExsRrvQSlbtpw0bHiP3ddxgP3CJ1VfbFcLadGCxRIf5wFD8d7TdO3fe0BWLl+dqGx45sC+g+ZOHs3dSTv3Irfv9JSdXlNGVh56Tj62bdlueU4EnpHK7Jtfl/fu2a8WVIy3jGHKjDqirjepBUW6yc+WTVtlT6z20k4eYa4XLVyiz0R53QEkwfriOjQ0vQGRsKjs3nsbSaZMmeXIkWNycP8hu08Z2bk+t3/fARkxYqQqjkkmJ24caZ3TPfFEiw9oev5o08ZNsmvXTsNQMwCF1CZNEOCQmFx16tbxuoEnCKho5y5dJG+ePALef0S+/JauAhERBv3FOvDvv//e0ITHjBlja71LlSwlM2fMlD/++MP2Ihg5cqSMHjNa8uXJZ2AS/X/pbybe9h3b5Y8hf2iBnJI8efMa7kDJUiUlZ+6cNiandy5RsqT1wv/73/9k2bJlhnQ8dcpUW1PAngiEvWnTJrmm9jUqdCekV6/elg78jhk9RsqWKSs5cuWQv+f8beCmAJOAY0h6y5UtK0WKFJW5c/+WApou0lqlahUN56Rh17F0mrTdftvt1iv9/vvvcv0N19vqxly5ckrlypUtLyOGD5fNW7bIhAkTJUN4BilcuLClv0ePnzWfw2TJksUyY8YMw2bMkSOHpn+KfPfdd7J582Z9ZoIth61QoYIK9ymD3Rr6519qGm+QdWvXWRneevutZpF9++23Mk3zvmjxIlmwcKGUV8XEOvvUpK1btlo6brntFsdFZNjQ4dKnd2+JitolY8eOld2qRCuUryAdPvrYgGVnaN1PnjzJ6mV3dLQMGTLEenbyD57ErBmz5JuvvzZgEtxZVl6xUkVVcFtl1qxZ8vAjD5vssfqUZeXAyQFxt1hlEeRqEKeGa5lTz6VKlTbwmkGDBtnyYwBIypYra+lEWbD8OE2Stq9zrB1Icn2xmLR5z08Z5h8go6zgo9HhzuossAEKFCygveo2a8SAggAcCWjo0L/+Mn/Hjx8znEEq/r0P3jMAkDlz56imP2LjvfrX15fnWj0nTz/9tK1BB1B09+7dVpE8D3oQ1/wmxMebSQigyUcffWSC/6c2lEcfe1SeefZZmT17tjWShdowlixebDgMH3X4yHDtQLY9dDBOunfvLlWrVZP277e3xgu4JYhF5I216tffcIOsWrXK/IJ5B7AqMGpBwWyAwkwgFgO9tpWSXXOeIUO4PPHEE9KufVupVaumDB061BQhaVq5aqW0bdfWhDhf/nymRI4cOWrAHE9pvknLk08+KaNGj5a9e/fKypUrZZQqtZdeeskg2dauWyfbtm/X3vSUjB41ysqhU+dOVgaUB4qKNKQmWz45nGtwJn8fPNjKEJyHx9RCDAkJsaXmIATh5733NF9PPSkTJ3mARTt17iwR+fMbuhSKbs+ePdK8eXMbYjZr1kwmqT/KPWNGj0I7Ha8YkjBKkg4K5Co6pYqqMN977z3DMkCJXn3NNSqPBU1WGza825NWjSetrzxNs3MCaE9K/0j8EWuAoWoy22s0X41K7eh15M5I7VV3Sb169aznu04rAXQZemHWg5cvX16Klyxhj1SpUsXgpqC69erKkN+HSM8ePe36tjtuk3D1D6gIhUP4CBZCAdAkjRVQSSyQ9OHpzb161WoGSFK8WDEThhMa//wF860BDx0+zABJUCguiCVWR+VKlSy+woUKSYRaMul0nAkQBY2rfLlydr1+/XrZsnWrKaZSpUrZqynmEBg+uPss+BI91NZtW2XwoMGmRFbruBQglHnz5pllAj4CvdfmjZtN+IHYql27tqXpryF/mVUTrZYJ1g5xs3Q6f8H8NjdRrWpVi4M5CpQSjeCX/v0NAEYLSnbs2GH3LyZhmTZu1FhmzpqpZdxT9h/YL42aNDKcAJQbPXdYhjC1rApKmdKlpUrlKgbwUbxYcU96tQjJP40asJKZM2cadNg+VYI0eH9EHYJJSbmW03oqW76spaN4iRKyQ5UkZYGfw1qPR486exsYLmHapjSrBAyRRYmKrKiNhoblNkyXMMfYWALKoOYXaEKs/wcVlso4dPCgVSjIMYCMMOHG2A6iET/R8gl54cUXrPd455135NcBv9rzxAOEFILC81HaOEAuxqbjebunhEAAV4W2Jz5TLiilHZFmjmPm04CBtgby3Hp8JTcfhIOCoGFzj2sQk1Ay89ScpSFXrFjRGiSEH57FYnCJZ2O1UbfXHmnJkiUq9AWkqA4tSA8KbN++fQaagjtpuVt7qAcfesjy1aFDBxmsVkFONY3LlS9n/skj8VCeLpFnLA3iNsSdrFlNgdHQCOuee+5xfF5E0nKm0b/yyquWrh4//yxffv6lNTqgwNx6DtU8WVkwnNUyB2EIJcs5wKSj1fqhbIqpEucZ8k6ZGjk/EM/EH4mXdACXuvIBqR/OiRN32+9CO4f0Th0ZLF0ap3O+IoT83Ustdome0XWjJ9+hZufYcWO1YR8yU5DXaWD8TdExG7iDBVUo16vZykYlzM7u2rVLCqkbKMGmGJwZd8Kjopn4mTNrjpnmTz3zlLRs2VLmOhuU0DvTC9O4ly5bKps2bzKgSYQJhUFDcdNqM/gqCAZnpfHQuCrR06tbjZo1pV79uhZeJhWMPPnyaE9f3gBMNWcGhQ7kmdv4iBsBxMRlnD5GBRTTMl57FgAvURjEQzowzUkLSoMNMPZrY3/ooYdtLmV3zG4LHwsqQgWcnvGGG2/QtNSTAhEFJFfOXBbmsuXLpOHdd1sa4w9r73X8qOyN3SM5c+W0cTLQW+znyLwFwyd6WfZ/IE560evqXmfYj8wvuHWVmgy559Qn4372nWAY1Ozxxy2dtj8E97VsqD/qmvKlzPRJa/wgUWPaIyMN724oNa+uacpt3/59Vi7UAdYgZUzHQnyUO5iV1APhwW5ajmm9UQ4MUcEbxFKwZ/R55IN0uH7TIqdZS8DI0cTltZdq2aKF9Ondx6DDP//8c2mrPTeThICAsj9cbe1tmXD75ZdfpK+aqfXq1zcNj2bGjEYBQFYpmnH9ZyYyu8f82v9XGTN2rFxXu472urmlznV1ZOCAATZMWLlipeTLl9/MRnoBhIlnIRQOQkM6UTTcQ4Buuukmyaq95aeffmp7HbzxxhsmoAiugVtqvJ9/+rn06N7dACrZyALLx7ZQ0/SRbhobQ5lSZUqd7tX01xSGkmspoRgKFS4s+XWs+7//dZGOHTqZIgI2vVu3btKkcWPJlSuXdO7U2eDR2+s4edOmjTYxVqfOddKrVy/p0qmLLF6yWC2X8tKrdy8zmZmH6NSpk02MoaCwpngV2UzH0FHR0Tah2PadtpZHFNnFJrAFZ0yfYfMcWDNMZFarXt1gvlCmVk/Ui9MTU7bQiZMnrN7wx/i93y/9LP8ofSwuAGlRCMFawJQxaMXIDIqUuiVehkMmQw6hIKlD6MYbbrRJX4ZhkMmdI8dplYImTJx0Oje+pK6TJk22mdDnn39ewjNeHKDRX3/91Sa+XnrlJY+zalMmxSjIXZG7dEy9Q8duh6RosaLaWAqamc+z3I+KjJJ169eZmcrsP25YDjExMTY5BzF8oIcsXLSwjv/2a6+81uDFCYuJHrQ58wobNmw0QapStbJs37Zd8uTNY42ArazKlClj/tav3aCmXwYveOmGdRtskwuAKemBmNBEoGigmJs8c+LoCdm8ZbN9kIKFQ6MHuZZ5hRXLV0j5CuXtWWa6VU9L3nx5DdRy9arVaiFUkpjYWNm9O9p21Fm7eq0NUwoVLWTvtrEeUD6V1B+vvMhn8ZLFJeFwgmzUhk+YzGmQRiZYD+4/KMs1jVmzZLG9GRKOHrF5AdLKGwnCAHWXcTebc3zc8WNTZCgerBl6S57jLUpq04xpM2TUqFHSqUsnx4VXrQk2f8EbEd4SYYExzFuxbIVZJ6AMIxtsXYdMIMO7o2MkZneMlK9YzuqfPSjZy4Kh0pH4BLOiihQpIitXrpLqV1WTjRs2GYw4oKMrtEOooPXDnhcxsTFSplwZk0+eoayRMWRkwfwF9kYBGTVKw0rA3lxcSkogQBePun3XzYZTRVUhMKHYvFkzqaaNwsifxKRy/fhTAmmeKKc0LrcogbO/IvwP2BIG+7kX4IvHvG7dum2b9O3TR66uVcusH+99f4fPs6nBrmD4u5dm+SKUS0pwmpsYhPVfYrdLpDAvJy5YuKA8/0Ir+fTzT6Vp06ZmCfrzd1E5IAepws70UhqmoMA44D8jpwO24ViALlvinZmnx/fHSlb9/u6lEnvFzXt9pp8AXyR2yz6N1MHFlsUrhdOuJaDpMw50QgEKUKrS2UFF/qODhm9AGVcAWEbgOL/DOgPkInCk+OF8yRDgAAf4SuW0PzF4MYhhx3kQ3yzAKUUBMJAApQU6xytCjyd/91KLnQjPcPcy32H7sj8//5Q5/Ln7ssZlKlM5peJl1t2fe4D9M/Lozz3AF8aXjiWAfnB0hJFrzSR1/zd0vs+nRFw+lJJWRYAC9G/pnKAi9ufvXmqyJsyvuzJAGcbagI4fOW5rwPmW25/fc7KGY3gFcYf930/C+DO/HH7u/xMm/QB4+LsX4GTYX7mfr1WWEtabhhEfF2/AI37v/0M+fEjlSdnfvX/F/zJ96R599DH/8GLaErds3mxgHTVq1Eh9eDFH2YBqE3f4sNS6upa5QYsXLpbevXobVNjsWbNk2tSpMmvmTMmUObM2yjhDtqlW3fmu3SXn2TMoifvIESMNfeeqGlfZvaidUTJi+AgZO2aszJ83X8tgi630y5g5o7mzWu3Gm250nvZPfI9tVspZ6O+/58lXX38t9etfnwgfgEUt3X/8yXAAWJzj0qQJkwz4g2XT3vDJi7KvRbFj2w5b8urdSt3xw8If7zp5P2T3GZ4Q1jnS/l8Qi7hYLMSS6ETk5C8ROW7ecuFcG4hL/ySPzNv4lhtYl6tWrzaMCC+dDtpD7nVSd5fUHdDYdm3bSpYsWeTokaPyc4+fZfq06bYy8u+5f5vM5ciZQ2KiY+TPP/404BMWJoEVAVYFdbV08VIZ/NtgGTd2nOFPFilaxCDOOnbqJNWrVTccCZbdn21bfW1yl8ZwgJV4LPVkie7td9xuy3Fvv/12Q/MpU7aMNGrUyBqGNQ6HwIk3ciqCyqTy96vV4BLX7lJTGsHmTZttaSw4fjVr1rS1/KD0fP7FF6ZhM6vSYV25kW8F+5yj2Q1jQMlND2FDvhOBIBWxTJW16C7hDyAUEJH69x8gO7afRuxhpRy4hgivu4zYY8FwjaPnedB+DDmHNMHqzqrIE+TfTafz620kSulC03kUQTpVBD7lmFaJsgRzwkjzyIpClzx7BKiz5oV71BmMG3lj5aavf8oBd8KkDNz6wp0G6rnw/EAZwsMtPG8YGod7/2jCMasXyMrb5zmI+ygklpOXKl3asCLnzJ1r2AZ33nmn3HLrLdox1DeUKqhv374mjzfccIN1DOA7sqw5csdOWwbOMnrkdNBvg6yTYmVj/Xr15NdBgyxu8DjPRekeefTRZC0BBA9UHSwBACVSlTQ+ryWgvbtrCVA5a9essSWujzV7TPLlzWc4eazxz5Ax3Hq+JUuXSrGiRc1CiI6KloULFhqoJMARLCGlkSyc73GbPnWaAU9G5I8wBJhVq1fJwUOHDFiid+8+1jDBzitavKgtRUUZAEDJijoqYc3atZItazZrpGvWrDWQDtBqDuw7YBoZ/DrW4IPhV7KUB9KMXgwg0GnTpln6ypQpa0MBkIBuu+02VUQhdp/KBbeQpa8s4SWua6+9xsJYtmSp7NFn8A9i8LixYw38c8GCBYYxEKHp+E0rftr0aVpeayW/AbBm1jKZZgKCtYNUEi6NAGxEwELxu0mVX5FChW0ZblolcCQ3bNjgtQTonakvlpUvW7pMBgwcaEvCS5cqLQP1HJg0dynvpo2bpU/fPto7VrMGBf7i+Anjrf4KarllzprZViiuXr3GgFiph0JaHqNHjzLsykULFxmeQq6cuQ3EBqIM+/fvL3v37LU4UThLFi7RxverQbChyEFgYkkzPfzcOXNVic/1ID1pvVB3LVq0sN4a96IqvzffcotaALmlUJFCZnljlZKuV155RSpVqSTX1bnOVtkCbYZskPeXXmojxUsU17rOaooF5ChAT4cM/t2AdnLnynVWCxBFlbYtARS5ppDe+qj2mPTGLsXFHbLfyJ07tdEvsIa+Zu0a6wmLFS8ud9xxhwwbPtzW/2MSUbmsN2/51JMmICO1cFkzD3gEqD+Y4SAS3XzzzZ4eRAlIcCrpoYcflNx5cxtsWZRqbIBHgdTapmH/+def1iPM1GEKDbJJkyZ2768//5QN6zcansEPP/xgSgSkIUAvQQwCM8DTQ51SU7CHbN++3fAFwCIAPAQ4sp2RkToEmGbKEDdwAam0wYN/k+nTp1s8tWrV0jz/YijNoP0UK1pMGjRoIIW0J0EhAYj5+GOPSyPAV1X4wRwA3HTC+PFy6+23yQ3X3yDr9BqF5PaA1rOlcaKXXqbKH9BUyvbhhx6SyZMnW+MAHAT0YMoemqMKkHIFBwE/1atXl2aPN1OZOmJIwRB4DSO1vOiBgbMDaHXWzFly/wMPSFh4mPTp09estDDteSlD4rhXy5R4KDuARcapYimtvTvgpWHpw6wBU8egYqGIQR8CXxL/yDOgOC4BOjNAlQq9OwqDzg8sSBQGCggZoCNGWWDpxcbE2LlbV0WLFDEoM/IMpBqYEks1HrM+9dmzUZpcSgwldaORfNe1q5rrn0mHjzsYjPaWTVvMrPag7QRZRdS57jotgIra4Gpor1dAYmNjJSR9iFUMwBEAjED01mDDoSVBikGrAk2FEGBmglUHAg2/pIGGTsXlyJlT6l9/vQ5DShto6c7InRbODG2UhbX3ID78gQpEw0S4qEw0NGZap44dDUMQwt8g7TmA8nrmmWesRzIYLBXwvHnzSOPGja13x6ogXcB6UaPsQ0AaKletLNfVu07KVyhn0GqMCUkLPQB+sTwAXN2teca6ovcC9YZxqGZce6hpGtopefX1V6X6VVd54ddSZBItFRhh9p5r5wCCUtmyZaVKtSq21Dmz5gtFXlvNY+SFSWP80vuDBAwwCDByhbXB0BFkCMsg6zest/wSFsAxd9x1h2TNlsWU5zX6TJkypeWZZ5+Rl9q0sTKlHEtrXGAyEi9u9Prpw9JLq+eekypVqxqUPHLF+BwkIpCtcufKLffff7+BxNCIUSJuedOAaejIIShQA9TKnKydBdBmhAOWpebaOjo6D8oB5eIL6wYBkmtaQb0AVAMStGEfcjj+/HHatgR8KLcWGmOl22691SDFb9BGAAwXhQGOoDtOzpE9u+dEywKUHSo3ZnesjfUx3xha0NDMn/qhh0WZZlItzfAA3D/Gx0ymGOioCghvECj8U6pVKeh0zkQLE3q4Yz6i7UG8pZddsniJVKxQ0dBuMP+yOXFhYWTUeMDwQwHs1XuYjvRQuFO56TV8rRrrua7RoQDQYZiOpM0meDScELD+6B0gfYaGHhUdZTiBNHTSSPgMH7Ba6BGY28DSAFILZKE2rVubcvrpp5/k4486eJSjR5YsjkuBUHg0Pog6y6/DRMqSHheAVsBpQV8CNLUqCnvnLoMPA9aNet67b68O/9KZDNGRcA7ReyIjKAVtI6aUOaf8qW8X4g1iZyKex4r66quvpOfPP5ulANwYDYxwkCOsWXeOgnQzrHXnXkC5fuW1V6RFyyeksVqSIEczfAPclTiPalgQcSAzWASgOtlOVE76gLmjzl3TH7kG9dhtF2ejS0YJML69+ppapn0r6/ioavWq1sNDrsxSuJj3EAWM5kQTY2rROB999FErZHoElAMFeEg1OwWHG4Izfty4RJNGwEZ1VQuE3tQlCjgpYUlQeY+oGd/y6ZbS8N6G9saBRkyvQwViYaxauVImTphoAkKeQDlGawPe4RKCjFWCAD6hFgzIw2yG4eatZMlS1rghlBToxgaCqXmytGl+smhvBrFHQvMWzW0+5dHHHrMyjIs7bHMlCN7rr79uIKXAbF0qjT85ovHSIOn9sNIWLFho5j9WAqjVALIC7da6TWtp1Ohe60Tofa13TUJAwm3evMUaIGGy0cu+vfs8CoCKcYhJYMqdiWug7e5t1Ega3nO3jcWZS8JShdw4GJpS9zt2Rnob6NzZc20ey2RWvSNzdDAoiqioaIl26ho5YjjKpjJgSKJsSBtyvknP6ShclGgslow+iNFno0sDVESZhsG+A75uvGvHCoC5RhOCBss5JhhaGMLEwgTGLBw2bKhNDFKgCAgzvfTkGqLcd999plEB0AS/n3EhOw6hJOh53Z2AaC38MgtNJaB8aPwMMTDB2WugQ4eOtmsO5iTmHpuPoN0HDBjgFQh+QSJ+QMedzPwziYfI0GswnGDTinwR+Ww/BSb8KAPivV4tItI+c/pMG3ei4K6qUcMEgDAZ7zNhdcfttxuk9oTxEw009cMPPpDoXdGyWfMPQOeiBYtsYxEIRUTYcNJyTgsM6VkiN+qN2Xv3msZob3u03JgrYTKZOsGC5D7ja2Rk2rTptnMQ5Rappjmv5ZAVQEjxR6NCeS5QeWFTEeYdmDugkaE0XARimHkinmMSEEuMZ0YMG2G7M2ENMC8D+jDh458JPyxU9ntww0AWP//scwPJ5ZUfVluDuxqYdVhah7Aff/SRyuIok0XmtcCALF+hgll/X3z+hQ4Zf5Oxmj6Gj1ZKGiYWA9iJFsc5hnfpHnkkmbcDSoxp3LcDqf6dAKR1TQGgCe3tgENstgEQJ2N6KshLmjkmajB/AdCEGDtjbmNGsY9cgfwRBrbJmAzo8HTBIQZPDZovVkJERH4bahQsWMDiqFWzlppRh+XAwYP2apI5htu0MTFeJx0oFHoQyoNeIUf2HBY+M7ZoZ95u0Fhvv+MOGzfSOzERRVhYJLznv/mWm81ERBioUJB/ixQuYmXN9mcQYJekn56B7wVY5lFK7xUrVtzeXDApRFmhhFAipcuWtjxnzZLVrAT2zKtbt66llfkChJBXrCVKlDAQTAg49cjIHVL72to2qWjDDSUzKX2KOS0Qb1h83w64RC+PIiW9x4+f0HIsbOPtcDWlKXvg22up9QOh6Ji3IRzquumDTa18UB68CWJSjzcKWG351BLAWmISD8Xy4IMP2nt7ZCC/yowLXHvs2HEppf5AhSZsTHTCe/ihh6WI1hHlbsC3mkbSCvFGid2ODKRV00SdZ8uWXfbExlp93qtWCoCzbBpj4Kkq43yvgowDr85rwZy5VO5UFmgrO9XC4a0RKNmUA5Zsv759pcl9TVS2c5+9LrXNBQ0bPsKjZpOSuqIxmYF96qmnzJxKVdL40FiMfzF/Wj3/nHPDMxZyibGfEal2MseYyJ3Rh1yzyu47/nDDdPM+70MIizUAN0yfsBOR4+769ww5PLcg3+sz7mkaIVNiTnp87/uN0/OIlygfy6fj1xtGEn9eIjy9p8r+dHkkJb3H5Ke/cklLxB4RfBTGVnJGThmcL1FWNEjbFCTpc275JVM+idyTu9Zfv+Xs3EeG3TImLX8MGWK7UbVu3dprGbr1y7DROl19zmTbkZmkZPVP2NSf8wqfMHhdun//PgMI9vecLxGGrximKXIbjUtkMpGgkjm8+HgjQ1xbw3Az71MI7vOuUjH/Sm4P6O8ZL2m4FDDk7TGTlJ7vte+5q6RcReWpWDs9Tdxy8kO63LSZu8O+ig7iFZeRcx8hNHKuUVb2XNK4HLIy1vup/g1IahD5Jf1OmRlD7m9S0sIxeHrKxh+57j7PWx0k9e/n2q0rK2fnfqL60zBp6L7+Gt5zj30zwleg7jNu/boKAMLNlTuXyDdhuQrH5No555X48mXLzDo0eUiuPHwozb0ihCFLv2aea8x2PbPzRONV50CVcc08gLm495VtjQFflrmbQmqY7qsZxoe+fl3Gv3uOlj3KNtVOPITnput82U2fsROOe+0bl3tY7l1AFfeey8TtuDMz7puWRM+oO6Yq55Zmx497L9H1JcImF77XlKMeKDt+rSw5fPwk8ss5eXfyb/4593mGryvdc8rT68fnOS871/7qyitvsB7E77oRZmj6EHn9jdc9u0A7frzhc7jPKvOsbx16w3L9+aSL14atW7exN0b+0uWPCS5ZMuVi6ubiEfF54uWfOSXqyZL2hr7kz6Tl2TMsCIesZ/BDvv7p9X0/vfTV9ilB/tJ8Vkoad3JpUXc3f2ek2Tn3lmVyYaQhOts8hZuP8ypLvDrhmP8kYSYNw+vH5zkvJb0+T3LjyJ4ju+TN75mfMTpLeL5t4AzyeY63QhEF8/+jtJ0t6P+WfDOhys/4SqF/KVwBCtC/oXMsJfaQ33upyb5xJmMiBfjKYwTDn3uAL4zTriXgS4GeMUABSjVKo2sH/N8L8JXNJhl+3AN8YXxpWAIBClCAUo0CSiBAAbrC6exrB2yK7r8wwQJmX4ATs0v+7qVJTvpNQRrmS8sScPQSH/CcQaflxMi+lnPI99woiV8jJ+x/St4vw9znzxKGfemlfF6k3rxhK52RBz/kt1yU+DjFL2kc9qHNuYNOe+SnGBOVrXvq6+Rzn+Xh50NWNn7icslb5r5+kvFPWFaP3Pfnx3FLGmai+lG35Or539I5JgaJM6lb6rJL/u6xlHPypMkSHb37tDsaN4nW/XPIn7J82XI75wtDvr3mfG/sXvmh2w+2+m/WjFkyZtQYc2fBhX0ppgfLOgEZdcMibL7W8n4pmCSupF+G2ZHED3xw/0HDhzsUxxJhj9vOHTttJR/pWLlileyJ2WPugFB+8cUXsm7dOq9fNw/+GKGAbT2D7z0nHXycksjdZT08C7KSuKdV9kknuAnk2fc+XZq37Dk493nGe18ZKDV+3Xr1DWuV1sXbb75t7qD9gErlfrFnX6w6YRwFxJOvWXnOJx4OEKPs3P1VRlasHt3D9e/4IU/8euvR8ZNUxs6o5wvksw8HjPnxfz/F2c10UndlerOly5YZ/NLvgwcn+ryTlVfuNZqWBUis2uOaincrmKWn0bujbZVf6TIeZCDcp06bZst8OWd1XpnSZezcKocC0ErwfoLJwT1f9qlo2CsAPswSZXAFPSCYp6zxd+7c2XDhQCMaOXKEfPbZZ7Jxw0a9f9JWo9mzblj66xVEem/cHEaw/CoJn7QisO65V6E513bwi5uylZfv/TTCmkzv+Rl5dtOrh8e68Zz75sPc3cPx6zYwb1jqH4wJ5IRr6oZv/F1/pkicI0SVqzVcfcYbp3Nu/rnmINyzseOHNLh1nJR9lVRyfv4tp2v64IPJLiUG3DE6OtqWv16UpcRKa1avseWRBgHuknZWrBsfNGiQLXkFD4AluCzthMjIhvUbZObMWZIzRw7DzOMbapaFHjpwSKZNn255AXAD2Grgog8fjjfgBXj4MA8WISAOLmAIICMarKxbs9YgoIF0zpI5i32vv3/fAUsnSEOzZ82WGBUUQCQoI8zMbdu3We8OWk/WLNkkY8YMlqfFixYbMiwWDT09S1nBIQAopUb1GgaJxR4KLC1ljTtLVFFoC+bNl1y5ckvGTBlMwABQnTFjpkFpIWgsRcZ95QpAWg8bcAnYAiEhobJx4yYDJQHPDgUDqCnhAMWGtbRw4UIDriDvpJ/1BiuWL/eEdShOwsLCJSTYg7T0XxLIy9R7vfr1HBePcl8wb4GhRFM/pDU8PEyWL11u8rJw4SJZsnix5MrpAdvEwqN8AQzRdmd1smTREpmuZU1DB3MiQ4aMht8HhmPjJo2tc0CW6BiWaXmB4QdwKMt3I/JF2PL0ObPn2Nr/LFmy2ufulC3gp0DWh2oduHK6bcs2g6MjLePHjrfOK3fuPPYM9bh+3QaZNm2qB+Y+T15bIg+YTM4cOQ3nENoVuctwEAoUiLDrCyb0WlKtkIhdf/7upRJbfL5x6oHmA9sAkAaAQFkvvmLlCu/9SRMnSZ++fXnICo118qz1x3r47rvvbFUVKC9Tpk4xaGfurdTnp2qBU0ncA14MgIh58+eZ+UelDPn9d4Mkw3Ig3K7dutrQIUYb5i/9+pk/FiGx/BngCdI5S4WmR48etn4cxWNDABUcUIFYZ06al69YbhgGV199jXcxE8qlxZMtbC05DRrginnz5hnY6I7IHfLpJ59Y3AdU2Dt16mTuhNm9e3cTegiAkW++/trWwB/UOGfPnmVAFTQQluF269ZNtm/bZuH/3LOnpR8LCoizvpofrAWsLABJAdDA/fvvu/m3Mi4yu+TrBjTapMmTTV4A/ejVq6e599S8ffHlF4bPsFXz+4mWHYCg1OOff/6pdTlbnwiSQb8OkmHDh0lObaTgQQ4YMNB6cMBj3LhYyYLJT5l98fnnMvDXX819/LjxVrcoS1CgPv30E1XueyUhPkG++vorr2WJ/Pz1x18mT9Qn4DIoEeTmu2+/8w752Fdg4MABJpt0SECg7VNlP2H8BFNI+EHpUTfUPdcpwyfT8MTg6XpXIRQT2JIlSlgPDQb739q7MT6Dacw33XijNLi7gYFOYHKDIuOCogDEwD4FZcuUlZOaaRojlD40vSkUGmxVtXbKly9nlYAyoLeeMmWKPPjQQ9KocSODJsN6wEzkPisbAQwlzltuucWAPEhnhQrl5bVXXzM0IIAeNm3cKFG7oixcI9X6CA7Q0okWMDE09yH2IwAL8NbbbpVG9zYyQSNuGmer51sZaCXoN4BhgH5DAMQBnNmTTz6lllJR6/luUaV5f9P7LT2ApdDtoJywlkBGJnwAUMFeZGlyfEK8WRHlypeXlk+1lKefetq73j2t0S4tVyy/Gmo1vvTSS4aqjNwAzcXmG02bPiAN777bcAQAD7lPywzwl/naGKmrG1VmXn3lVal7XV07361WL1Ye+I6+hCKg0QIu0uCuu+TexveanFEn7BMAZB29NVYmkF/I3CMqL0DMsaQXFGoUEAhYoBCh6Nkrg+Eolhid1ew5c+S2W2/T+rpF7mtyn/X2yG/Dhg3Vwp1pSgSFjVJzwUlSitLcF4MwZGN8zTjXYOjRe0bujNSe6ncrVLQk1gAryLgPmhA9Fmg9oOcwBgf3DQHImi2rmvkhhjqEWe0hHX/RmPV5KpcG4MaN3z1790jc4TgzozUVki1HNmu4YNOjPQ0fXhsc9/JrQ+RZNHVMTKxZBb379JbR2jtxn7kITEBP+J7GygQhlY9bUqbRkSaQY8gT4KMINnlCV7B7EeEDkQU0FcJID4agASbKs2yAkXAkwfDoKEfQcDJlzGSYd1u2bpGDhw7KYE0nvSk9DeWGxQLEGormf126SLeu3Ww4SB78pfNiM+R7Dcw4yhf0afD4PbiMWt5qjmPCm7mdJ7cpykIFC1kZgShFOeJv+44dMkB7X+qLhkZ9AytOR+GNy848yMa5tM7pNHBnFyD2v2CfCOYG8IeiAEkY9KcsWTI75R4h+7SO2BOBPS1KFC9hzzNZS5kzFADwFDkFMq67WpH9BwzwoGPpzbLlytq8A8hKdHzIHfJtaUshPvfEoJK/e6nFToSn4a+VN+m4FmJrJiZqQFrNpg0bXPgjCUdN0BkDYrLhH5Rdeus8KgCG4suYS92ZLKSSGfueVI1s5rlWFOHRcPBDL4Dmz5wps0F1gSaLH8IGnTdMzXbGzTROwy/gvh7AhWEKAut04OABw3u7/fbbtEF70GyJg7D0AZtjoccgL95JHo2DjUDAQeSauQkYd+IxJFx9fMLECR7cvHr1bcwK3Jk7Q41yASYdYYeA2zKB14MhAeekhQIBmBQQ06fUanj22WflxRdfNERd9lkASeqFF16Q7NmyS6/evU05WBr/a+Zwz7VcmNx9+eWX5emnn7a66duvrzUY8kjdusMYZAE3nkGZYukA+Amce968+WxHK+DF8YuFR4OEuPb+OpaaKyfHNHzDo3BkA8QihnRYlQcO7DcZIb0AlYInSF0StqeOjntf2yK31AuEtfroI48Yv/3W2x6A1PAwKVGyhNU5E+PIDh0XaUgpTvPDASbaxo4dK/fec688/vjj8sxzz6h538KEF/ML9FWAGQDixOyeOpXfXVZnzPSHaKWxMxAmGuEw/jfh0MqjQhGOjNpDMrlE5TBZRCNmkghMwxHa2+6O3m2TPwA7MiEJ4Rfhcs+P6TgSLDh6X3oLGu348eNN4MAdpEFqiZuAgUqcP19+7c37GDDprp1RNtzp0b2HRzGoP8xyVzioKABUCR8LCEuEOQzw7ikDGkDk9khLj2u6I5BsQEIa2M+Ons6Unt4rUby4heeaqezGM0HHzJTFsL+GWY8TUTDCrAp6I3dbrbRENDzG8Bt1uFW4aGHDwaSMsQIoAxoo5FH0J60Rkj+UsmuaM+8C0Cx+mMtB2TE3QN25QwIg6Wi4bEQTr7JhuAZKTNqxwQiEPNEBwOxpwOQjjRZ5ZEiJPCBP1D1xQaA5uaClbJ5CnbInBHGtUHkZOWqkySLDXYYI1BVvjNw9M1OSVGLIVBpkK+wgNXcPSHYdbxVXE4jeFjcKvXDRIuYWG7tHNegdptF79uxlM7I1a9ZSDZpBKzijPPjgQ7JkyTLp07uvgTmWLFVaDh2Ik0yZs0hmZeCpr73mWm1MG2S2NvQcGlf+/BESliFcmtx3vwrTMenTt58sXrxEWj33vA0BMKvxg2CQHqyNXLm04Wv6Gt3b2GZ5u3brpuPEXDa+Y1Z59+4YHY4UUsUToqZgiDz//AtqDmbT8fxETVsfM/GBnALUFAVVtEgxm6kmfNLItljB+uytt9wqRYoUtR1x5mleW7Z80vLBWwDGvcxQyynPM88++5zlhy3HiqsZioDSQ0Wov1deec224erZq5fGPd8JP52ULVtOzdIp8sXnX8q48RPkZhXAPPkAvkhSP/8x03gAYx06dJh89cXXpvxJawY1zykfZObUSR1KhYaZbJA3mDLPH1HAhjyU5ew5c3UoMUgqVawkd9xxp9Uz4VMelGPOnLmsk0AxFC5cRBWttkB1z6qyZENL5FSviTNcFT7Dg+bNnzAQ2L59+tk80ksvvWzyhCIgPOqfOKgbmPPWL7ZRJR8mP/z4k00GZs6k8qn+g1VZIOvEU6lSZQOQddtGSnHQoN9+969X1BVze8WKFdKsWbOLAzSqPR6v63i11vLJlp40KqENGR5ADNes7SmBFUivCVQTxOtAdoShJ7BXWs7zx9T0QqNbHtzc6j1egSEMvoSCwfpwX8ngz66T5B9zzt33gPDpMe2jHE0fJiB5Cc8Y7kmvhsE1vZeLKgPR2GF6LeIjbpeYqbeJQ00vz1kv78SBG70WCMiecoM1Iv11y4lzXgkyn1CoUEGbO/j0k09tXzvGy64/37x5wTD1WfzTYNyy/q9p3tx5MmnyJHnr7bccl9NEvWNxuWXrC+oJcU0PTp6pK+qCa+SGZxkCGVFPWh/cw6Jwy4XyR558y4r6YYzvxuM+Z6Q/xIlVyD6VXtJytbCcskeuIbvWezzHGyDC8a0ThrHsNPz000/ZBrwpSaQ7WMUw+YM8UTAX+/CNkwoLUfPdOUixfYyjR3CojrHSMynjOTJqgafTa1//HJheoWoee134kEMPthsnfzYochh3vibDVHP9pc9w+ln7OEQPKt9NB+GTFtLKeBz/YRnDPNeUMGN0Ddv8cKg7B3GTVvwmLefQMOYt9EyfxQ/59D6vbuSVcxu/ahyME918s20ZfoBF69Ont00ish9ilapVJGdu7SF9Dt9y8YavR9bsalG40uGk9788rJ6UfN3cusiUNVOitLt1YXMDavlwbeNoPZjEo2w9k3meZ5kIpLwob6sHPbc6d/LNs4SFG+HhjgIhXNzx4z5nrAf3sArMv3voPV/Z5Nx77TzHfJV9zegck6dOkS+/+lKqat0BOZ4adUFpaerTDlPXQX7cfTlIC+yfunvvaaYT3U967bilp5dP6q4cTG/Nufpxw0wUtm94/sL2dU/uvsPJ5Qd27yHMSe9Z2lWg2XPhhReel3JlytprzHsaNrQ4g1WoXb9+40iarnOk82IxsuF77a0Lf6xppmNOZ72s59rvr7J14Pab2N333PVj4eHu3HPd3etErG7e+M+TveE71yWKFZMnnmguDzZt6lFcKCof/ynBxBigtEAIU0qShocJy0aX7Gl4VY3qHhNT6901QwOUxknrik1OYO+We6nQYs/+ipBU8N/PvVTl/yLOy5E59NfMZv2115F6pPQrpovF/4ks/kfMXICeeYYZXB8/vXYgpfnytQRSume9VMmxCOxUfxCuAKV98k4WKtnEeCqu3TjHF4MeT/7vpQ675O9egC+cES5/7mmdTSY4/Ny7bNnJb2pbbpevJRCgAAXovChtrh3w4xbgAGMe+3MP8IVx2rUEAmP6AAXoolDaHw74KgOGhp7h4cUjNz4/cfOR3gWnx8/z9i7YJT3lK7OUIktzgM6gK7dcgs7zFSGHn/upwZ74lJPe4+s550jN1yVeJj79tS/CnF/7gs91P6GpDNJzDvcZX3b8Jcc0bPfcXgf53LMy0F/8EKctePK5fyFsaT5H2i4mJ8372dgtl9RgKxf3Og2Vz8XgS2pikOWfu6N2ez6VPQ+KP5xg/G9p/979Bh+m7dxWcO3Yvt0AObZu2SqbN2+S7Vu3y749+xzfiYkGTHqTI/vOXMNl/cLMWbNM8GgQhAmyTNSuaPPjriRMCeJ7+B3bIw3f4D8nzfvhuHjvd/T/OXl0jNGOHZEGDwexenT9uvV2frlSusZNmvjHGNRC2b59h+yO2S2VK1e27+NTlTQ+tNK6tetU8A9L1apVnRseopGAI/hd16624KbseSykYJntvn37PHu1/wuisU+aNMnyD/AES3fnzJ0rc+bMlW3bthkWHw0KTMCkRO8NjBToRd4FKkkIExTw0TGjR9sS0ZjdMQYXtnrNasMwBBsRZCIAMfgO/UKI8gMrEVgxAC+KsDLtPyTyDvZhtqzZTi/WOguBzQfSzrW1r3VcUpZQ2q5iptEP/n2w3HHnHTLk9z/s+/+UXriTVkibHMMBz4k/Nu14ClM0sXuqsiXszDj5SBsg0YiIAlZJhw7GJboPuMjmTVtk+7YdJmAJh4/I/HkLZOaMWbI3dp/d37eHtfge/4fjEiQ2Zq/3mntLFy/THni3Djcw1WnILEoRyZAxkzzzzLPyXKvnpXHjJhIensGAN1o9/7xn6a96Yvnwzh27vOHFRMfaMtWlS5dZWkgT0FWrVq72+HPGoJ7xPhMfnmXToNe0afOSPPnU0/LA/Q9I3OF46dbte9kVGWXhus9yzoq47Vt3aBiYdeqm7tGa/tWr1ibKq+uX5coFCxTUNC2XhHhWOnru7doZ7S2/Des3ecLTsDi3cnbiw/3okeMeePTY02VHWVJu7vWB/Ye893dHxVhcx4+ekBXLVnr9ABzKMup1Wpe+aTkrayklutZ0kXbKwMrYcadeucZ97ep1nvQrb9T8UC5HE45588Sy8pXLV5nlZW5OHK4MANbKEl/OI7fvtHCp621btpt/0r5uzXorP/y44RIP7nGHQDHyuB30KZc1q9daubn3YMJasmipWWtcU97kz9Lr+KH8Tcad65RgtQTuSxZtmIpiWS89IWAHF4MAXsQErlpNLQFNoEt7YvfImLFj5LFHHzMgCZaOguJC+4nWIcJvg36zdfvsS8ASTkA1AOwg/VmyZjGEXvDcAMrgmXnaK9KzgzsICrABch48aACRQEGBRQc4BD1yrVo1bXkyizuidu7SxrLJ8P1Y7bVVhwfdf+puFgwQaBvXe3ruZWolLFywwIAhSCe9/ID+Awz/AMDJbTq0qFipoq03Bxj0mmuuNlzDjZs2GuhIeIZww1MEhw7AFMofQJOfuv9kiDNYBoCJAKoJoEaQjuxAYwYcFOsBUIu8efMaGhP53bBhgyqgVdKiZUsDTY3In98spPj4BAPDXL16laEPg3UHMg5W4N8aFqAYBQoWkJw5c5ppTDmbFbRipQGclCxZQhYvXKQKeoZUrlTZyon8Tdc0Y92QJspok+YL1CQAS0qWLGlWyerVqw3ABaRj4LTORq4lANq0S4CLjh83zsoYiw0ZAW3om2++kSVLl1jdUbYbtb6wCAFuAY8S3AXyw1CP9AHkQr7xU7p0GcsfAB93NbjLMBvwi/L8WsNdpu5Amo0bP16HmvFmbc7RZwFtqVWzlgD+OnLkSMN3BCCWe+HpwyWiQISBvZIGkI0XqcxNmTLZ8BsAiFmkZThw4EDZFRVlcoofYMR69+p9WtYtz6MNaqxc+XJ2fcGkbezs3wk4/jjxez8V2I00qTtIwblz5bbCrFixogm53rF7YO1lzZZNe9DW8kDTB0xg8ubJK9Wvqm4Am3Xr1bUGDqqQ+wzzCqD3MCZlqHPPvfdoA2khDz30kKHMsJ4ek96g1jVN7mRkKOhBCQkm7FyDSFygYEFp3bq1gXhs3bbVBKNOndqGbQdQJMMF4MUADWnR4gl5+JGHDewS+Oj0QIhp90FYZJ1fTjy9+ylTZjVr1jR0IzAEyIe7nNVNFxBVa3QIgXIEmuqF1i8YDNVE7WnddE+dMtWWomZXxVJGGwoKkElH4NL27t2jeiLInmvSuLEK63hNe1559rlnDXsAYFTWuYP1ANpzq1at5KabbjLBj9oZZfUFbDmoPeQC7AYUGoCvpHmblkn9+tebAorUugHFCVMbRJ3HHntMSpYu6cn/2ZjM8udea9oZlqEQG9/XWB588EFD8MGyAkoNFOmnn3laGml+Fi1aaHBqALSC24hicydbkZennnlKmjRprEp7oSqUOMNgcOPRf5Y//MfGxkgl7RCbPdFM6qgyQjkDX9/mpTamTMFvoP4JHzBRyu/qWleb4iFdzMkAJ46yaPX8cwZKAmIQ8SDPdVVWn9NnHn+8mSlqGjvDYuSR/DMMJo0lS5Xypi8l+JKZGKSXQhvSG4DkA9Y/lgrm1wZtdO4cQrXq1eTxZo8bmAOoQOACIDwGEaUV6RJwUwgG9+hhEdbRo0ZbxSaoJcKEHQWEMBlegPMtNwKeIWMGz+SkXgNWWVorBXwBAE2wmpjYo8J5zgNzFaQ9b4RaFvtltI7/Z86YaaCYgI26mHhJie/8+WYcIAt6F8MbJD36C0NcAxMGbh7otMdV0QC8MWTwECsnLCriYPJyR2SkrShkXgXsRHrkOE0DwonJW6FiBQuTXo/GVKRIUSsvlMBB9YdSRGkW1bKiLFAk7LUAiCbpAGPPXeFGflCeoCiRPxRSlqyZtcfLaOEB6En5gNNnm7Fog/6nRJygJNOIfun7i81d1VSLjTSjoPOqEkOBAgILChTWB9/fk7e4uDgLo1Tp0mYpjhszTq2UBaaokYN0/r7T1ySy70S5smXtEmzH0qW0DPLktnCzqrVJJwOkGMqtlN7jGTos3LAq6UDowfPmB6lJJLvWx1615oCHxwJYtmypDB48WKZMnqz5CNay3aeWQlmV8+0qkwkm71iA5zMf9k/o3F8McvhzTy2m5HzOOTDN2C9g+YoVBiE2bOhQ7f2OmFbEHxNL1pvqwQy722Bo8jR+9zUfuHH8ggoEmjBwU0zs/dzjZ5k4aaKZiQwXCMeDEuOBmqbndXtmEH6Oq/BSSfSyVP6Jk57ellqnwdJbI4wIOIoBUFNAMMHyKxBRwMx9CJgycAPphWkIIao0iJdGbenXMBBkUJVBQKJh0XisVJy0gP+H0CO8YN4xvKF3vPGmGw2WnKEQ5iUTkPQu/X7pJzO0B0eJ0YDc2XlMUtJAfnNkz24NljhoGJQE0GmesbGnLFEeDLvMuuLaKWPKCfOcvLuv3TS53mc8GABgIIaZFWL3cdLfszHPQN5rJWC/ARmlQdJ4wGgkD1hqlBf+KD+PteV5zoBnlfD33bff2jyTNVpVEtQn5U8dmh/1b4Aj+otCB5MyzLESaPjUh/nRfJE+FB4dBFBkhi6Fo+YNPEP2zADvEif88xz1Sxj79u21NIJpWbFCRetIsOiKFi1myoxNdKZNnWZDi/LlK1g6eD6l+KzIQlSiFcZFPCw+kxMEy4O1jtAi1G+8+bq0a9dWf9+Q++6/z2bRE4545g+WqKLAL9qT7bwAFkUAGN9i7zDGBigU6+Do8aMyXxtAfMJhE9gdOyMNcbZchfIGxU3FxeyJNYE9ceqE55MqByHIevdjR7XCVTGogAByunnLZms8PLt2/TobsnB9Qu/jl3N2F2IeoVKVShK5K1KCVIiAUE84mmBzC8dPetBx8cv+AAhUVHS0/Pbbb5YnMAGofIRmpypEymbdurVy5NgR88suN6QP07pilYqmqEJUmeBv1pzZ0kRN5tfeeE3at29v5Qhe/qo1q2xOgvzScFBmpMFNh9WBCkl6VbI5cmY3hGfG17iTduDIc+lYPrveQwlQtpTp+g3rLQz8mZLRP875tbklq9+TpojIP/fO5/A85xya1wULF5iSu/X2W+UeHWqxL8NhtX4oI8oEfx5A0eNWD1wf07rHatuvckE5X1v7GilXsZzWd4xdA/9Nvbnpp75BaDpy9IimGGgwZ8ij+UURkA7yRRws9MGqjNodZeHhj7kY0k3ZGZS5yZInH6QRBQ4MOmGDUQjEeL6IfOpHrTAtV6wl5nz+nve3bNuxTa2dGhZnSh4kKU0SPToKmYrFHMKkpCHTYIAFw/TDpF6xfIXUvra27FZ/YLazVyEQ5Jh9aPhly5fp2HiSuWEe99MeGY3K5hw0KoTo6qtrSf8B/W3nIMxqxo1//vmH9Z4QDcolNgVhiABAB0JAw2a8/uOPP2rY/bR3z2g9PZN6xYoWtb0HaMy1NA7gwn/88SeDUK9UqaKMGDHCAEgB/6RxMKZmW6vevXtL165d5dtvvrExZtMHmtrEGXGi8AarYhgyZIhNUGFNYKYDV01+e6hV88P3P1pedu3aaYCXqu7VLK1k5Uej5BeIbcBVt6gC4z6EQPIWxmPpqOQqYRqD1osgs5nKVB3v9v+lv71CI5+FixS28sL6Ik62T8uU2XklqsHSu7pEeRG2KSjNb/Yc2eXXgb/K1i3bHB/nT0cTjlpdMVFKWTAMogFheWEhIdwQ6ScuOgScXGh69qJgH4pRI0dJ12+7WlnS6w75Y4hahwnWqKETWDwM7VRWUIwJWtaEQx64dqKx+MhrpiyZ5MYbbpSBAwZK714eNOn7mjQxuUX+rIwdwsoirTxz+223y4wZ020nKLaom6sySgeFdUhHwxAqR/YctuWcG2dKUVCvPn39B6mujBtXr1ptk2VkIlVJ48M0GTN6jMTqOOmxxx81Zz7YofBo1C6oo7u+mt2JQ7WCc+TKYUpjnfbC7BfAbDb3CZOJmAzaMHNr4aE02LWmoJr9VDIVSaGioDeqxuYZZqptPKY9AuiwVASz6BaeEsKHcjBtreFT8Wh05gYw9xAseg8aDeNAZp5JO4oDa4BKRwERN/fA9qcREwcmNFYFfulpGP+xb56bF09bPWUzx/Ta5HPHth32LAoCAeces9w0ToBCgcnGkmCoQ5p8icaXK2dOKxfmUBgSkIZYtYIoB+LlrQa/jOUZOpFf9uFDKbkz+h4T/Ijs2LHdhjs0OuZsChSMsIlDTGQaHUR6iQsFwFsYXovmdfY7OBstWrDINklp83Ibu6bOaKzUBZvPUMZW9iojxIFyd+NkApbNV8g/O1PTeKk/PiTjTQCbzYAuzPcphw7F2VidTURKly2tYe+0a5QLe0VQrgzX3ElaJn+tnKJjdFgabnMflAfjd6wSNgtBPiHeYqFQTXaUSBdlxbwCHQGTkpQtG5ug0F15R+bYeo63FUwSe5S13bpgohzTvBIIkEPUUgpV/KVISZXAZU9OffNNBq9qUVzNmzf3QsSlpBLgPRetLxl24vJ7L5VYI2U0xvmpE/qrWvUMP1ciO2VyxbJJfhK3y5k1ryeOHrfdi3hdy76KZgE4987wfwGc5vAETte1/mMCBHdVBL5+AnzlMTJhb1H83Ltcmfmbq6+pZd9UMMfEvhP+/F0oewa6aYGSM29wTyHTJ0ABupTJfZ2bksQr3+QtAT14DWb7tul4xHpjZfcdZ0ox75Xdd/D6Z69R3HezAQ6wy/btBIefewH+98wE9VlVCzPKvJpgVtvtjXl1ZLj12mAvhJnNh9BE7pdm/PKhhe9rpWTJT5gBvnw5TSx/vgyJTj2ox889KeYziIbOazTewfJZ4+2332avq+wLN+cdckqQve5zzBxmKkePGmWfoj7y6MPmFqAAQbNnzbFZ8tZtWtsrOXfNwn9F9KIXi/iK0XpuPY8okN8+Q75QYnEZ4bJwKah7j5+Tz43e4R3sxEmTbJFJaKjnNSHvTPks8t+SmyGzAhwzwIb+mig+Q6WSM7sfnCRHF68OApQGiGEp6yBYFYkJ+5/PE/0X8qd5pr2kRNbd9meWwFmVgEN8hAKiDotI4uwrpn+/rJiIPSfuz78szf+iEgJ06ZNPC+Jtw7+lfy23aYTIOwua+ChJlYD/4UCyhO//WgsHKEABSjE668SgL7kduCkAFMGFcoACFKA0QUE/dT/3cCARpVQDTilrIqBQAvRPKGDFJiZtP+dtCXiJQkwJvlCi8cP+wg5wgJPjACWmIJH/AwsB8yqp2PmuAAAAAElFTkSuQmCC;" vertex="1" parent="1">
          <mxGeometry x="-693.5" y="608.5" width="257" height="203" as="geometry" />
        </mxCell>
      </root>
    </mxGraphModel>
  </diagram>
</mxfile>
